<svg width="144" height="92" viewBox="0 0 379 242" fill="none" xmlns="http://www.w3.org/2000/svg">
<path d="M155.64 193.044C155.64 194.916 157.56 196.644 159.816 196.644C162.12 196.644 164.04 194.916 164.04 193.044C164.04 191.124 162.12 189.444 159.816 189.444C157.56 189.444 155.64 191.124 155.64 193.044ZM164.115 174.9L172.467 196.5H180.291L188.643 174.9H181.779L176.355 189.684L170.979 174.9H164.115ZM201.153 196.884C206.433 196.884 210.657 193.956 212.193 188.628L206.001 188.484C205.281 190.404 203.649 191.556 201.441 191.556C198.129 191.556 196.065 188.916 196.065 185.7C196.065 182.868 197.841 179.844 201.393 179.844C203.169 179.844 205.233 180.612 206.001 182.724L212.193 182.628C210.657 177.3 206.385 174.564 201.153 174.564C195.009 174.564 189.489 178.932 189.489 185.7C189.489 192.42 194.961 196.884 201.153 196.884Z" fill="#DF972C"/>
<path d="M129.24 128.4L137.592 150H145.416L153.768 128.4H146.904L141.48 143.184L136.104 128.4H129.24ZM154.614 139.2C154.614 145.44 159.702 150.384 166.758 150.384C172.422 150.384 176.31 147.12 177.942 143.088L171.222 142.992C170.502 144.192 168.822 145.056 166.758 145.056C163.494 145.056 161.718 142.944 161.382 140.688H178.566C179.622 133.872 174.534 128.016 166.758 128.016C160.134 128.016 154.614 133.056 154.614 139.2ZM161.622 136.944C162.15 134.736 163.926 132.864 166.758 132.864C169.446 132.864 171.318 134.304 171.942 136.944H161.622ZM182.265 150H188.793V139.2C188.793 136.656 191.145 134.64 193.545 134.64C194.217 134.64 194.841 134.784 195.465 135.12L198.681 129.216C197.913 128.688 196.617 128.352 195.177 128.352C192.873 128.352 190.185 129.168 188.793 131.136V128.4H182.265V150ZM199.1 139.2C199.1 145.536 203.708 150.384 209.996 150.384C212.684 150.384 215.036 149.136 216.716 147.264V150H223.244V128.4H216.716V131.088C215.084 129.264 212.684 128.064 209.996 128.064C203.756 128.064 199.1 132.864 199.1 139.2ZM205.676 139.2C205.676 135.792 208.124 132.96 211.148 132.96C214.412 132.96 216.668 135.744 216.668 139.2C216.668 143.808 213.356 145.44 211.148 145.44C208.124 145.44 205.676 142.752 205.676 139.2ZM226.709 139.2C226.709 145.152 231.893 150.192 238.277 150.192C240.773 150.192 242.885 149.184 244.325 147.648V149.136C244.325 151.152 242.933 153.696 238.613 153.696C236.597 153.696 235.061 152.928 234.437 151.824L227.573 152.16C228.581 155.232 232.133 159.552 238.853 159.552C245.285 159.552 250.661 155.472 250.661 148.704V128.4H244.325V130.752C242.885 129.216 240.773 128.208 238.277 128.208C231.941 128.208 226.709 133.2 226.709 139.2ZM238.757 133.152C241.829 133.152 244.277 135.504 244.277 139.2C244.277 143.136 241.829 145.248 238.757 145.248C235.541 145.248 233.285 142.224 233.285 139.2C233.285 135.84 235.877 133.152 238.757 133.152ZM253.848 139.2C253.848 145.44 258.936 150.384 265.992 150.384C271.656 150.384 275.544 147.12 277.176 143.088L270.456 142.992C269.736 144.192 268.056 145.056 265.992 145.056C262.728 145.056 260.952 142.944 260.616 140.688H277.8C278.856 133.872 273.768 128.016 265.992 128.016C259.368 128.016 253.848 133.056 253.848 139.2ZM260.856 136.944C261.384 134.736 263.16 132.864 265.992 132.864C268.68 132.864 270.552 134.304 271.176 136.944H260.856ZM281.547 120.24V150H288.459V130.896L297.147 150H302.283L310.971 130.896V150H317.883V120.24H310.059L299.691 141.6L289.371 120.24H281.547ZM321.442 139.2C321.442 145.44 326.53 150.384 333.586 150.384C339.25 150.384 343.138 147.12 344.77 143.088L338.05 142.992C337.33 144.192 335.65 145.056 333.586 145.056C330.322 145.056 328.546 142.944 328.21 140.688H345.394C346.45 133.872 341.362 128.016 333.586 128.016C326.962 128.016 321.442 133.056 321.442 139.2ZM328.45 136.944C328.978 134.736 330.754 132.864 333.586 132.864C336.274 132.864 338.146 134.304 338.77 136.944H328.45ZM349.141 128.4V150H355.669V137.664C355.669 136.608 356.869 133.296 360.565 133.296C362.773 133.296 364.357 134.976 364.357 137.28V150H370.933V137.664C370.933 132.528 367.765 128.016 361.717 128.016C359.221 128.016 357.109 129.024 355.669 130.464V128.4H349.141Z" fill="white"/>
<path d="M74.7234 52.4028L148.709 215H126.342L108.029 174.934H41.5403L23.7198 215H1.4748L74.7234 52.4028ZM74.7234 101.44L49.5289 157.114H99.918L74.7234 101.44Z" fill="white"/>
<g clip-path="url(#clip0_102_2)">
<path d="M93.75 90.15C103.05 94.8 113.1 95.1 120.45 90C121.35 94.05 119.25 94.65 120.15 96.9C112.8 98.7 103.5 97.65 94.5 94.8C94.35 92.7 94.35 91.5 93.75 90.15Z" fill="#009245" stroke="white" stroke-width="0.1" stroke-miterlimit="10"/>
<path d="M94.5 93.8999C102.75 99.8999 109.05 106.05 115.2 104.55C111.75 105.75 109.65 107.7 109.65 110.4C99.75 103.5 95.4 99.1499 93.9 96.1499C93.75 95.0999 94.8 95.0999 94.5 93.8999Z" fill="#009245" stroke="white" stroke-width="0.1" stroke-miterlimit="10"/>
<path d="M90.75 88.0498C94.5 89.2498 95.55 92.2498 93.75 96.4498Z" fill="#009245"/>
<path d="M90.75 88.0498C94.5 89.2498 95.55 92.2498 93.75 96.4498" stroke="white" stroke-width="0.1" stroke-miterlimit="10"/>
<path d="M59.8838 86.6932C71.9842 82.9417 77.3451 83.8421 89.4454 85.0426C92.0493 88.3439 94.1937 93.1458 94.5 96.2971C79.3363 96.2971 66.6232 99.7485 51 103.5C51.7658 97.9478 57.1268 89.3943 59.8838 86.6932Z" fill="#009245" stroke="white" stroke-width="0.1" stroke-miterlimit="10"/>
</g>
<defs>
<clipPath id="clip0_102_2">
<rect width="69.9" height="26.7" fill="white" transform="translate(51 84)"/>
</clipPath>
</defs>
</svg>
