<svg width="658" height="400" viewBox="0 0 996 626" fill="none" xmlns="http://www.w3.org/2000/svg">
<rect x="206.588" y="156.379" width="18.7877" height="247.554" transform="rotate(-56.7032 206.588 156.379)" fill="white"/>
<rect x="567.104" y="302.771" width="18.0517" height="259.664" transform="rotate(-90 567.104 302.771)" fill="white"/>
<rect width="18.0517" height="193.619" transform="matrix(-0.632959 -0.774185 -0.774185 0.632959 401.322 334.976)" fill="white"/>
<g filter="url(#filter0_f_928_134)">
<circle cx="138.374" cy="124.374" r="63.3741" fill="white" fill-opacity="0.8"/>
</g>
<g filter="url(#filter1_f_928_134)">
<circle cx="861.374" cy="317.374" r="63.3741" fill="white"/>
</g>
<g opacity="0.7" filter="url(#filter2_f_928_134)">
<circle cx="156.5" cy="506.5" r="75.5" fill="white"/>
</g>
<circle cx="480.875" cy="289.785" r="93.7222" fill="#61DB94"/>
<circle cx="480.872" cy="289.785" r="87.4741" fill="white"/>
<circle cx="136.617" cy="124.451" r="95.07" fill="white"/>
<circle cx="137.253" cy="124.087" r="78.995" fill="url(#paint0_linear_928_134)"/>
<path d="M171.898 2.96133C164.505 1.64943 157.01 0.993118 149.502 1.00005C132.758 0.998571 116.178 4.29522 100.708 10.7017C85.2385 17.1083 71.1823 26.4992 59.3422 38.3383C47.502 50.1774 38.1099 64.2327 31.702 79.7018C25.2941 95.1709 21.996 111.751 21.996 128.494C21.9945 145.239 25.2915 161.82 31.6987 177.29C38.106 192.761 47.4979 206.817 59.3382 218.658C71.1785 230.498 85.2352 239.89 100.706 246.297C116.176 252.704 132.757 256.001 149.502 256" stroke="url(#paint1_linear_928_134)" stroke-width="0.937222" stroke-miterlimit="10" stroke-linecap="round"/>
<path d="M94.4884 96H99.0384L92.8504 77.8H87.5464L81.3584 96H85.9084L86.8184 93.14H93.5784L94.4884 96ZM88.0664 89.24L90.1984 82.558L92.3304 89.24H88.0664ZM106.319 96.364C108.867 96.364 111.077 95.038 112.195 93.01L108.789 91.06C108.373 91.97 107.411 92.516 106.267 92.516C104.577 92.516 103.329 91.294 103.329 89.5C103.329 87.706 104.577 86.484 106.267 86.484C107.411 86.484 108.347 87.03 108.789 87.94L112.195 85.964C111.077 83.962 108.841 82.636 106.319 82.636C102.367 82.636 99.4294 85.626 99.4294 89.5C99.4294 93.374 102.367 96.364 106.319 96.364ZM119.751 96.364C122.299 96.364 124.509 95.038 125.627 93.01L122.221 91.06C121.805 91.97 120.843 92.516 119.699 92.516C118.009 92.516 116.761 91.294 116.761 89.5C116.761 87.706 118.009 86.484 119.699 86.484C120.843 86.484 121.779 87.03 122.221 87.94L125.627 85.964C124.509 83.962 122.273 82.636 119.751 82.636C115.799 82.636 112.861 85.626 112.861 89.5C112.861 93.374 115.799 96.364 119.751 96.364ZM130.427 91.06H139.657C139.761 90.566 139.813 90.046 139.813 89.5C139.813 85.574 137.005 82.636 133.209 82.636C129.101 82.636 126.293 85.626 126.293 89.5C126.293 93.374 129.049 96.364 133.495 96.364C135.965 96.364 137.889 95.454 139.163 93.686L136.043 91.892C135.523 92.464 134.613 92.88 133.547 92.88C132.117 92.88 130.921 92.412 130.427 91.06ZM130.349 88.148C130.713 86.822 131.701 86.094 133.183 86.094C134.353 86.094 135.523 86.64 135.939 88.148H130.349ZM145.209 86.796C145.209 86.328 145.625 86.068 146.301 86.068C147.159 86.068 147.679 86.536 148.043 87.212L151.371 85.418C150.279 83.572 148.407 82.636 146.301 82.636C143.597 82.636 141.205 84.066 141.205 86.9C141.205 91.398 147.601 90.644 147.601 92.074C147.601 92.594 147.133 92.88 146.197 92.88C145.053 92.88 144.325 92.334 143.987 91.346L140.607 93.27C141.621 95.376 143.597 96.364 146.197 96.364C149.005 96.364 151.605 95.09 151.605 92.1C151.605 87.29 145.209 88.278 145.209 86.796ZM156.584 86.796C156.584 86.328 157 86.068 157.676 86.068C158.534 86.068 159.054 86.536 159.418 87.212L162.746 85.418C161.654 83.572 159.782 82.636 157.676 82.636C154.972 82.636 152.58 84.066 152.58 86.9C152.58 91.398 158.976 90.644 158.976 92.074C158.976 92.594 158.508 92.88 157.572 92.88C156.428 92.88 155.7 92.334 155.362 91.346L151.982 93.27C152.996 95.376 154.972 96.364 157.572 96.364C160.38 96.364 162.98 95.09 162.98 92.1C162.98 87.29 156.584 88.278 156.584 86.796ZM179.172 86.744V83H176.494V79.36L172.594 80.53V83H170.514V86.744H172.594V91.346C172.594 94.986 174.076 96.52 179.172 96V92.464C177.456 92.568 176.494 92.464 176.494 91.346V86.744H179.172ZM187.366 96.364C191.188 96.364 194.256 93.374 194.256 89.5C194.256 85.626 191.188 82.636 187.366 82.636C183.544 82.636 180.476 85.626 180.476 89.5C180.476 93.374 183.544 96.364 187.366 96.364ZM187.366 92.568C185.676 92.568 184.376 91.346 184.376 89.5C184.376 87.654 185.676 86.432 187.366 86.432C189.056 86.432 190.356 87.654 190.356 89.5C190.356 91.346 189.056 92.568 187.366 92.568ZM94.4534 116.8H90.2934L85.3534 124.886L80.4134 116.8H76.2534V135H80.4134V124.418L85.1194 132.14H85.5874L90.2934 124.418V135H94.4534V116.8ZM100.935 130.06H110.165C110.269 129.566 110.321 129.046 110.321 128.5C110.321 124.574 107.513 121.636 103.717 121.636C99.6095 121.636 96.8015 124.626 96.8015 128.5C96.8015 132.374 99.5575 135.364 104.003 135.364C106.473 135.364 108.397 134.454 109.671 132.686L106.551 130.892C106.031 131.464 105.121 131.88 104.055 131.88C102.625 131.88 101.429 131.412 100.935 130.06ZM100.857 127.148C101.221 125.822 102.209 125.094 103.691 125.094C104.861 125.094 106.031 125.64 106.447 127.148H100.857ZM119.771 125.744V122H117.093V118.36L113.193 119.53V122H111.113V125.744H113.193V130.346C113.193 133.986 114.675 135.52 119.771 135V131.464C118.055 131.568 117.093 131.464 117.093 130.346V125.744H119.771ZM131.163 122V123.222C130.305 122.234 129.031 121.636 127.289 121.636C123.883 121.636 121.075 124.626 121.075 128.5C121.075 132.374 123.883 135.364 127.289 135.364C129.031 135.364 130.305 134.766 131.163 133.778V135H135.063V122H131.163ZM128.069 131.672C126.275 131.672 124.975 130.45 124.975 128.5C124.975 126.55 126.275 125.328 128.069 125.328C129.863 125.328 131.163 126.55 131.163 128.5C131.163 130.45 129.863 131.672 128.069 131.672ZM144.164 135.364C146.712 135.364 148.922 134.038 150.04 132.01L146.634 130.06C146.218 130.97 145.256 131.516 144.112 131.516C142.422 131.516 141.174 130.294 141.174 128.5C141.174 126.706 142.422 125.484 144.112 125.484C145.256 125.484 146.192 126.03 146.634 126.94L150.04 124.964C148.922 122.962 146.686 121.636 144.164 121.636C140.212 121.636 137.274 124.626 137.274 128.5C137.274 132.374 140.212 135.364 144.164 135.364ZM160.135 122V129.098C160.135 130.944 159.147 131.776 157.717 131.776C156.469 131.776 155.455 131.022 155.455 129.41V122H151.555V129.982C151.555 133.492 153.791 135.364 156.417 135.364C158.133 135.364 159.433 134.74 160.135 133.778V135H164.035V122H160.135ZM170.795 124.314V122H166.895V135H170.795V129.124C170.795 126.55 173.083 125.9 174.695 126.16V121.74C173.057 121.74 171.315 122.572 170.795 124.314ZM179.829 125.796C179.829 125.328 180.245 125.068 180.921 125.068C181.779 125.068 182.299 125.536 182.663 126.212L185.991 124.418C184.899 122.572 183.027 121.636 180.921 121.636C178.217 121.636 175.825 123.066 175.825 125.9C175.825 130.398 182.221 129.644 182.221 131.074C182.221 131.594 181.753 131.88 180.817 131.88C179.673 131.88 178.945 131.334 178.607 130.346L175.227 132.27C176.241 134.376 178.217 135.364 180.817 135.364C183.625 135.364 186.225 134.09 186.225 131.1C186.225 126.29 179.829 127.278 179.829 125.796ZM191.529 130.06H200.759C200.863 129.566 200.915 129.046 200.915 128.5C200.915 124.574 198.107 121.636 194.311 121.636C190.203 121.636 187.395 124.626 187.395 128.5C187.395 132.374 190.151 135.364 194.597 135.364C197.067 135.364 198.991 134.454 200.265 132.686L197.145 130.892C196.625 131.464 195.715 131.88 194.649 131.88C193.219 131.88 192.023 131.412 191.529 130.06ZM191.451 127.148C191.815 125.822 192.803 125.094 194.285 125.094C195.455 125.094 196.625 125.64 197.041 127.148H191.451ZM122.245 155.8V165.68L115.225 155.8H112.105V174H116.265V164.12L123.285 174H126.405V155.8H122.245ZM140.573 159.804V155.8H129.523V174H133.683V167.318H140.443V163.314H133.683V159.804H140.573ZM155.251 155.8H141.731V159.804H146.411V174H150.571V159.804H155.251V155.8ZM158.806 164.796C158.806 164.328 159.222 164.068 159.898 164.068C160.756 164.068 161.276 164.536 161.64 165.212L164.968 163.418C163.876 161.572 162.004 160.636 159.898 160.636C157.194 160.636 154.802 162.066 154.802 164.9C154.802 169.398 161.198 168.644 161.198 170.074C161.198 170.594 160.73 170.88 159.794 170.88C158.65 170.88 157.922 170.334 157.584 169.346L154.204 171.27C155.218 173.376 157.194 174.364 159.794 174.364C162.602 174.364 165.202 173.09 165.202 170.1C165.202 165.29 158.806 166.278 158.806 164.796Z" fill="white"/>
<circle cx="153.461" cy="475.364" r="105.77" fill="white"/>
<circle cx="153.586" cy="475.485" r="94.395" fill="url(#paint2_linear_928_134)"/>
<path d="M202.042 586.827C195.506 589.883 188.714 592.356 181.744 594.217C166.205 598.382 149.999 599.445 134.049 597.347C118.099 595.248 102.719 590.028 88.787 581.985C74.8547 573.942 62.6432 563.234 52.8497 550.471C43.0562 537.709 35.8726 523.142 31.7089 507.603C27.5436 492.063 26.4802 475.856 28.5794 459.905C30.6787 443.955 35.8993 428.574 43.9434 414.641C51.9874 400.709 62.6972 388.497 75.4611 378.704C88.225 368.911 102.793 361.728 118.333 357.565" stroke="url(#paint3_linear_928_134)" stroke-width="0.937222" stroke-miterlimit="10" stroke-linecap="round"/>
<path d="M105.992 411.249H99.102V429.449H103.262V423.729H105.992C109.58 423.729 112.362 420.947 112.362 417.489C112.362 414.031 109.58 411.249 105.992 411.249ZM105.992 419.829H103.262V415.149H105.992C107.266 415.149 108.202 416.163 108.202 417.489C108.202 418.815 107.266 419.829 105.992 419.829ZM117.954 418.763V416.449H114.054V429.449H117.954V423.573C117.954 420.999 120.242 420.349 121.854 420.609V416.189C120.216 416.189 118.474 417.021 117.954 418.763ZM126.78 424.509H136.01C136.114 424.015 136.166 423.495 136.166 422.949C136.166 419.023 133.358 416.085 129.562 416.085C125.454 416.085 122.646 419.075 122.646 422.949C122.646 426.823 125.402 429.813 129.848 429.813C132.318 429.813 134.242 428.903 135.516 427.135L132.396 425.341C131.876 425.913 130.966 426.329 129.9 426.329C128.47 426.329 127.274 425.861 126.78 424.509ZM126.702 421.597C127.066 420.271 128.054 419.543 129.536 419.543C130.706 419.543 131.876 420.089 132.292 421.597H126.702ZM152.938 416.085C151.092 416.085 149.896 416.761 149.168 417.801C148.44 416.709 147.296 416.085 145.762 416.085C144.02 416.085 142.876 416.761 142.278 417.645V416.449H138.378V429.449H142.278V422.117C142.278 420.583 143.006 419.673 144.306 419.673C145.554 419.673 146.178 420.505 146.178 421.805V429.449H150.078V422.117C150.078 420.583 150.806 419.673 152.106 419.673C153.354 419.673 153.978 420.505 153.978 421.805V429.449H157.878V421.467C157.878 418.217 155.928 416.085 152.938 416.085ZM162.494 415.305C163.768 415.305 164.834 414.239 164.834 412.965C164.834 411.691 163.768 410.625 162.494 410.625C161.22 410.625 160.154 411.691 160.154 412.965C160.154 414.239 161.22 415.305 162.494 415.305ZM160.544 429.449H164.444V416.449H160.544V429.449ZM175.696 416.449V423.547C175.696 425.393 174.708 426.225 173.278 426.225C172.03 426.225 171.016 425.471 171.016 423.859V416.449H167.116V424.431C167.116 427.941 169.352 429.813 171.978 429.813C173.694 429.813 174.994 429.189 175.696 428.227V429.449H179.596V416.449H175.696ZM197.016 416.085C195.17 416.085 193.974 416.761 193.246 417.801C192.518 416.709 191.374 416.085 189.84 416.085C188.098 416.085 186.954 416.761 186.356 417.645V416.449H182.456V429.449H186.356V422.117C186.356 420.583 187.084 419.673 188.384 419.673C189.632 419.673 190.256 420.505 190.256 421.805V429.449H194.156V422.117C194.156 420.583 194.884 419.673 196.184 419.673C197.432 419.673 198.056 420.505 198.056 421.805V429.449H201.956V421.467C201.956 418.217 200.006 416.085 197.016 416.085ZM108.661 453.629V449.885C104.345 449.625 102.343 451.809 102.343 455.449H100.601V459.193H102.343V468.449H106.243V459.193H108.661V455.449H106.243C106.243 453.941 107.205 453.499 108.661 453.629ZM113.196 463.509H122.426C122.53 463.015 122.582 462.495 122.582 461.949C122.582 458.023 119.774 455.085 115.978 455.085C111.87 455.085 109.062 458.075 109.062 461.949C109.062 465.823 111.818 468.813 116.264 468.813C118.734 468.813 120.658 467.903 121.932 466.135L118.812 464.341C118.292 464.913 117.382 465.329 116.316 465.329C114.886 465.329 113.69 464.861 113.196 463.509ZM113.118 460.597C113.482 459.271 114.47 458.543 115.952 458.543C117.122 458.543 118.292 459.089 118.708 460.597H113.118ZM134.105 455.449V456.671C133.247 455.683 131.973 455.085 130.231 455.085C126.825 455.085 124.017 458.075 124.017 461.949C124.017 465.823 126.825 468.813 130.231 468.813C131.973 468.813 133.247 468.215 134.105 467.227V468.449H138.005V455.449H134.105ZM131.011 465.121C129.217 465.121 127.917 463.899 127.917 461.949C127.917 459.999 129.217 458.777 131.011 458.777C132.805 458.777 134.105 459.999 134.105 461.949C134.105 463.899 132.805 465.121 131.011 465.121ZM148.485 459.193V455.449H145.807V451.809L141.907 452.979V455.449H139.827V459.193H141.907V463.795C141.907 467.435 143.389 468.969 148.485 468.449V464.913C146.769 465.017 145.807 464.913 145.807 463.795V459.193H148.485ZM159.345 455.449V462.547C159.345 464.393 158.357 465.225 156.927 465.225C155.679 465.225 154.665 464.471 154.665 462.859V455.449H150.765V463.431C150.765 466.941 153.001 468.813 155.627 468.813C157.343 468.813 158.643 468.189 159.345 467.227V468.449H163.245V455.449H159.345ZM170.005 457.763V455.449H166.105V468.449H170.005V462.573C170.005 459.999 172.293 459.349 173.905 459.609V455.189C172.267 455.189 170.525 456.021 170.005 457.763ZM178.831 463.509H188.061C188.165 463.015 188.217 462.495 188.217 461.949C188.217 458.023 185.409 455.085 181.613 455.085C177.505 455.085 174.697 458.075 174.697 461.949C174.697 465.823 177.453 468.813 181.899 468.813C184.369 468.813 186.293 467.903 187.567 466.135L184.447 464.341C183.927 464.913 183.017 465.329 181.951 465.329C180.521 465.329 179.325 464.861 178.831 463.509ZM178.753 460.597C179.117 459.271 180.105 458.543 181.587 458.543C182.757 458.543 183.927 459.089 184.343 460.597H178.753ZM193.613 459.245C193.613 458.777 194.029 458.517 194.705 458.517C195.563 458.517 196.083 458.985 196.447 459.661L199.775 457.867C198.683 456.021 196.811 455.085 194.705 455.085C192.001 455.085 189.609 456.515 189.609 459.349C189.609 463.847 196.005 463.093 196.005 464.523C196.005 465.043 195.537 465.329 194.601 465.329C193.457 465.329 192.729 464.783 192.391 463.795L189.011 465.719C190.025 467.825 192.001 468.813 194.601 468.813C197.409 468.813 200.009 467.539 200.009 464.549C200.009 459.739 193.613 460.727 193.613 459.245ZM100.464 507.813C104.286 507.813 107.354 504.823 107.354 500.949C107.354 497.075 104.286 494.085 100.464 494.085C96.6419 494.085 93.5739 497.075 93.5739 500.949C93.5739 504.823 96.6419 507.813 100.464 507.813ZM100.464 504.017C98.7739 504.017 97.4739 502.795 97.4739 500.949C97.4739 499.103 98.7739 497.881 100.464 497.881C102.154 497.881 103.454 499.103 103.454 500.949C103.454 502.795 102.154 504.017 100.464 504.017ZM116.329 492.629V488.885C112.013 488.625 110.011 490.809 110.011 494.449H108.269V498.193H110.011V507.449H113.911V498.193H116.329V494.449H113.911C113.911 492.941 114.873 492.499 116.329 492.629ZM124.391 489.249V507.449H128.551V489.249H124.391ZM139.166 494.085C137.45 494.085 136.15 494.709 135.448 495.671V494.449H131.548V507.449H135.448V500.351C135.448 498.505 136.436 497.673 137.866 497.673C139.114 497.673 140.128 498.427 140.128 500.039V507.449H144.028V499.467C144.028 495.957 141.792 494.085 139.166 494.085ZM150.398 498.245C150.398 497.777 150.814 497.517 151.49 497.517C152.348 497.517 152.868 497.985 153.232 498.661L156.56 496.867C155.468 495.021 153.596 494.085 151.49 494.085C148.786 494.085 146.394 495.515 146.394 498.349C146.394 502.847 152.79 502.093 152.79 503.523C152.79 504.043 152.322 504.329 151.386 504.329C150.242 504.329 149.514 503.783 149.176 502.795L145.796 504.719C146.81 506.825 148.786 507.813 151.386 507.813C154.194 507.813 156.794 506.539 156.794 503.549C156.794 498.739 150.398 499.727 150.398 498.245ZM165.979 498.193V494.449H163.301V490.809L159.401 491.979V494.449H157.321V498.193H159.401V502.795C159.401 506.435 160.883 507.969 165.979 507.449V503.913C164.263 504.017 163.301 503.913 163.301 502.795V498.193H165.979ZM177.371 494.449V495.671C176.513 494.683 175.239 494.085 173.497 494.085C170.091 494.085 167.283 497.075 167.283 500.949C167.283 504.823 170.091 507.813 173.497 507.813C175.239 507.813 176.513 507.215 177.371 506.227V507.449H181.271V494.449H177.371ZM174.277 504.121C172.483 504.121 171.183 502.899 171.183 500.949C171.183 498.999 172.483 497.777 174.277 497.777C176.071 497.777 177.371 498.999 177.371 500.949C177.371 502.899 176.071 504.121 174.277 504.121ZM191.75 494.085C190.034 494.085 188.734 494.709 188.032 495.671V494.449H184.132V507.449H188.032V500.351C188.032 498.505 189.02 497.673 190.45 497.673C191.698 497.673 192.712 498.427 192.712 500.039V507.449H196.612V499.467C196.612 495.957 194.376 494.085 191.75 494.085ZM206.908 498.193V494.449H204.23V490.809L200.33 491.979V494.449H198.25V498.193H200.33V502.795C200.33 506.435 201.812 507.969 206.908 507.449V503.913C205.192 504.017 204.23 503.913 204.23 502.795V498.193H206.908ZM116.137 546.449H120.869L123.833 535.711L126.797 546.449H131.529L136.547 528.249H132.179L129.033 540.989L125.523 528.249H122.143L118.633 540.989L115.487 528.249H111.119L116.137 546.449ZM146.128 533.449V534.671C145.27 533.683 143.996 533.085 142.254 533.085C138.848 533.085 136.04 536.075 136.04 539.949C136.04 543.823 138.848 546.813 142.254 546.813C143.996 546.813 145.27 546.215 146.128 545.227V546.449H150.028V533.449H146.128ZM143.034 543.121C141.24 543.121 139.94 541.899 139.94 539.949C139.94 537.999 141.24 536.777 143.034 536.777C144.828 536.777 146.128 537.999 146.128 539.949C146.128 541.899 144.828 543.121 143.034 543.121ZM160.507 537.193V533.449H157.829V529.809L153.929 530.979V533.449H151.849V537.193H153.929V541.795C153.929 545.435 155.411 546.969 160.507 546.449V542.913C158.791 543.017 157.829 542.913 157.829 541.795V537.193H160.507ZM168.701 546.813C171.249 546.813 173.459 545.487 174.577 543.459L171.171 541.509C170.755 542.419 169.793 542.965 168.649 542.965C166.959 542.965 165.711 541.743 165.711 539.949C165.711 538.155 166.959 536.933 168.649 536.933C169.793 536.933 170.729 537.479 171.171 538.389L174.577 536.413C173.459 534.411 171.223 533.085 168.701 533.085C164.749 533.085 161.811 536.075 161.811 539.949C161.811 543.823 164.749 546.813 168.701 546.813ZM183.765 533.085C182.049 533.085 180.749 533.709 180.047 534.671V528.249H176.147V546.449H180.047V539.351C180.047 537.505 181.035 536.673 182.465 536.673C183.713 536.673 184.727 537.427 184.727 539.039V546.449H188.627V538.467C188.627 534.957 186.391 533.085 183.765 533.085Z" fill="white"/>
<circle cx="865.773" cy="297.228" r="105.772" fill="white"/>
<circle cx="865.97" cy="295.424" r="88.365" fill="url(#paint4_linear_928_134)"/>
<path d="M845.559 174.961C852.952 173.649 860.447 172.993 867.955 173C884.699 172.999 901.279 176.295 916.749 182.702C932.218 189.108 946.275 198.499 958.115 210.338C969.955 222.177 979.347 236.233 985.755 251.702C992.163 267.171 995.461 283.751 995.461 300.494C995.463 317.239 992.166 333.82 985.758 349.29C979.351 364.761 969.959 378.817 958.119 390.658C946.279 402.498 932.222 411.89 916.751 418.297C901.281 424.704 884.7 428.001 867.955 428" stroke="url(#paint5_linear_928_134)" stroke-width="0.937222" stroke-miterlimit="10" stroke-linecap="round"/>
<path d="M829.273 251.015H822.383V269.215H826.543V263.495H829.273C832.861 263.495 835.643 260.713 835.643 257.255C835.643 253.797 832.861 251.015 829.273 251.015ZM829.273 259.595H826.543V254.915H829.273C830.547 254.915 831.483 255.929 831.483 257.255C831.483 258.581 830.547 259.595 829.273 259.595ZM841.235 258.529V256.215H837.335V269.215H841.235V263.339C841.235 260.765 843.523 260.115 845.135 260.375V255.955C843.497 255.955 841.755 256.787 841.235 258.529ZM848.908 255.071C850.182 255.071 851.248 254.005 851.248 252.731C851.248 251.457 850.182 250.391 848.908 250.391C847.634 250.391 846.568 251.457 846.568 252.731C846.568 254.005 847.634 255.071 848.908 255.071ZM846.958 269.215H850.858V256.215H846.958V269.215ZM862.006 256.215L859.302 264.457L856.598 256.215H852.282L857.092 269.215H861.512L866.322 256.215H862.006ZM876.683 256.215V257.437C875.825 256.449 874.551 255.851 872.809 255.851C869.403 255.851 866.595 258.841 866.595 262.715C866.595 266.589 869.403 269.579 872.809 269.579C874.551 269.579 875.825 268.981 876.683 267.993V269.215H880.583V256.215H876.683ZM873.589 265.887C871.795 265.887 870.495 264.665 870.495 262.715C870.495 260.765 871.795 259.543 873.589 259.543C875.383 259.543 876.683 260.765 876.683 262.715C876.683 264.665 875.383 265.887 873.589 265.887ZM891.063 259.959V256.215H888.385V252.575L884.485 253.745V256.215H882.405V259.959H884.485V264.561C884.485 268.201 885.967 269.735 891.063 269.215V265.679C889.347 265.783 888.385 265.679 888.385 264.561V259.959H891.063ZM896.501 264.275H905.731C905.835 263.781 905.887 263.261 905.887 262.715C905.887 258.789 903.079 255.851 899.283 255.851C895.175 255.851 892.367 258.841 892.367 262.715C892.367 266.589 895.123 269.579 899.569 269.579C902.039 269.579 903.963 268.669 905.237 266.901L902.117 265.107C901.597 265.679 900.687 266.095 899.621 266.095C898.191 266.095 896.995 265.627 896.501 264.275ZM896.423 261.363C896.787 260.037 897.775 259.309 899.257 259.309C900.427 259.309 901.597 259.855 902.013 261.363H896.423ZM835.743 308.215H840.293L834.105 290.015H828.801L822.613 308.215H827.163L828.073 305.355H834.833L835.743 308.215ZM829.321 301.455L831.453 294.773L833.585 301.455H829.321ZM847.574 308.579C850.122 308.579 852.332 307.253 853.45 305.225L850.044 303.275C849.628 304.185 848.666 304.731 847.522 304.731C845.832 304.731 844.584 303.509 844.584 301.715C844.584 299.921 845.832 298.699 847.522 298.699C848.666 298.699 849.602 299.245 850.044 300.155L853.45 298.179C852.332 296.177 850.096 294.851 847.574 294.851C843.622 294.851 840.684 297.841 840.684 301.715C840.684 305.589 843.622 308.579 847.574 308.579ZM861.006 308.579C863.554 308.579 865.764 307.253 866.882 305.225L863.476 303.275C863.06 304.185 862.098 304.731 860.954 304.731C859.264 304.731 858.016 303.509 858.016 301.715C858.016 299.921 859.264 298.699 860.954 298.699C862.098 298.699 863.034 299.245 863.476 300.155L866.882 298.179C865.764 296.177 863.528 294.851 861.006 294.851C857.054 294.851 854.116 297.841 854.116 301.715C854.116 305.589 857.054 308.579 861.006 308.579ZM871.682 303.275H880.912C881.016 302.781 881.068 302.261 881.068 301.715C881.068 297.789 878.26 294.851 874.464 294.851C870.356 294.851 867.548 297.841 867.548 301.715C867.548 305.589 870.304 308.579 874.75 308.579C877.22 308.579 879.144 307.669 880.418 305.901L877.298 304.107C876.778 304.679 875.868 305.095 874.802 305.095C873.372 305.095 872.176 304.627 871.682 303.275ZM871.604 300.363C871.968 299.037 872.956 298.309 874.438 298.309C875.608 298.309 876.778 298.855 877.194 300.363H871.604ZM886.464 299.011C886.464 298.543 886.88 298.283 887.556 298.283C888.414 298.283 888.934 298.751 889.298 299.427L892.626 297.633C891.534 295.787 889.662 294.851 887.556 294.851C884.852 294.851 882.46 296.281 882.46 299.115C882.46 303.613 888.856 302.859 888.856 304.289C888.856 304.809 888.388 305.095 887.452 305.095C886.308 305.095 885.58 304.549 885.242 303.561L881.862 305.485C882.876 307.591 884.852 308.579 887.452 308.579C890.26 308.579 892.86 307.305 892.86 304.315C892.86 299.505 886.464 300.493 886.464 299.011ZM897.839 299.011C897.839 298.543 898.255 298.283 898.931 298.283C899.789 298.283 900.309 298.751 900.673 299.427L904.001 297.633C902.909 295.787 901.037 294.851 898.931 294.851C896.227 294.851 893.835 296.281 893.835 299.115C893.835 303.613 900.231 302.859 900.231 304.289C900.231 304.809 899.763 305.095 898.827 305.095C897.683 305.095 896.955 304.549 896.617 303.561L893.237 305.485C894.251 307.591 896.227 308.579 898.827 308.579C901.635 308.579 904.235 307.305 904.235 304.315C904.235 299.505 897.839 300.493 897.839 299.011ZM848.722 329.015H841.832V347.215H845.992V341.495H848.722C852.31 341.495 855.092 338.713 855.092 335.255C855.092 331.797 852.31 329.015 848.722 329.015ZM848.722 337.595H845.992V332.915H848.722C849.996 332.915 850.932 333.929 850.932 335.255C850.932 336.581 849.996 337.595 848.722 337.595ZM865.689 334.215V335.437C864.831 334.449 863.557 333.851 861.815 333.851C858.409 333.851 855.601 336.841 855.601 340.715C855.601 344.589 858.409 347.579 861.815 347.579C863.557 347.579 864.831 346.981 865.689 345.993V347.215H869.589V334.215H865.689ZM862.595 343.887C860.801 343.887 859.501 342.665 859.501 340.715C859.501 338.765 860.801 337.543 862.595 337.543C864.389 337.543 865.689 338.765 865.689 340.715C865.689 342.665 864.389 343.887 862.595 343.887ZM881.889 329.015V335.437C881.031 334.449 879.757 333.851 878.015 333.851C874.609 333.851 871.801 336.841 871.801 340.715C871.801 344.589 874.609 347.579 878.015 347.579C879.757 347.579 881.031 346.981 881.889 345.993V347.215H885.789V329.015H881.889ZM878.795 343.887C877.001 343.887 875.701 342.665 875.701 340.715C875.701 338.765 877.001 337.543 878.795 337.543C880.589 337.543 881.889 338.765 881.889 340.715C881.889 342.665 880.589 343.887 878.795 343.887Z" fill="white"/>
<circle cx="480.5" cy="288.5" r="127.5" fill="white"/>
<circle cx="480.828" cy="286.427" r="111.033" fill="url(#paint6_linear_928_134)"/>
<path d="M447.465 229.378C452.329 229.378 455.785 226.818 455.785 222.498C455.785 217.762 451.977 216.578 448.585 215.554C445.097 214.498 444.553 213.794 444.553 212.77C444.553 211.874 445.353 211.074 446.953 211.074C449.001 211.074 450.057 212.066 450.825 213.666L455.145 211.138C453.513 207.842 450.633 206.082 446.953 206.082C443.081 206.082 439.433 208.578 439.433 212.898C439.433 217.186 442.697 218.786 446.025 219.714C449.385 220.642 450.665 221.186 450.665 222.562C450.665 223.426 450.057 224.386 447.625 224.386C445.097 224.386 443.721 223.138 442.921 221.282L438.505 223.842C439.753 227.138 442.761 229.378 447.465 229.378ZM467.091 217.538V212.93H463.795V208.45L458.995 209.89V212.93H456.435V217.538H458.995V223.202C458.995 227.682 460.819 229.57 467.091 228.93V224.578C464.979 224.706 463.795 224.578 463.795 223.202V217.538H467.091ZM481.113 212.93V214.434C480.057 213.218 478.489 212.482 476.345 212.482C472.153 212.482 468.697 216.162 468.697 220.93C468.697 225.698 472.153 229.378 476.345 229.378C478.489 229.378 480.057 228.642 481.113 227.426V228.93H485.913V212.93H481.113ZM477.305 224.834C475.097 224.834 473.497 223.33 473.497 220.93C473.497 218.53 475.097 217.026 477.305 217.026C479.513 217.026 481.113 218.53 481.113 220.93C481.113 223.33 479.513 224.834 477.305 224.834ZM504.794 228.93L498.81 220.93L504.634 212.93H499.034L494.234 219.938V206.53H489.434V228.93H494.234V221.858L499.354 228.93H504.794ZM509.878 222.85H521.238C521.366 222.242 521.43 221.602 521.43 220.93C521.43 216.098 517.974 212.482 513.302 212.482C508.246 212.482 504.79 216.162 504.79 220.93C504.79 225.698 508.182 229.378 513.654 229.378C516.694 229.378 519.062 228.258 520.63 226.082L516.79 223.874C516.15 224.578 515.03 225.09 513.718 225.09C511.958 225.09 510.486 224.514 509.878 222.85ZM509.782 219.266C510.23 217.634 511.446 216.738 513.27 216.738C514.71 216.738 516.15 217.41 516.662 219.266H509.782ZM440.726 254.53H431.766V276.93H440.726C446.902 276.93 451.606 272.066 451.606 265.73C451.606 259.394 446.902 254.53 440.726 254.53ZM440.726 272.002H436.886V259.458H440.726C444.246 259.458 446.678 261.89 446.678 265.73C446.678 269.57 444.246 272.002 440.726 272.002ZM458.613 270.85H469.973C470.101 270.242 470.165 269.602 470.165 268.93C470.165 264.098 466.709 260.482 462.037 260.482C456.981 260.482 453.525 264.162 453.525 268.93C453.525 273.698 456.917 277.378 462.389 277.378C465.429 277.378 467.797 276.258 469.365 274.082L465.525 271.874C464.885 272.578 463.765 273.09 462.453 273.09C460.693 273.09 459.221 272.514 458.613 270.85ZM458.517 267.266C458.965 265.634 460.181 264.738 462.005 264.738C463.445 264.738 464.885 265.41 465.397 267.266H458.517ZM481.219 258.69V254.082C475.907 253.762 473.443 256.45 473.443 260.93H471.299V265.538H473.443V276.93H478.243V265.538H481.219V260.93H478.243C478.243 259.074 479.427 258.53 481.219 258.69ZM492.826 265.538V260.93H489.53V256.45L484.73 257.89V260.93H482.17V265.538H484.73V271.202C484.73 275.682 486.554 277.57 492.826 276.93V272.578C490.714 272.706 489.53 272.578 489.53 271.202V265.538H492.826ZM497.944 259.522C499.512 259.522 500.824 258.21 500.824 256.642C500.824 255.074 499.512 253.762 497.944 253.762C496.376 253.762 495.064 255.074 495.064 256.642C495.064 258.21 496.376 259.522 497.944 259.522ZM495.544 276.93H500.344V260.93H495.544V276.93ZM512.656 258.69V254.082C507.344 253.762 504.88 256.45 504.88 260.93H502.736V265.538H504.88V276.93H509.68V265.538H512.656V260.93H509.68C509.68 259.074 510.864 258.53 512.656 258.69ZM525.124 260.93L522.116 270.722L518.564 260.93H513.284L519.652 276.194C518.948 278.146 517.892 278.85 515.652 278.85V283.33C520.132 283.554 522.98 281.538 524.772 276.45L530.244 260.93H525.124ZM453.681 302.53H437.041V307.458H442.801V324.93H447.921V307.458H453.681V302.53ZM460.567 325.378C465.271 325.378 469.047 321.698 469.047 316.93C469.047 312.162 465.271 308.482 460.567 308.482C455.863 308.482 452.087 312.162 452.087 316.93C452.087 321.698 455.863 325.378 460.567 325.378ZM460.567 320.706C458.487 320.706 456.887 319.202 456.887 316.93C456.887 314.658 458.487 313.154 460.567 313.154C462.647 313.154 464.247 314.658 464.247 316.93C464.247 319.202 462.647 320.706 460.567 320.706ZM487.122 324.93L481.138 316.93L486.962 308.93H481.362L476.562 315.938V302.53H471.762V324.93H476.562V317.858L481.682 324.93H487.122ZM492.207 318.85H503.567C503.695 318.242 503.759 317.602 503.759 316.93C503.759 312.098 500.303 308.482 495.631 308.482C490.575 308.482 487.119 312.162 487.119 316.93C487.119 321.698 490.511 325.378 495.983 325.378C499.023 325.378 501.391 324.258 502.959 322.082L499.119 319.874C498.479 320.578 497.359 321.09 496.047 321.09C494.287 321.09 492.815 320.514 492.207 318.85ZM492.111 315.266C492.559 313.634 493.775 312.738 495.599 312.738C497.039 312.738 498.479 313.41 498.991 315.266H492.111ZM515.857 308.482C513.745 308.482 512.145 309.25 511.281 310.434V308.93H506.481V324.93H511.281V316.194C511.281 313.922 512.497 312.898 514.257 312.898C515.793 312.898 517.041 313.826 517.041 315.81V324.93H521.841V315.106C521.841 310.786 519.089 308.482 515.857 308.482ZM436.529 376.13H441.329C439.089 371.65 437.809 366.85 437.809 361.73C437.809 356.61 439.089 351.81 441.329 347.33H436.529C434.289 351.81 433.009 356.61 433.009 361.73C433.009 366.85 434.289 371.65 436.529 376.13ZM452.539 350.53H443.579V372.93H452.539C458.715 372.93 463.419 368.066 463.419 361.73C463.419 355.394 458.715 350.53 452.539 350.53ZM452.539 368.002H448.699V355.458H452.539C456.059 355.458 458.491 357.89 458.491 361.73C458.491 365.57 456.059 368.002 452.539 368.002ZM479.897 355.458V350.53H466.297V372.93H471.417V364.706H479.737V359.778H471.417V355.458H479.897ZM497.962 350.53H481.322V355.458H487.082V372.93H492.202V355.458H497.962V350.53ZM518.444 350.53H512.62L508.364 359.17L504.108 350.53H498.284L505.804 364.322V372.93H510.924V364.322L518.444 350.53ZM523.56 376.13C525.8 371.65 527.08 366.85 527.08 361.73C527.08 356.61 525.8 351.81 523.56 347.33H518.76C521 351.81 522.28 356.61 522.28 361.73C522.28 366.85 521 371.65 518.76 376.13H523.56Z" fill="white"/>
<defs>
<filter id="filter0_f_928_134" x="41" y="27" width="194.748" height="194.748" filterUnits="userSpaceOnUse" color-interpolation-filters="sRGB">
<feFlood flood-opacity="0" result="BackgroundImageFix"/>
<feBlend mode="normal" in="SourceGraphic" in2="BackgroundImageFix" result="shape"/>
<feGaussianBlur stdDeviation="17" result="effect1_foregroundBlur_928_134"/>
</filter>
<filter id="filter1_f_928_134" x="764" y="220" width="194.748" height="194.748" filterUnits="userSpaceOnUse" color-interpolation-filters="sRGB">
<feFlood flood-opacity="0" result="BackgroundImageFix"/>
<feBlend mode="normal" in="SourceGraphic" in2="BackgroundImageFix" result="shape"/>
<feGaussianBlur stdDeviation="17" result="effect1_foregroundBlur_928_134"/>
</filter>
<filter id="filter2_f_928_134" x="47" y="397" width="219" height="219" filterUnits="userSpaceOnUse" color-interpolation-filters="sRGB">
<feFlood flood-opacity="0" result="BackgroundImageFix"/>
<feBlend mode="normal" in="SourceGraphic" in2="BackgroundImageFix" result="shape"/>
<feGaussianBlur stdDeviation="17" result="effect1_foregroundBlur_928_134"/>
</filter>
<linearGradient id="paint0_linear_928_134" x1="46.0495" y1="71.6628" x2="178.905" y2="167.893" gradientUnits="userSpaceOnUse">
<stop stop-color="#61DB94"/>
<stop offset="1" stop-color="#0F9547"/>
</linearGradient>
<linearGradient id="paint1_linear_928_134" x1="85007.7" y1="14084.7" x2="64914.8" y2="14084.7" gradientUnits="userSpaceOnUse">
<stop stop-color="#808285"/>
<stop offset="1" stop-color="#58595B"/>
</linearGradient>
<linearGradient id="paint2_linear_928_134" x1="44.6031" y1="412.841" x2="203.358" y2="527.831" gradientUnits="userSpaceOnUse">
<stop stop-color="#61DB94"/>
<stop offset="1" stop-color="#19964D"/>
</linearGradient>
<linearGradient id="paint3_linear_928_134" x1="75431.9" y1="-33577.7" x2="56784.7" y2="-28581.2" gradientUnits="userSpaceOnUse">
<stop stop-color="#808285"/>
<stop offset="1" stop-color="#58595B"/>
</linearGradient>
<linearGradient id="paint4_linear_928_134" x1="944.963" y1="216.431" x2="865.97" y2="383.789" gradientUnits="userSpaceOnUse">
<stop stop-color="#61DB94"/>
<stop offset="1" stop-color="#0C813D"/>
</linearGradient>
<linearGradient id="paint5_linear_928_134" x1="-83990.2" y1="14256.6" x2="-63897.3" y2="14256.6" gradientUnits="userSpaceOnUse">
<stop stop-color="#808285"/>
<stop offset="1" stop-color="#58595B"/>
</linearGradient>
<linearGradient id="paint6_linear_928_134" x1="383.827" y1="192.477" x2="480.828" y2="397.46" gradientUnits="userSpaceOnUse">
<stop stop-color="#75DFA1"/>
<stop offset="1" stop-color="#10823F"/>
</linearGradient>
</defs>
</svg>
