<svg width="658" height="400" viewBox="0 0 1134 715" fill="none" xmlns="http://www.w3.org/2000/svg">
<rect x="293.588" y="245.379" width="18.7877" height="247.554" transform="rotate(-56.7032 293.588 245.379)" fill="white"/>
<rect x="654.104" y="391.771" width="18.0517" height="259.664" transform="rotate(-90 654.104 391.771)" fill="white"/>
<rect width="18.0517" height="193.619" transform="matrix(-0.632959 -0.774185 -0.774185 0.632959 488.322 423.976)" fill="white"/>
<g filter="url(#filter0_f_926_135)">
<circle cx="225.374" cy="213.374" r="63.3741" fill="white" fill-opacity="0.8"/>
</g>
<g filter="url(#filter1_f_926_135)">
<circle cx="948.374" cy="406.374" r="63.3741" fill="white"/>
</g>
<g opacity="0.7" filter="url(#filter2_f_926_135)">
<circle cx="243.5" cy="595.5" r="75.5" fill="white"/>
</g>
<circle cx="567.875" cy="378.785" r="93.7222" fill="#61DB94"/>
<circle cx="567.872" cy="378.785" r="87.4741" fill="white"/>
<circle cx="223.617" cy="213.451" r="95.07" fill="white"/>
<circle cx="224.253" cy="213.087" r="78.995" fill="url(#paint0_linear_926_135)"/>
<path d="M258.898 91.9613C251.505 90.6494 244.01 89.9931 236.502 90.0001C219.758 89.9986 203.178 93.2952 187.708 99.7017C172.239 106.108 158.182 115.499 146.342 127.338C134.502 139.177 125.11 153.233 118.702 168.702C112.294 184.171 108.996 200.751 108.996 217.494C108.994 234.239 112.292 250.82 118.699 266.29C125.106 281.761 134.498 295.817 146.338 307.658C158.178 319.498 172.235 328.89 187.706 335.297C203.176 341.704 219.757 345.001 236.502 345" stroke="url(#paint1_linear_926_135)" stroke-width="0.937222" stroke-miterlimit="10" stroke-linecap="round"/>
<path d="M181.488 185H186.038L179.85 166.8H174.546L168.358 185H172.908L173.818 182.14H180.578L181.488 185ZM175.066 178.24L177.198 171.558L179.33 178.24H175.066ZM193.319 185.364C195.867 185.364 198.077 184.038 199.195 182.01L195.789 180.06C195.373 180.97 194.411 181.516 193.267 181.516C191.577 181.516 190.329 180.294 190.329 178.5C190.329 176.706 191.577 175.484 193.267 175.484C194.411 175.484 195.347 176.03 195.789 176.94L199.195 174.964C198.077 172.962 195.841 171.636 193.319 171.636C189.367 171.636 186.429 174.626 186.429 178.5C186.429 182.374 189.367 185.364 193.319 185.364ZM206.751 185.364C209.299 185.364 211.509 184.038 212.627 182.01L209.221 180.06C208.805 180.97 207.843 181.516 206.699 181.516C205.009 181.516 203.761 180.294 203.761 178.5C203.761 176.706 205.009 175.484 206.699 175.484C207.843 175.484 208.779 176.03 209.221 176.94L212.627 174.964C211.509 172.962 209.273 171.636 206.751 171.636C202.799 171.636 199.861 174.626 199.861 178.5C199.861 182.374 202.799 185.364 206.751 185.364ZM217.427 180.06H226.657C226.761 179.566 226.813 179.046 226.813 178.5C226.813 174.574 224.005 171.636 220.209 171.636C216.101 171.636 213.293 174.626 213.293 178.5C213.293 182.374 216.049 185.364 220.495 185.364C222.965 185.364 224.889 184.454 226.163 182.686L223.043 180.892C222.523 181.464 221.613 181.88 220.547 181.88C219.117 181.88 217.921 181.412 217.427 180.06ZM217.349 177.148C217.713 175.822 218.701 175.094 220.183 175.094C221.353 175.094 222.523 175.64 222.939 177.148H217.349ZM232.209 175.796C232.209 175.328 232.625 175.068 233.301 175.068C234.159 175.068 234.679 175.536 235.043 176.212L238.371 174.418C237.279 172.572 235.407 171.636 233.301 171.636C230.597 171.636 228.205 173.066 228.205 175.9C228.205 180.398 234.601 179.644 234.601 181.074C234.601 181.594 234.133 181.88 233.197 181.88C232.053 181.88 231.325 181.334 230.987 180.346L227.607 182.27C228.621 184.376 230.597 185.364 233.197 185.364C236.005 185.364 238.605 184.09 238.605 181.1C238.605 176.29 232.209 177.278 232.209 175.796ZM243.584 175.796C243.584 175.328 244 175.068 244.676 175.068C245.534 175.068 246.054 175.536 246.418 176.212L249.746 174.418C248.654 172.572 246.782 171.636 244.676 171.636C241.972 171.636 239.58 173.066 239.58 175.9C239.58 180.398 245.976 179.644 245.976 181.074C245.976 181.594 245.508 181.88 244.572 181.88C243.428 181.88 242.7 181.334 242.362 180.346L238.982 182.27C239.996 184.376 241.972 185.364 244.572 185.364C247.38 185.364 249.98 184.09 249.98 181.1C249.98 176.29 243.584 177.278 243.584 175.796ZM266.172 175.744V172H263.494V168.36L259.594 169.53V172H257.514V175.744H259.594V180.346C259.594 183.986 261.076 185.52 266.172 185V181.464C264.456 181.568 263.494 181.464 263.494 180.346V175.744H266.172ZM274.366 185.364C278.188 185.364 281.256 182.374 281.256 178.5C281.256 174.626 278.188 171.636 274.366 171.636C270.544 171.636 267.476 174.626 267.476 178.5C267.476 182.374 270.544 185.364 274.366 185.364ZM274.366 181.568C272.676 181.568 271.376 180.346 271.376 178.5C271.376 176.654 272.676 175.432 274.366 175.432C276.056 175.432 277.356 176.654 277.356 178.5C277.356 180.346 276.056 181.568 274.366 181.568ZM181.453 205.8H177.293L172.353 213.886L167.413 205.8H163.253V224H167.413V213.418L172.119 221.14H172.587L177.293 213.418V224H181.453V205.8ZM187.935 219.06H197.165C197.269 218.566 197.321 218.046 197.321 217.5C197.321 213.574 194.513 210.636 190.717 210.636C186.609 210.636 183.801 213.626 183.801 217.5C183.801 221.374 186.557 224.364 191.003 224.364C193.473 224.364 195.397 223.454 196.671 221.686L193.551 219.892C193.031 220.464 192.121 220.88 191.055 220.88C189.625 220.88 188.429 220.412 187.935 219.06ZM187.857 216.148C188.221 214.822 189.209 214.094 190.691 214.094C191.861 214.094 193.031 214.64 193.447 216.148H187.857ZM206.771 214.744V211H204.093V207.36L200.193 208.53V211H198.113V214.744H200.193V219.346C200.193 222.986 201.675 224.52 206.771 224V220.464C205.055 220.568 204.093 220.464 204.093 219.346V214.744H206.771ZM218.163 211V212.222C217.305 211.234 216.031 210.636 214.289 210.636C210.883 210.636 208.075 213.626 208.075 217.5C208.075 221.374 210.883 224.364 214.289 224.364C216.031 224.364 217.305 223.766 218.163 222.778V224H222.063V211H218.163ZM215.069 220.672C213.275 220.672 211.975 219.45 211.975 217.5C211.975 215.55 213.275 214.328 215.069 214.328C216.863 214.328 218.163 215.55 218.163 217.5C218.163 219.45 216.863 220.672 215.069 220.672ZM231.164 224.364C233.712 224.364 235.922 223.038 237.04 221.01L233.634 219.06C233.218 219.97 232.256 220.516 231.112 220.516C229.422 220.516 228.174 219.294 228.174 217.5C228.174 215.706 229.422 214.484 231.112 214.484C232.256 214.484 233.192 215.03 233.634 215.94L237.04 213.964C235.922 211.962 233.686 210.636 231.164 210.636C227.212 210.636 224.274 213.626 224.274 217.5C224.274 221.374 227.212 224.364 231.164 224.364ZM247.135 211V218.098C247.135 219.944 246.147 220.776 244.717 220.776C243.469 220.776 242.455 220.022 242.455 218.41V211H238.555V218.982C238.555 222.492 240.791 224.364 243.417 224.364C245.133 224.364 246.433 223.74 247.135 222.778V224H251.035V211H247.135ZM257.795 213.314V211H253.895V224H257.795V218.124C257.795 215.55 260.083 214.9 261.695 215.16V210.74C260.057 210.74 258.315 211.572 257.795 213.314ZM266.829 214.796C266.829 214.328 267.245 214.068 267.921 214.068C268.779 214.068 269.299 214.536 269.663 215.212L272.991 213.418C271.899 211.572 270.027 210.636 267.921 210.636C265.217 210.636 262.825 212.066 262.825 214.9C262.825 219.398 269.221 218.644 269.221 220.074C269.221 220.594 268.753 220.88 267.817 220.88C266.673 220.88 265.945 220.334 265.607 219.346L262.227 221.27C263.241 223.376 265.217 224.364 267.817 224.364C270.625 224.364 273.225 223.09 273.225 220.1C273.225 215.29 266.829 216.278 266.829 214.796ZM278.529 219.06H287.759C287.863 218.566 287.915 218.046 287.915 217.5C287.915 213.574 285.107 210.636 281.311 210.636C277.203 210.636 274.395 213.626 274.395 217.5C274.395 221.374 277.151 224.364 281.597 224.364C284.067 224.364 285.991 223.454 287.265 221.686L284.145 219.892C283.625 220.464 282.715 220.88 281.649 220.88C280.219 220.88 279.023 220.412 278.529 219.06ZM278.451 216.148C278.815 214.822 279.803 214.094 281.285 214.094C282.455 214.094 283.625 214.64 284.041 216.148H278.451ZM209.245 244.8V254.68L202.225 244.8H199.105V263H203.265V253.12L210.285 263H213.405V244.8H209.245ZM227.573 248.804V244.8H216.523V263H220.683V256.318H227.443V252.314H220.683V248.804H227.573ZM242.251 244.8H228.731V248.804H233.411V263H237.571V248.804H242.251V244.8ZM245.806 253.796C245.806 253.328 246.222 253.068 246.898 253.068C247.756 253.068 248.276 253.536 248.64 254.212L251.968 252.418C250.876 250.572 249.004 249.636 246.898 249.636C244.194 249.636 241.802 251.066 241.802 253.9C241.802 258.398 248.198 257.644 248.198 259.074C248.198 259.594 247.73 259.88 246.794 259.88C245.65 259.88 244.922 259.334 244.584 258.346L241.204 260.27C242.218 262.376 244.194 263.364 246.794 263.364C249.602 263.364 252.202 262.09 252.202 259.1C252.202 254.29 245.806 255.278 245.806 253.796Z" fill="white"/>
<circle cx="240.461" cy="564.364" r="105.77" fill="white"/>
<circle cx="240.586" cy="564.485" r="94.395" fill="url(#paint2_linear_926_135)"/>
<path d="M289.042 675.827C282.506 678.883 275.714 681.356 268.744 683.217C253.205 687.382 236.999 688.445 221.049 686.347C205.099 684.248 189.719 679.028 175.787 670.985C161.855 662.942 149.643 652.234 139.85 639.471C130.056 626.709 122.873 612.142 118.709 596.603C114.544 581.063 113.48 564.856 115.579 548.905C117.679 532.955 122.899 517.574 130.943 503.641C138.987 489.709 149.697 477.497 162.461 467.704C175.225 457.911 189.793 450.728 205.333 446.565" stroke="url(#paint3_linear_926_135)" stroke-width="0.937222" stroke-miterlimit="10" stroke-linecap="round"/>
<path d="M192.992 500.249H186.102V518.449H190.262V512.729H192.992C196.58 512.729 199.362 509.947 199.362 506.489C199.362 503.031 196.58 500.249 192.992 500.249ZM192.992 508.829H190.262V504.149H192.992C194.266 504.149 195.202 505.163 195.202 506.489C195.202 507.815 194.266 508.829 192.992 508.829ZM204.954 507.763V505.449H201.054V518.449H204.954V512.573C204.954 509.999 207.242 509.349 208.854 509.609V505.189C207.216 505.189 205.474 506.021 204.954 507.763ZM213.78 513.509H223.01C223.114 513.015 223.166 512.495 223.166 511.949C223.166 508.023 220.358 505.085 216.562 505.085C212.454 505.085 209.646 508.075 209.646 511.949C209.646 515.823 212.402 518.813 216.848 518.813C219.318 518.813 221.242 517.903 222.516 516.135L219.396 514.341C218.876 514.913 217.966 515.329 216.9 515.329C215.47 515.329 214.274 514.861 213.78 513.509ZM213.702 510.597C214.066 509.271 215.054 508.543 216.536 508.543C217.706 508.543 218.876 509.089 219.292 510.597H213.702ZM239.938 505.085C238.092 505.085 236.896 505.761 236.168 506.801C235.44 505.709 234.296 505.085 232.762 505.085C231.02 505.085 229.876 505.761 229.278 506.645V505.449H225.378V518.449H229.278V511.117C229.278 509.583 230.006 508.673 231.306 508.673C232.554 508.673 233.178 509.505 233.178 510.805V518.449H237.078V511.117C237.078 509.583 237.806 508.673 239.106 508.673C240.354 508.673 240.978 509.505 240.978 510.805V518.449H244.878V510.467C244.878 507.217 242.928 505.085 239.938 505.085ZM249.494 504.305C250.768 504.305 251.834 503.239 251.834 501.965C251.834 500.691 250.768 499.625 249.494 499.625C248.22 499.625 247.154 500.691 247.154 501.965C247.154 503.239 248.22 504.305 249.494 504.305ZM247.544 518.449H251.444V505.449H247.544V518.449ZM262.696 505.449V512.547C262.696 514.393 261.708 515.225 260.278 515.225C259.03 515.225 258.016 514.471 258.016 512.859V505.449H254.116V513.431C254.116 516.941 256.352 518.813 258.978 518.813C260.694 518.813 261.994 518.189 262.696 517.227V518.449H266.596V505.449H262.696ZM284.016 505.085C282.17 505.085 280.974 505.761 280.246 506.801C279.518 505.709 278.374 505.085 276.84 505.085C275.098 505.085 273.954 505.761 273.356 506.645V505.449H269.456V518.449H273.356V511.117C273.356 509.583 274.084 508.673 275.384 508.673C276.632 508.673 277.256 509.505 277.256 510.805V518.449H281.156V511.117C281.156 509.583 281.884 508.673 283.184 508.673C284.432 508.673 285.056 509.505 285.056 510.805V518.449H288.956V510.467C288.956 507.217 287.006 505.085 284.016 505.085ZM195.661 542.629V538.885C191.345 538.625 189.343 540.809 189.343 544.449H187.601V548.193H189.343V557.449H193.243V548.193H195.661V544.449H193.243C193.243 542.941 194.205 542.499 195.661 542.629ZM200.196 552.509H209.426C209.53 552.015 209.582 551.495 209.582 550.949C209.582 547.023 206.774 544.085 202.978 544.085C198.87 544.085 196.062 547.075 196.062 550.949C196.062 554.823 198.818 557.813 203.264 557.813C205.734 557.813 207.658 556.903 208.932 555.135L205.812 553.341C205.292 553.913 204.382 554.329 203.316 554.329C201.886 554.329 200.69 553.861 200.196 552.509ZM200.118 549.597C200.482 548.271 201.47 547.543 202.952 547.543C204.122 547.543 205.292 548.089 205.708 549.597H200.118ZM221.105 544.449V545.671C220.247 544.683 218.973 544.085 217.231 544.085C213.825 544.085 211.017 547.075 211.017 550.949C211.017 554.823 213.825 557.813 217.231 557.813C218.973 557.813 220.247 557.215 221.105 556.227V557.449H225.005V544.449H221.105ZM218.011 554.121C216.217 554.121 214.917 552.899 214.917 550.949C214.917 548.999 216.217 547.777 218.011 547.777C219.805 547.777 221.105 548.999 221.105 550.949C221.105 552.899 219.805 554.121 218.011 554.121ZM235.485 548.193V544.449H232.807V540.809L228.907 541.979V544.449H226.827V548.193H228.907V552.795C228.907 556.435 230.389 557.969 235.485 557.449V553.913C233.769 554.017 232.807 553.913 232.807 552.795V548.193H235.485ZM246.345 544.449V551.547C246.345 553.393 245.357 554.225 243.927 554.225C242.679 554.225 241.665 553.471 241.665 551.859V544.449H237.765V552.431C237.765 555.941 240.001 557.813 242.627 557.813C244.343 557.813 245.643 557.189 246.345 556.227V557.449H250.245V544.449H246.345ZM257.005 546.763V544.449H253.105V557.449H257.005V551.573C257.005 548.999 259.293 548.349 260.905 548.609V544.189C259.267 544.189 257.525 545.021 257.005 546.763ZM265.831 552.509H275.061C275.165 552.015 275.217 551.495 275.217 550.949C275.217 547.023 272.409 544.085 268.613 544.085C264.505 544.085 261.697 547.075 261.697 550.949C261.697 554.823 264.453 557.813 268.899 557.813C271.369 557.813 273.293 556.903 274.567 555.135L271.447 553.341C270.927 553.913 270.017 554.329 268.951 554.329C267.521 554.329 266.325 553.861 265.831 552.509ZM265.753 549.597C266.117 548.271 267.105 547.543 268.587 547.543C269.757 547.543 270.927 548.089 271.343 549.597H265.753ZM280.613 548.245C280.613 547.777 281.029 547.517 281.705 547.517C282.563 547.517 283.083 547.985 283.447 548.661L286.775 546.867C285.683 545.021 283.811 544.085 281.705 544.085C279.001 544.085 276.609 545.515 276.609 548.349C276.609 552.847 283.005 552.093 283.005 553.523C283.005 554.043 282.537 554.329 281.601 554.329C280.457 554.329 279.729 553.783 279.391 552.795L276.011 554.719C277.025 556.825 279.001 557.813 281.601 557.813C284.409 557.813 287.009 556.539 287.009 553.549C287.009 548.739 280.613 549.727 280.613 548.245ZM187.464 596.813C191.286 596.813 194.354 593.823 194.354 589.949C194.354 586.075 191.286 583.085 187.464 583.085C183.642 583.085 180.574 586.075 180.574 589.949C180.574 593.823 183.642 596.813 187.464 596.813ZM187.464 593.017C185.774 593.017 184.474 591.795 184.474 589.949C184.474 588.103 185.774 586.881 187.464 586.881C189.154 586.881 190.454 588.103 190.454 589.949C190.454 591.795 189.154 593.017 187.464 593.017ZM203.329 581.629V577.885C199.013 577.625 197.011 579.809 197.011 583.449H195.269V587.193H197.011V596.449H200.911V587.193H203.329V583.449H200.911C200.911 581.941 201.873 581.499 203.329 581.629ZM211.391 578.249V596.449H215.551V578.249H211.391ZM226.166 583.085C224.45 583.085 223.15 583.709 222.448 584.671V583.449H218.548V596.449H222.448V589.351C222.448 587.505 223.436 586.673 224.866 586.673C226.114 586.673 227.128 587.427 227.128 589.039V596.449H231.028V588.467C231.028 584.957 228.792 583.085 226.166 583.085ZM237.398 587.245C237.398 586.777 237.814 586.517 238.49 586.517C239.348 586.517 239.868 586.985 240.232 587.661L243.56 585.867C242.468 584.021 240.596 583.085 238.49 583.085C235.786 583.085 233.394 584.515 233.394 587.349C233.394 591.847 239.79 591.093 239.79 592.523C239.79 593.043 239.322 593.329 238.386 593.329C237.242 593.329 236.514 592.783 236.176 591.795L232.796 593.719C233.81 595.825 235.786 596.813 238.386 596.813C241.194 596.813 243.794 595.539 243.794 592.549C243.794 587.739 237.398 588.727 237.398 587.245ZM252.979 587.193V583.449H250.301V579.809L246.401 580.979V583.449H244.321V587.193H246.401V591.795C246.401 595.435 247.883 596.969 252.979 596.449V592.913C251.263 593.017 250.301 592.913 250.301 591.795V587.193H252.979ZM264.371 583.449V584.671C263.513 583.683 262.239 583.085 260.497 583.085C257.091 583.085 254.283 586.075 254.283 589.949C254.283 593.823 257.091 596.813 260.497 596.813C262.239 596.813 263.513 596.215 264.371 595.227V596.449H268.271V583.449H264.371ZM261.277 593.121C259.483 593.121 258.183 591.899 258.183 589.949C258.183 587.999 259.483 586.777 261.277 586.777C263.071 586.777 264.371 587.999 264.371 589.949C264.371 591.899 263.071 593.121 261.277 593.121ZM278.75 583.085C277.034 583.085 275.734 583.709 275.032 584.671V583.449H271.132V596.449H275.032V589.351C275.032 587.505 276.02 586.673 277.45 586.673C278.698 586.673 279.712 587.427 279.712 589.039V596.449H283.612V588.467C283.612 584.957 281.376 583.085 278.75 583.085ZM293.908 587.193V583.449H291.23V579.809L287.33 580.979V583.449H285.25V587.193H287.33V591.795C287.33 595.435 288.812 596.969 293.908 596.449V592.913C292.192 593.017 291.23 592.913 291.23 591.795V587.193H293.908ZM203.137 635.449H207.869L210.833 624.711L213.797 635.449H218.529L223.547 617.249H219.179L216.033 629.989L212.523 617.249H209.143L205.633 629.989L202.487 617.249H198.119L203.137 635.449ZM233.128 622.449V623.671C232.27 622.683 230.996 622.085 229.254 622.085C225.848 622.085 223.04 625.075 223.04 628.949C223.04 632.823 225.848 635.813 229.254 635.813C230.996 635.813 232.27 635.215 233.128 634.227V635.449H237.028V622.449H233.128ZM230.034 632.121C228.24 632.121 226.94 630.899 226.94 628.949C226.94 626.999 228.24 625.777 230.034 625.777C231.828 625.777 233.128 626.999 233.128 628.949C233.128 630.899 231.828 632.121 230.034 632.121ZM247.507 626.193V622.449H244.829V618.809L240.929 619.979V622.449H238.849V626.193H240.929V630.795C240.929 634.435 242.411 635.969 247.507 635.449V631.913C245.791 632.017 244.829 631.913 244.829 630.795V626.193H247.507ZM255.701 635.813C258.249 635.813 260.459 634.487 261.577 632.459L258.171 630.509C257.755 631.419 256.793 631.965 255.649 631.965C253.959 631.965 252.711 630.743 252.711 628.949C252.711 627.155 253.959 625.933 255.649 625.933C256.793 625.933 257.729 626.479 258.171 627.389L261.577 625.413C260.459 623.411 258.223 622.085 255.701 622.085C251.749 622.085 248.811 625.075 248.811 628.949C248.811 632.823 251.749 635.813 255.701 635.813ZM270.765 622.085C269.049 622.085 267.749 622.709 267.047 623.671V617.249H263.147V635.449H267.047V628.351C267.047 626.505 268.035 625.673 269.465 625.673C270.713 625.673 271.727 626.427 271.727 628.039V635.449H275.627V627.467C275.627 623.957 273.391 622.085 270.765 622.085Z" fill="white"/>
<circle cx="952.773" cy="386.228" r="105.772" fill="white"/>
<circle cx="952.97" cy="384.424" r="88.365" fill="url(#paint4_linear_926_135)"/>
<path d="M932.559 263.961C939.952 262.649 947.447 261.993 954.955 262C971.699 261.999 988.279 265.295 1003.75 271.702C1019.22 278.108 1033.27 287.499 1045.11 299.338C1056.95 311.177 1066.35 325.233 1072.76 340.702C1079.16 356.171 1082.46 372.751 1082.46 389.494C1082.46 406.239 1079.17 422.82 1072.76 438.29C1066.35 453.761 1056.96 467.817 1045.12 479.658C1033.28 491.498 1019.22 500.89 1003.75 507.297C988.281 513.704 971.7 517.001 954.955 517" stroke="url(#paint5_linear_926_135)" stroke-width="0.937222" stroke-miterlimit="10" stroke-linecap="round"/>
<path d="M916.273 340.015H909.383V358.215H913.543V352.495H916.273C919.861 352.495 922.643 349.713 922.643 346.255C922.643 342.797 919.861 340.015 916.273 340.015ZM916.273 348.595H913.543V343.915H916.273C917.547 343.915 918.483 344.929 918.483 346.255C918.483 347.581 917.547 348.595 916.273 348.595ZM928.235 347.529V345.215H924.335V358.215H928.235V352.339C928.235 349.765 930.523 349.115 932.135 349.375V344.955C930.497 344.955 928.755 345.787 928.235 347.529ZM935.908 344.071C937.182 344.071 938.248 343.005 938.248 341.731C938.248 340.457 937.182 339.391 935.908 339.391C934.634 339.391 933.568 340.457 933.568 341.731C933.568 343.005 934.634 344.071 935.908 344.071ZM933.958 358.215H937.858V345.215H933.958V358.215ZM949.006 345.215L946.302 353.457L943.598 345.215H939.282L944.092 358.215H948.512L953.322 345.215H949.006ZM963.683 345.215V346.437C962.825 345.449 961.551 344.851 959.809 344.851C956.403 344.851 953.595 347.841 953.595 351.715C953.595 355.589 956.403 358.579 959.809 358.579C961.551 358.579 962.825 357.981 963.683 356.993V358.215H967.583V345.215H963.683ZM960.589 354.887C958.795 354.887 957.495 353.665 957.495 351.715C957.495 349.765 958.795 348.543 960.589 348.543C962.383 348.543 963.683 349.765 963.683 351.715C963.683 353.665 962.383 354.887 960.589 354.887ZM978.063 348.959V345.215H975.385V341.575L971.485 342.745V345.215H969.405V348.959H971.485V353.561C971.485 357.201 972.967 358.735 978.063 358.215V354.679C976.347 354.783 975.385 354.679 975.385 353.561V348.959H978.063ZM983.501 353.275H992.731C992.835 352.781 992.887 352.261 992.887 351.715C992.887 347.789 990.079 344.851 986.283 344.851C982.175 344.851 979.367 347.841 979.367 351.715C979.367 355.589 982.123 358.579 986.569 358.579C989.039 358.579 990.963 357.669 992.237 355.901L989.117 354.107C988.597 354.679 987.687 355.095 986.621 355.095C985.191 355.095 983.995 354.627 983.501 353.275ZM983.423 350.363C983.787 349.037 984.775 348.309 986.257 348.309C987.427 348.309 988.597 348.855 989.013 350.363H983.423ZM922.743 397.215H927.293L921.105 379.015H915.801L909.613 397.215H914.163L915.073 394.355H921.833L922.743 397.215ZM916.321 390.455L918.453 383.773L920.585 390.455H916.321ZM934.574 397.579C937.122 397.579 939.332 396.253 940.45 394.225L937.044 392.275C936.628 393.185 935.666 393.731 934.522 393.731C932.832 393.731 931.584 392.509 931.584 390.715C931.584 388.921 932.832 387.699 934.522 387.699C935.666 387.699 936.602 388.245 937.044 389.155L940.45 387.179C939.332 385.177 937.096 383.851 934.574 383.851C930.622 383.851 927.684 386.841 927.684 390.715C927.684 394.589 930.622 397.579 934.574 397.579ZM948.006 397.579C950.554 397.579 952.764 396.253 953.882 394.225L950.476 392.275C950.06 393.185 949.098 393.731 947.954 393.731C946.264 393.731 945.016 392.509 945.016 390.715C945.016 388.921 946.264 387.699 947.954 387.699C949.098 387.699 950.034 388.245 950.476 389.155L953.882 387.179C952.764 385.177 950.528 383.851 948.006 383.851C944.054 383.851 941.116 386.841 941.116 390.715C941.116 394.589 944.054 397.579 948.006 397.579ZM958.682 392.275H967.912C968.016 391.781 968.068 391.261 968.068 390.715C968.068 386.789 965.26 383.851 961.464 383.851C957.356 383.851 954.548 386.841 954.548 390.715C954.548 394.589 957.304 397.579 961.75 397.579C964.22 397.579 966.144 396.669 967.418 394.901L964.298 393.107C963.778 393.679 962.868 394.095 961.802 394.095C960.372 394.095 959.176 393.627 958.682 392.275ZM958.604 389.363C958.968 388.037 959.956 387.309 961.438 387.309C962.608 387.309 963.778 387.855 964.194 389.363H958.604ZM973.464 388.011C973.464 387.543 973.88 387.283 974.556 387.283C975.414 387.283 975.934 387.751 976.298 388.427L979.626 386.633C978.534 384.787 976.662 383.851 974.556 383.851C971.852 383.851 969.46 385.281 969.46 388.115C969.46 392.613 975.856 391.859 975.856 393.289C975.856 393.809 975.388 394.095 974.452 394.095C973.308 394.095 972.58 393.549 972.242 392.561L968.862 394.485C969.876 396.591 971.852 397.579 974.452 397.579C977.26 397.579 979.86 396.305 979.86 393.315C979.86 388.505 973.464 389.493 973.464 388.011ZM984.839 388.011C984.839 387.543 985.255 387.283 985.931 387.283C986.789 387.283 987.309 387.751 987.673 388.427L991.001 386.633C989.909 384.787 988.037 383.851 985.931 383.851C983.227 383.851 980.835 385.281 980.835 388.115C980.835 392.613 987.231 391.859 987.231 393.289C987.231 393.809 986.763 394.095 985.827 394.095C984.683 394.095 983.955 393.549 983.617 392.561L980.237 394.485C981.251 396.591 983.227 397.579 985.827 397.579C988.635 397.579 991.235 396.305 991.235 393.315C991.235 388.505 984.839 389.493 984.839 388.011ZM935.722 418.015H928.832V436.215H932.992V430.495H935.722C939.31 430.495 942.092 427.713 942.092 424.255C942.092 420.797 939.31 418.015 935.722 418.015ZM935.722 426.595H932.992V421.915H935.722C936.996 421.915 937.932 422.929 937.932 424.255C937.932 425.581 936.996 426.595 935.722 426.595ZM952.689 423.215V424.437C951.831 423.449 950.557 422.851 948.815 422.851C945.409 422.851 942.601 425.841 942.601 429.715C942.601 433.589 945.409 436.579 948.815 436.579C950.557 436.579 951.831 435.981 952.689 434.993V436.215H956.589V423.215H952.689ZM949.595 432.887C947.801 432.887 946.501 431.665 946.501 429.715C946.501 427.765 947.801 426.543 949.595 426.543C951.389 426.543 952.689 427.765 952.689 429.715C952.689 431.665 951.389 432.887 949.595 432.887ZM968.889 418.015V424.437C968.031 423.449 966.757 422.851 965.015 422.851C961.609 422.851 958.801 425.841 958.801 429.715C958.801 433.589 961.609 436.579 965.015 436.579C966.757 436.579 968.031 435.981 968.889 434.993V436.215H972.789V418.015H968.889ZM965.795 432.887C964.001 432.887 962.701 431.665 962.701 429.715C962.701 427.765 964.001 426.543 965.795 426.543C967.589 426.543 968.889 427.765 968.889 429.715C968.889 431.665 967.589 432.887 965.795 432.887Z" fill="white"/>
<circle cx="567.5" cy="377.5" r="127.5" fill="white"/>
<circle cx="567.828" cy="375.427" r="111.033" fill="url(#paint6_linear_926_135)"/>
<path d="M534.465 318.378C539.329 318.378 542.785 315.818 542.785 311.498C542.785 306.762 538.977 305.578 535.585 304.554C532.097 303.498 531.553 302.794 531.553 301.77C531.553 300.874 532.353 300.074 533.953 300.074C536.001 300.074 537.057 301.066 537.825 302.666L542.145 300.138C540.513 296.842 537.633 295.082 533.953 295.082C530.081 295.082 526.433 297.578 526.433 301.898C526.433 306.186 529.697 307.786 533.025 308.714C536.385 309.642 537.665 310.186 537.665 311.562C537.665 312.426 537.057 313.386 534.625 313.386C532.097 313.386 530.721 312.138 529.921 310.282L525.505 312.842C526.753 316.138 529.761 318.378 534.465 318.378ZM554.091 306.538V301.93H550.795V297.45L545.995 298.89V301.93H543.435V306.538H545.995V312.202C545.995 316.682 547.819 318.57 554.091 317.93V313.578C551.979 313.706 550.795 313.578 550.795 312.202V306.538H554.091ZM568.113 301.93V303.434C567.057 302.218 565.489 301.482 563.345 301.482C559.153 301.482 555.697 305.162 555.697 309.93C555.697 314.698 559.153 318.378 563.345 318.378C565.489 318.378 567.057 317.642 568.113 316.426V317.93H572.913V301.93H568.113ZM564.305 313.834C562.097 313.834 560.497 312.33 560.497 309.93C560.497 307.53 562.097 306.026 564.305 306.026C566.513 306.026 568.113 307.53 568.113 309.93C568.113 312.33 566.513 313.834 564.305 313.834ZM591.794 317.93L585.81 309.93L591.634 301.93H586.034L581.234 308.938V295.53H576.434V317.93H581.234V310.858L586.354 317.93H591.794ZM596.878 311.85H608.238C608.366 311.242 608.43 310.602 608.43 309.93C608.43 305.098 604.974 301.482 600.302 301.482C595.246 301.482 591.79 305.162 591.79 309.93C591.79 314.698 595.182 318.378 600.654 318.378C603.694 318.378 606.062 317.258 607.63 315.082L603.79 312.874C603.15 313.578 602.03 314.09 600.718 314.09C598.958 314.09 597.486 313.514 596.878 311.85ZM596.782 308.266C597.23 306.634 598.446 305.738 600.27 305.738C601.71 305.738 603.15 306.41 603.662 308.266H596.782ZM527.726 343.53H518.766V365.93H527.726C533.902 365.93 538.606 361.066 538.606 354.73C538.606 348.394 533.902 343.53 527.726 343.53ZM527.726 361.002H523.886V348.458H527.726C531.246 348.458 533.678 350.89 533.678 354.73C533.678 358.57 531.246 361.002 527.726 361.002ZM545.613 359.85H556.973C557.101 359.242 557.165 358.602 557.165 357.93C557.165 353.098 553.709 349.482 549.037 349.482C543.981 349.482 540.525 353.162 540.525 357.93C540.525 362.698 543.917 366.378 549.389 366.378C552.429 366.378 554.797 365.258 556.365 363.082L552.525 360.874C551.885 361.578 550.765 362.09 549.453 362.09C547.693 362.09 546.221 361.514 545.613 359.85ZM545.517 356.266C545.965 354.634 547.181 353.738 549.005 353.738C550.445 353.738 551.885 354.41 552.397 356.266H545.517ZM568.219 347.69V343.082C562.907 342.762 560.443 345.45 560.443 349.93H558.299V354.538H560.443V365.93H565.243V354.538H568.219V349.93H565.243C565.243 348.074 566.427 347.53 568.219 347.69ZM579.826 354.538V349.93H576.53V345.45L571.73 346.89V349.93H569.17V354.538H571.73V360.202C571.73 364.682 573.554 366.57 579.826 365.93V361.578C577.714 361.706 576.53 361.578 576.53 360.202V354.538H579.826ZM584.944 348.522C586.512 348.522 587.824 347.21 587.824 345.642C587.824 344.074 586.512 342.762 584.944 342.762C583.376 342.762 582.064 344.074 582.064 345.642C582.064 347.21 583.376 348.522 584.944 348.522ZM582.544 365.93H587.344V349.93H582.544V365.93ZM599.656 347.69V343.082C594.344 342.762 591.88 345.45 591.88 349.93H589.736V354.538H591.88V365.93H596.68V354.538H599.656V349.93H596.68C596.68 348.074 597.864 347.53 599.656 347.69ZM612.124 349.93L609.116 359.722L605.564 349.93H600.284L606.652 365.194C605.948 367.146 604.892 367.85 602.652 367.85V372.33C607.132 372.554 609.98 370.538 611.772 365.45L617.244 349.93H612.124ZM540.681 391.53H524.041V396.458H529.801V413.93H534.921V396.458H540.681V391.53ZM547.567 414.378C552.271 414.378 556.047 410.698 556.047 405.93C556.047 401.162 552.271 397.482 547.567 397.482C542.863 397.482 539.087 401.162 539.087 405.93C539.087 410.698 542.863 414.378 547.567 414.378ZM547.567 409.706C545.487 409.706 543.887 408.202 543.887 405.93C543.887 403.658 545.487 402.154 547.567 402.154C549.647 402.154 551.247 403.658 551.247 405.93C551.247 408.202 549.647 409.706 547.567 409.706ZM574.122 413.93L568.138 405.93L573.962 397.93H568.362L563.562 404.938V391.53H558.762V413.93H563.562V406.858L568.682 413.93H574.122ZM579.207 407.85H590.567C590.695 407.242 590.759 406.602 590.759 405.93C590.759 401.098 587.303 397.482 582.631 397.482C577.575 397.482 574.119 401.162 574.119 405.93C574.119 410.698 577.511 414.378 582.983 414.378C586.023 414.378 588.391 413.258 589.959 411.082L586.119 408.874C585.479 409.578 584.359 410.09 583.047 410.09C581.287 410.09 579.815 409.514 579.207 407.85ZM579.111 404.266C579.559 402.634 580.775 401.738 582.599 401.738C584.039 401.738 585.479 402.41 585.991 404.266H579.111ZM602.857 397.482C600.745 397.482 599.145 398.25 598.281 399.434V397.93H593.481V413.93H598.281V405.194C598.281 402.922 599.497 401.898 601.257 401.898C602.793 401.898 604.041 402.826 604.041 404.81V413.93H608.841V404.106C608.841 399.786 606.089 397.482 602.857 397.482ZM523.529 465.13H528.329C526.089 460.65 524.809 455.85 524.809 450.73C524.809 445.61 526.089 440.81 528.329 436.33H523.529C521.289 440.81 520.009 445.61 520.009 450.73C520.009 455.85 521.289 460.65 523.529 465.13ZM539.539 439.53H530.579V461.93H539.539C545.715 461.93 550.419 457.066 550.419 450.73C550.419 444.394 545.715 439.53 539.539 439.53ZM539.539 457.002H535.699V444.458H539.539C543.059 444.458 545.491 446.89 545.491 450.73C545.491 454.57 543.059 457.002 539.539 457.002ZM566.897 444.458V439.53H553.297V461.93H558.417V453.706H566.737V448.778H558.417V444.458H566.897ZM584.962 439.53H568.322V444.458H574.082V461.93H579.202V444.458H584.962V439.53ZM605.444 439.53H599.62L595.364 448.17L591.108 439.53H585.284L592.804 453.322V461.93H597.924V453.322L605.444 439.53ZM610.56 465.13C612.8 460.65 614.08 455.85 614.08 450.73C614.08 445.61 612.8 440.81 610.56 436.33H605.76C608 440.81 609.28 445.61 609.28 450.73C609.28 455.85 608 460.65 605.76 465.13H610.56Z" fill="white"/>
<path d="M25.2966 14.4H11.8566V48H25.2966C34.5606 48 41.6166 40.704 41.6166 31.2C41.6166 21.696 34.5606 14.4 25.2966 14.4ZM25.2966 40.608H19.5366V21.792H25.2966C30.5766 21.792 34.2246 25.44 34.2246 31.2C34.2246 36.96 30.5766 40.608 25.2966 40.608ZM52.1267 38.88H69.1667C69.3587 37.968 69.4547 37.008 69.4547 36C69.4547 28.752 64.2707 23.328 57.2627 23.328C49.6787 23.328 44.4947 28.848 44.4947 36C44.4947 43.152 49.5827 48.672 57.7907 48.672C62.3507 48.672 65.9027 46.992 68.2547 43.728L62.4947 40.416C61.5347 41.472 59.8547 42.24 57.8867 42.24C55.2467 42.24 53.0387 41.376 52.1267 38.88ZM51.9827 33.504C52.6547 31.056 54.4787 29.712 57.2147 29.712C59.3747 29.712 61.5347 30.72 62.3027 33.504H51.9827ZM86.0353 20.64V13.728C78.0673 13.248 74.3713 17.28 74.3713 24H71.1553V30.912H74.3713V48H81.5713V30.912H86.0353V24H81.5713C81.5713 21.216 83.3473 20.4 86.0353 20.64ZM103.446 30.912V24H98.5022V17.28L91.3022 19.44V24H87.4622V30.912H91.3022V39.408C91.3022 46.128 94.0382 48.96 103.446 48V41.472C100.278 41.664 98.5022 41.472 98.5022 39.408V30.912H103.446ZM111.123 21.888C113.475 21.888 115.443 19.92 115.443 17.568C115.443 15.216 113.475 13.248 111.123 13.248C108.771 13.248 106.803 15.216 106.803 17.568C106.803 19.92 108.771 21.888 111.123 21.888ZM107.523 48H114.723V24H107.523V48ZM133.192 20.64V13.728C125.224 13.248 121.528 17.28 121.528 24H118.312V30.912H121.528V48H128.728V30.912H133.192V24H128.728C128.728 21.216 130.504 20.4 133.192 20.64ZM151.893 24L147.381 38.688L142.053 24H134.133L143.685 46.896C142.629 49.824 141.045 50.88 137.685 50.88V57.6C144.405 57.936 148.677 54.912 151.365 47.28L159.573 24H151.893ZM188.29 30.912V24H183.346V17.28L176.146 19.44V24H172.306V30.912H176.146V39.408C176.146 46.128 178.882 48.96 188.29 48V41.472C185.122 41.664 183.346 41.472 183.346 39.408V30.912H188.29ZM203.418 48.672C210.474 48.672 216.138 43.152 216.138 36C216.138 28.848 210.474 23.328 203.418 23.328C196.362 23.328 190.698 28.848 190.698 36C190.698 43.152 196.362 48.672 203.418 48.672ZM203.418 41.664C200.298 41.664 197.898 39.408 197.898 36C197.898 32.592 200.298 30.336 203.418 30.336C206.538 30.336 208.938 32.592 208.938 36C208.938 39.408 206.538 41.664 203.418 41.664ZM243.25 48L234.274 36L243.01 24H234.61L227.41 34.512V14.4H220.21V48H227.41V37.392L235.09 48H243.25ZM250.877 38.88H267.917C268.109 37.968 268.205 37.008 268.205 36C268.205 28.752 263.021 23.328 256.013 23.328C248.429 23.328 243.245 28.848 243.245 36C243.245 43.152 248.333 48.672 256.541 48.672C261.101 48.672 264.653 46.992 267.005 43.728L261.245 40.416C260.285 41.472 258.605 42.24 256.637 42.24C253.997 42.24 251.789 41.376 250.877 38.88ZM250.733 33.504C251.405 31.056 253.229 29.712 255.965 29.712C258.125 29.712 260.285 30.72 261.053 33.504H250.733ZM286.352 23.328C283.184 23.328 280.784 24.48 279.488 26.256V24H272.288V48H279.488V34.896C279.488 31.488 281.312 29.952 283.952 29.952C286.256 29.952 288.128 31.344 288.128 34.32V48H295.328V33.264C295.328 26.784 291.2 23.328 286.352 23.328ZM317.313 52.8H324.513C321.153 46.08 319.233 38.88 319.233 31.2C319.233 23.52 321.153 16.32 324.513 9.6H317.313C313.953 16.32 312.033 23.52 312.033 31.2C312.033 38.88 313.953 46.08 317.313 52.8ZM341.328 14.4H327.888V48H341.328C350.592 48 357.648 40.704 357.648 31.2C357.648 21.696 350.592 14.4 341.328 14.4ZM341.328 40.608H335.568V21.792H341.328C346.608 21.792 350.256 25.44 350.256 31.2C350.256 36.96 346.608 40.608 341.328 40.608ZM382.366 21.792V14.4H361.966V48H369.646V35.664H382.126V28.272H369.646V21.792H382.366ZM409.463 14.4H384.503V21.792H393.143V48H400.823V21.792H409.463V14.4ZM440.185 14.4H431.449L425.065 27.36L418.681 14.4H409.945L421.225 35.088V48H428.905V35.088L440.185 14.4ZM447.86 52.8C451.22 46.08 453.14 38.88 453.14 31.2C453.14 23.52 451.22 16.32 447.86 9.6H440.66C444.02 16.32 445.94 23.52 445.94 31.2C445.94 38.88 444.02 46.08 440.66 52.8H447.86ZM484.259 23.328C481.091 23.328 478.691 24.48 477.395 26.256V14.4H470.195V48H477.395V34.896C477.395 31.488 479.219 29.952 481.859 29.952C484.163 29.952 486.035 31.344 486.035 34.32V48H493.235V33.264C493.235 26.784 489.107 23.328 484.259 23.328ZM515.603 24V26.256C514.019 24.432 511.667 23.328 508.451 23.328C502.163 23.328 496.979 28.848 496.979 36C496.979 43.152 502.163 48.672 508.451 48.672C511.667 48.672 514.019 47.568 515.603 45.744V48H522.803V24H515.603ZM509.891 41.856C506.579 41.856 504.179 39.6 504.179 36C504.179 32.4 506.579 30.144 509.891 30.144C513.203 30.144 515.603 32.4 515.603 36C515.603 39.6 513.203 41.856 509.891 41.856ZM534.667 31.008C534.667 30.144 535.435 29.664 536.683 29.664C538.267 29.664 539.227 30.528 539.899 31.776L546.043 28.464C544.027 25.056 540.571 23.328 536.683 23.328C531.691 23.328 527.275 25.968 527.275 31.2C527.275 39.504 539.083 38.112 539.083 40.752C539.083 41.712 538.219 42.24 536.491 42.24C534.379 42.24 533.035 41.232 532.411 39.408L526.171 42.96C528.043 46.848 531.691 48.672 536.491 48.672C541.675 48.672 546.475 46.32 546.475 40.8C546.475 31.92 534.667 33.744 534.667 31.008ZM589.184 23.328C585.776 23.328 583.568 24.576 582.224 26.496C580.88 24.48 578.768 23.328 575.936 23.328C572.72 23.328 570.608 24.576 569.504 26.208V24H562.304V48H569.504V34.464C569.504 31.632 570.848 29.952 573.248 29.952C575.552 29.952 576.704 31.488 576.704 33.888V48H583.904V34.464C583.904 31.632 585.248 29.952 587.648 29.952C589.952 29.952 591.104 31.488 591.104 33.888V48H598.304V33.264C598.304 27.264 594.704 23.328 589.184 23.328ZM618.73 24V37.104C618.73 40.512 616.906 42.048 614.266 42.048C611.962 42.048 610.09 40.656 610.09 37.68V24H602.89V38.736C602.89 45.216 607.018 48.672 611.866 48.672C615.034 48.672 617.434 47.52 618.73 45.744V48H625.93V24H618.73ZM631.21 48H638.41V12.96H631.21V48ZM657.743 30.912V24H652.799V17.28L645.599 19.44V24H641.759V30.912H645.599V39.408C645.599 46.128 648.335 48.96 657.743 48V41.472C654.575 41.664 652.799 41.472 652.799 39.408V30.912H657.743ZM665.42 21.888C667.772 21.888 669.74 19.92 669.74 17.568C669.74 15.216 667.772 13.248 665.42 13.248C663.068 13.248 661.1 15.216 661.1 17.568C661.1 19.92 663.068 21.888 665.42 21.888ZM661.82 48H669.02V24H661.82V48ZM688.64 23.328C685.424 23.328 683.072 24.432 681.488 26.256V24H674.288V57.6H681.488V45.744C683.072 47.568 685.424 48.672 688.64 48.672C694.928 48.672 700.112 43.152 700.112 36C700.112 28.848 694.928 23.328 688.64 23.328ZM687.2 41.856C683.888 41.856 681.488 39.6 681.488 36C681.488 32.4 683.888 30.144 687.2 30.144C690.512 30.144 692.912 32.4 692.912 36C692.912 39.6 690.512 41.856 687.2 41.856ZM704.195 48H711.395V12.96H704.195V48ZM723.095 38.88H740.135C740.327 37.968 740.423 37.008 740.423 36C740.423 28.752 735.239 23.328 728.231 23.328C720.647 23.328 715.463 28.848 715.463 36C715.463 43.152 720.551 48.672 728.759 48.672C733.319 48.672 736.871 46.992 739.223 43.728L733.463 40.416C732.503 41.472 730.823 42.24 728.855 42.24C726.215 42.24 724.007 41.376 723.095 38.88ZM722.951 33.504C723.623 31.056 725.447 29.712 728.183 29.712C730.343 29.712 732.503 30.72 733.271 33.504H722.951ZM772.011 24V37.104C772.011 40.512 770.187 42.048 767.547 42.048C765.243 42.048 763.371 40.656 763.371 37.68V24H756.171V38.736C756.171 45.216 760.299 48.672 765.147 48.672C768.315 48.672 770.715 47.52 772.011 45.744V48H779.211V24H772.011ZM791.073 31.008C791.073 30.144 791.841 29.664 793.089 29.664C794.673 29.664 795.633 30.528 796.305 31.776L802.449 28.464C800.433 25.056 796.977 23.328 793.089 23.328C788.097 23.328 783.681 25.968 783.681 31.2C783.681 39.504 795.489 38.112 795.489 40.752C795.489 41.712 794.625 42.24 792.897 42.24C790.785 42.24 789.441 41.232 788.817 39.408L782.577 42.96C784.449 46.848 788.097 48.672 792.897 48.672C798.081 48.672 802.881 46.32 802.881 40.8C802.881 31.92 791.073 33.744 791.073 31.008ZM812.674 38.88H829.714C829.906 37.968 830.002 37.008 830.002 36C830.002 28.752 824.818 23.328 817.81 23.328C810.226 23.328 805.042 28.848 805.042 36C805.042 43.152 810.13 48.672 818.338 48.672C822.898 48.672 826.45 46.992 828.802 43.728L823.042 40.416C822.082 41.472 820.402 42.24 818.434 42.24C815.794 42.24 813.586 41.376 812.674 38.88ZM812.53 33.504C813.202 31.056 815.026 29.712 817.762 29.712C819.922 29.712 822.082 30.72 822.85 33.504H812.53ZM857.605 48.672C862.309 48.672 866.389 46.224 868.453 42.48L862.165 38.88C861.397 40.56 859.621 41.568 857.509 41.568C854.389 41.568 852.085 39.312 852.085 36C852.085 32.688 854.389 30.432 857.509 30.432C859.621 30.432 861.349 31.44 862.165 33.12L868.453 29.472C866.389 25.776 862.261 23.328 857.605 23.328C850.309 23.328 844.885 28.848 844.885 36C844.885 43.152 850.309 48.672 857.605 48.672ZM888.306 24V26.256C886.722 24.432 884.37 23.328 881.154 23.328C874.866 23.328 869.682 28.848 869.682 36C869.682 43.152 874.866 48.672 881.154 48.672C884.37 48.672 886.722 47.568 888.306 45.744V48H895.506V24H888.306ZM882.594 41.856C879.282 41.856 876.882 39.6 876.882 36C876.882 32.4 879.282 30.144 882.594 30.144C885.906 30.144 888.306 32.4 888.306 36C888.306 39.6 885.906 41.856 882.594 41.856ZM907.37 31.008C907.37 30.144 908.138 29.664 909.386 29.664C910.97 29.664 911.93 30.528 912.602 31.776L918.746 28.464C916.73 25.056 913.274 23.328 909.386 23.328C904.394 23.328 899.978 25.968 899.978 31.2C899.978 39.504 911.786 38.112 911.786 40.752C911.786 41.712 910.922 42.24 909.194 42.24C907.082 42.24 905.738 41.232 905.114 39.408L898.874 42.96C900.746 46.848 904.394 48.672 909.194 48.672C914.378 48.672 919.178 46.32 919.178 40.8C919.178 31.92 907.37 33.744 907.37 31.008ZM928.97 38.88H946.01C946.202 37.968 946.298 37.008 946.298 36C946.298 28.752 941.114 23.328 934.106 23.328C926.522 23.328 921.338 28.848 921.338 36C921.338 43.152 926.426 48.672 934.634 48.672C939.194 48.672 942.746 46.992 945.098 43.728L939.338 40.416C938.378 41.472 936.698 42.24 934.73 42.24C932.09 42.24 929.882 41.376 928.97 38.88ZM928.826 33.504C929.498 31.056 931.322 29.712 934.058 29.712C936.218 29.712 938.378 30.72 939.146 33.504H928.826ZM956.261 31.008C956.261 30.144 957.029 29.664 958.277 29.664C959.861 29.664 960.821 30.528 961.493 31.776L967.637 28.464C965.621 25.056 962.165 23.328 958.277 23.328C953.285 23.328 948.869 25.968 948.869 31.2C948.869 39.504 960.677 38.112 960.677 40.752C960.677 41.712 959.813 42.24 958.085 42.24C955.973 42.24 954.629 41.232 954.005 39.408L947.765 42.96C949.637 46.848 953.285 48.672 958.085 48.672C963.269 48.672 968.069 46.32 968.069 40.8C968.069 31.92 956.261 33.744 956.261 31.008ZM1001.32 24V26.256C999.738 24.432 997.386 23.328 994.17 23.328C987.882 23.328 982.698 28.848 982.698 36C982.698 43.152 987.882 48.672 994.17 48.672C997.386 48.672 999.738 47.568 1001.32 45.744V48H1008.52V24H1001.32ZM995.61 41.856C992.298 41.856 989.898 39.6 989.898 36C989.898 32.4 992.298 30.144 995.61 30.144C998.922 30.144 1001.32 32.4 1001.32 36C1001.32 39.6 998.922 41.856 995.61 41.856ZM1025.32 48.672C1030.03 48.672 1034.11 46.224 1036.17 42.48L1029.88 38.88C1029.12 40.56 1027.34 41.568 1025.23 41.568C1022.11 41.568 1019.8 39.312 1019.8 36C1019.8 32.688 1022.11 30.432 1025.23 30.432C1027.34 30.432 1029.07 31.44 1029.88 33.12L1036.17 29.472C1034.11 25.776 1029.98 23.328 1025.32 23.328C1018.03 23.328 1012.6 28.848 1012.6 36C1012.6 43.152 1018.03 48.672 1025.32 48.672ZM1046.5 28.272V24H1039.3V48H1046.5V37.152C1046.5 32.4 1050.73 31.2 1053.7 31.68V23.52C1050.68 23.52 1047.46 25.056 1046.5 28.272ZM1067.89 48.672C1074.94 48.672 1080.61 43.152 1080.61 36C1080.61 28.848 1074.94 23.328 1067.89 23.328C1060.83 23.328 1055.17 28.848 1055.17 36C1055.17 43.152 1060.83 48.672 1067.89 48.672ZM1067.89 41.664C1064.77 41.664 1062.37 39.408 1062.37 36C1062.37 32.592 1064.77 30.336 1067.89 30.336C1071.01 30.336 1073.41 32.592 1073.41 36C1073.41 39.408 1071.01 41.664 1067.89 41.664ZM1091.03 31.008C1091.03 30.144 1091.79 29.664 1093.04 29.664C1094.63 29.664 1095.59 30.528 1096.26 31.776L1102.4 28.464C1100.39 25.056 1096.93 23.328 1093.04 23.328C1088.05 23.328 1083.63 25.968 1083.63 31.2C1083.63 39.504 1095.44 38.112 1095.44 40.752C1095.44 41.712 1094.58 42.24 1092.85 42.24C1090.74 42.24 1089.39 41.232 1088.77 39.408L1082.53 42.96C1084.4 46.848 1088.05 48.672 1092.85 48.672C1098.03 48.672 1102.83 46.32 1102.83 40.8C1102.83 31.92 1091.03 33.744 1091.03 31.008ZM1112.03 31.008C1112.03 30.144 1112.79 29.664 1114.04 29.664C1115.63 29.664 1116.59 30.528 1117.26 31.776L1123.4 28.464C1121.39 25.056 1117.93 23.328 1114.04 23.328C1109.05 23.328 1104.63 25.968 1104.63 31.2C1104.63 39.504 1116.44 38.112 1116.44 40.752C1116.44 41.712 1115.58 42.24 1113.85 42.24C1111.74 42.24 1110.39 41.232 1109.77 39.408L1103.53 42.96C1105.4 46.848 1109.05 48.672 1113.85 48.672C1119.03 48.672 1123.83 46.32 1123.83 40.8C1123.83 31.92 1112.03 33.744 1112.03 31.008ZM385.297 77.4H371.857V111H385.297C394.561 111 401.617 103.704 401.617 94.2C401.617 84.696 394.561 77.4 385.297 77.4ZM385.297 103.608H379.537V84.792H385.297C390.577 84.792 394.225 88.44 394.225 94.2C394.225 99.96 390.577 103.608 385.297 103.608ZM412.127 101.88H429.167C429.359 100.968 429.455 100.008 429.455 99C429.455 91.752 424.271 86.328 417.263 86.328C409.679 86.328 404.495 91.848 404.495 99C404.495 106.152 409.583 111.672 417.791 111.672C422.351 111.672 425.903 109.992 428.255 106.728L422.495 103.416C421.535 104.472 419.855 105.24 417.887 105.24C415.247 105.24 413.039 104.376 412.127 101.88ZM411.983 96.504C412.655 94.056 414.479 92.712 417.215 92.712C419.375 92.712 421.535 93.72 422.303 96.504H411.983ZM446.035 83.64V76.728C438.067 76.248 434.371 80.28 434.371 87H431.155V93.912H434.371V111H441.571V93.912H446.035V87H441.571C441.571 84.216 443.347 83.4 446.035 83.64ZM463.446 93.912V87H458.502V80.28L451.302 82.44V87H447.462V93.912H451.302V102.408C451.302 109.128 454.038 111.96 463.446 111V104.472C460.278 104.664 458.502 104.472 458.502 102.408V93.912H463.446ZM471.123 84.888C473.475 84.888 475.443 82.92 475.443 80.568C475.443 78.216 473.475 76.248 471.123 76.248C468.771 76.248 466.803 78.216 466.803 80.568C466.803 82.92 468.771 84.888 471.123 84.888ZM467.523 111H474.723V87H467.523V111ZM493.192 83.64V76.728C485.224 76.248 481.528 80.28 481.528 87H478.312V93.912H481.528V111H488.728V93.912H493.192V87H488.728C488.728 84.216 490.504 83.4 493.192 83.64ZM511.893 87L507.381 101.688L502.053 87H494.133L503.685 109.896C502.629 112.824 501.045 113.88 497.685 113.88V120.6C504.405 120.936 508.677 117.912 511.365 110.28L519.573 87H511.893ZM540.658 101.88H557.698C557.89 100.968 557.986 100.008 557.986 99C557.986 91.752 552.802 86.328 545.794 86.328C538.21 86.328 533.026 91.848 533.026 99C533.026 106.152 538.114 111.672 546.322 111.672C550.882 111.672 554.434 109.992 556.786 106.728L551.026 103.416C550.066 104.472 548.386 105.24 546.418 105.24C543.778 105.24 541.57 104.376 540.658 101.88ZM540.514 96.504C541.186 94.056 543.01 92.712 545.746 92.712C547.906 92.712 550.066 93.72 550.834 96.504H540.514ZM573.355 111.672C578.059 111.672 582.139 109.224 584.203 105.48L577.915 101.88C577.147 103.56 575.371 104.568 573.259 104.568C570.139 104.568 567.835 102.312 567.835 99C567.835 95.688 570.139 93.432 573.259 93.432C575.371 93.432 577.099 94.44 577.915 96.12L584.203 92.472C582.139 88.776 578.011 86.328 573.355 86.328C566.059 86.328 560.635 91.848 560.635 99C560.635 106.152 566.059 111.672 573.355 111.672ZM598.152 111.672C605.208 111.672 610.872 106.152 610.872 99C610.872 91.848 605.208 86.328 598.152 86.328C591.096 86.328 585.432 91.848 585.432 99C585.432 106.152 591.096 111.672 598.152 111.672ZM598.152 104.664C595.032 104.664 592.632 102.408 592.632 99C592.632 95.592 595.032 93.336 598.152 93.336C601.272 93.336 603.672 95.592 603.672 99C603.672 102.408 601.272 104.664 598.152 104.664ZM621.292 94.008C621.292 93.144 622.06 92.664 623.308 92.664C624.892 92.664 625.852 93.528 626.524 94.776L632.668 91.464C630.652 88.056 627.196 86.328 623.308 86.328C618.316 86.328 613.9 88.968 613.9 94.2C613.9 102.504 625.708 101.112 625.708 103.752C625.708 104.712 624.844 105.24 623.116 105.24C621.004 105.24 619.66 104.232 619.036 102.408L612.796 105.96C614.668 109.848 618.316 111.672 623.116 111.672C628.3 111.672 633.1 109.32 633.1 103.8C633.1 94.92 621.292 96.744 621.292 94.008ZM650.83 87L646.318 101.688L640.99 87H633.07L642.622 109.896C641.566 112.824 639.982 113.88 636.622 113.88V120.6C643.342 120.936 647.614 117.912 650.302 110.28L658.51 87H650.83ZM666.526 94.008C666.526 93.144 667.294 92.664 668.542 92.664C670.126 92.664 671.086 93.528 671.758 94.776L677.902 91.464C675.886 88.056 672.43 86.328 668.542 86.328C663.55 86.328 659.134 88.968 659.134 94.2C659.134 102.504 670.942 101.112 670.942 103.752C670.942 104.712 670.078 105.24 668.35 105.24C666.238 105.24 664.894 104.232 664.27 102.408L658.03 105.96C659.902 109.848 663.55 111.672 668.35 111.672C673.534 111.672 678.334 109.32 678.334 103.8C678.334 94.92 666.526 96.744 666.526 94.008ZM695.29 93.912V87H690.346V80.28L683.146 82.44V87H679.306V93.912H683.146V102.408C683.146 109.128 685.882 111.96 695.29 111V104.472C692.122 104.664 690.346 104.472 690.346 102.408V93.912H695.29ZM705.33 101.88H722.37C722.562 100.968 722.658 100.008 722.658 99C722.658 91.752 717.474 86.328 710.466 86.328C702.882 86.328 697.698 91.848 697.698 99C697.698 106.152 702.786 111.672 710.994 111.672C715.554 111.672 719.106 109.992 721.458 106.728L715.698 103.416C714.738 104.472 713.058 105.24 711.09 105.24C708.45 105.24 706.242 104.376 705.33 101.88ZM705.186 96.504C705.858 94.056 707.682 92.712 710.418 92.712C712.578 92.712 714.738 93.72 715.506 96.504H705.186ZM753.622 86.328C750.214 86.328 748.006 87.576 746.662 89.496C745.318 87.48 743.206 86.328 740.374 86.328C737.158 86.328 735.046 87.576 733.942 89.208V87H726.742V111H733.942V97.464C733.942 94.632 735.286 92.952 737.686 92.952C739.99 92.952 741.142 94.488 741.142 96.888V111H748.342V97.464C748.342 94.632 749.686 92.952 752.086 92.952C754.39 92.952 755.542 94.488 755.542 96.888V111H762.742V96.264C762.742 90.264 759.142 86.328 753.622 86.328Z" fill="#FFFEFD"/>
<defs>
<filter id="filter0_f_926_135" x="128" y="116" width="194.748" height="194.748" filterUnits="userSpaceOnUse" color-interpolation-filters="sRGB">
<feFlood flood-opacity="0" result="BackgroundImageFix"/>
<feBlend mode="normal" in="SourceGraphic" in2="BackgroundImageFix" result="shape"/>
<feGaussianBlur stdDeviation="17" result="effect1_foregroundBlur_926_135"/>
</filter>
<filter id="filter1_f_926_135" x="851" y="309" width="194.748" height="194.748" filterUnits="userSpaceOnUse" color-interpolation-filters="sRGB">
<feFlood flood-opacity="0" result="BackgroundImageFix"/>
<feBlend mode="normal" in="SourceGraphic" in2="BackgroundImageFix" result="shape"/>
<feGaussianBlur stdDeviation="17" result="effect1_foregroundBlur_926_135"/>
</filter>
<filter id="filter2_f_926_135" x="134" y="486" width="219" height="219" filterUnits="userSpaceOnUse" color-interpolation-filters="sRGB">
<feFlood flood-opacity="0" result="BackgroundImageFix"/>
<feBlend mode="normal" in="SourceGraphic" in2="BackgroundImageFix" result="shape"/>
<feGaussianBlur stdDeviation="17" result="effect1_foregroundBlur_926_135"/>
</filter>
<linearGradient id="paint0_linear_926_135" x1="133.049" y1="160.663" x2="265.905" y2="256.893" gradientUnits="userSpaceOnUse">
<stop stop-color="#61DB94"/>
<stop offset="1" stop-color="#0F9547"/>
</linearGradient>
<linearGradient id="paint1_linear_926_135" x1="85094.7" y1="14173.7" x2="65001.8" y2="14173.7" gradientUnits="userSpaceOnUse">
<stop stop-color="#808285"/>
<stop offset="1" stop-color="#58595B"/>
</linearGradient>
<linearGradient id="paint2_linear_926_135" x1="131.603" y1="501.841" x2="290.358" y2="616.831" gradientUnits="userSpaceOnUse">
<stop stop-color="#61DB94"/>
<stop offset="1" stop-color="#19964D"/>
</linearGradient>
<linearGradient id="paint3_linear_926_135" x1="75518.9" y1="-33488.7" x2="56871.7" y2="-28492.2" gradientUnits="userSpaceOnUse">
<stop stop-color="#808285"/>
<stop offset="1" stop-color="#58595B"/>
</linearGradient>
<linearGradient id="paint4_linear_926_135" x1="1031.96" y1="305.431" x2="952.97" y2="472.789" gradientUnits="userSpaceOnUse">
<stop stop-color="#61DB94"/>
<stop offset="1" stop-color="#0C813D"/>
</linearGradient>
<linearGradient id="paint5_linear_926_135" x1="-83903.2" y1="14345.6" x2="-63810.3" y2="14345.6" gradientUnits="userSpaceOnUse">
<stop stop-color="#808285"/>
<stop offset="1" stop-color="#58595B"/>
</linearGradient>
<linearGradient id="paint6_linear_926_135" x1="470.827" y1="281.477" x2="567.828" y2="486.46" gradientUnits="userSpaceOnUse">
<stop stop-color="#75DFA1"/>
<stop offset="1" stop-color="#10823F"/>
</linearGradient>
</defs>
</svg>
