<svg width="658" height="400" viewBox="0 0 996 626" fill="none" xmlns="http://www.w3.org/2000/svg">
<rect x="206.588" y="156.379" width="18.7877" height="247.554" transform="rotate(-56.7032 206.588 156.379)" fill="white"/>
<rect x="567.104" y="302.771" width="18.0517" height="259.664" transform="rotate(-90 567.104 302.771)" fill="white"/>
<rect width="18.0517" height="193.619" transform="matrix(-0.632959 -0.774185 -0.774185 0.632959 401.322 334.976)" fill="white"/>
<g filter="url(#filter0_f_928_134)">
<circle cx="138.374" cy="124.374" r="63.3741" fill="white" fill-opacity="0.8"/>
</g>
<g filter="url(#filter1_f_928_134)">
<circle cx="861.374" cy="317.374" r="63.3741" fill="white"/>
</g>
<g opacity="0.7" filter="url(#filter2_f_928_134)">
<circle cx="156.5" cy="506.5" r="75.5" fill="white"/>
</g>
<circle cx="480.875" cy="289.785" r="93.7222" fill="#61DB94"/>
<circle cx="480.872" cy="289.785" r="87.4741" fill="white"/>
<circle cx="141.328" cy="130.162" r="95.07" fill="url(#paint0_linear_928_134)"/>
<path d="M171.898 2.96133C164.505 1.64943 157.01 0.993118 149.502 1.00005C132.758 0.998571 116.178 4.29522 100.708 10.7017C85.2385 17.1083 71.1823 26.4992 59.3422 38.3383C47.502 50.1774 38.1099 64.2327 31.702 79.7018C25.2941 95.1709 21.996 111.751 21.996 128.494C21.9945 145.239 25.2915 161.82 31.6987 177.29C38.106 192.761 47.4979 206.817 59.3382 218.658C71.1785 230.498 85.2352 239.89 100.706 246.297C116.176 252.704 132.757 256.001 149.502 256" stroke="url(#paint1_linear_928_134)" stroke-width="0.937222" stroke-miterlimit="10" stroke-linecap="round"/>
<path d="M91.1263 99H96.0263L89.3623 79.4H83.6503L76.9863 99H81.8863L82.8663 95.92H90.1463L91.1263 99ZM84.2103 91.72L86.5063 84.524L88.8023 91.72H84.2103ZM103.867 99.392C106.611 99.392 108.991 97.964 110.195 95.78L106.527 93.68C106.079 94.66 105.043 95.248 103.811 95.248C101.991 95.248 100.647 93.932 100.647 92C100.647 90.068 101.991 88.752 103.811 88.752C105.043 88.752 106.051 89.34 106.527 90.32L110.195 88.192C108.991 86.036 106.583 84.608 103.867 84.608C99.6114 84.608 96.4474 87.828 96.4474 92C96.4474 96.172 99.6114 99.392 103.867 99.392ZM118.332 99.392C121.076 99.392 123.456 97.964 124.66 95.78L120.992 93.68C120.544 94.66 119.508 95.248 118.276 95.248C116.456 95.248 115.112 93.932 115.112 92C115.112 90.068 116.456 88.752 118.276 88.752C119.508 88.752 120.516 89.34 120.992 90.32L124.66 88.192C123.456 86.036 121.048 84.608 118.332 84.608C114.076 84.608 110.912 87.828 110.912 92C110.912 96.172 114.076 99.392 118.332 99.392ZM129.829 93.68H139.769C139.881 93.148 139.937 92.588 139.937 92C139.937 87.772 136.913 84.608 132.825 84.608C128.401 84.608 125.377 87.828 125.377 92C125.377 96.172 128.345 99.392 133.133 99.392C135.793 99.392 137.865 98.412 139.237 96.508L135.877 94.576C135.317 95.192 134.337 95.64 133.189 95.64C131.649 95.64 130.361 95.136 129.829 93.68ZM129.745 90.544C130.137 89.116 131.201 88.332 132.797 88.332C134.057 88.332 135.317 88.92 135.765 90.544H129.745ZM145.748 89.088C145.748 88.584 146.196 88.304 146.924 88.304C147.848 88.304 148.408 88.808 148.8 89.536L152.384 87.604C151.208 85.616 149.192 84.608 146.924 84.608C144.012 84.608 141.436 86.148 141.436 89.2C141.436 94.044 148.324 93.232 148.324 94.772C148.324 95.332 147.82 95.64 146.812 95.64C145.58 95.64 144.796 95.052 144.432 93.988L140.792 96.06C141.884 98.328 144.012 99.392 146.812 99.392C149.836 99.392 152.636 98.02 152.636 94.8C152.636 89.62 145.748 90.684 145.748 89.088ZM157.998 89.088C157.998 88.584 158.446 88.304 159.174 88.304C160.098 88.304 160.658 88.808 161.05 89.536L164.634 87.604C163.458 85.616 161.442 84.608 159.174 84.608C156.262 84.608 153.686 86.148 153.686 89.2C153.686 94.044 160.574 93.232 160.574 94.772C160.574 95.332 160.07 95.64 159.062 95.64C157.83 95.64 157.046 95.052 156.682 93.988L153.042 96.06C154.134 98.328 156.262 99.392 159.062 99.392C162.086 99.392 164.886 98.02 164.886 94.8C164.886 89.62 157.998 90.684 157.998 89.088ZM182.324 89.032V85H179.44V81.08L175.24 82.34V85H173V89.032H175.24V93.988C175.24 97.908 176.836 99.56 182.324 99V95.192C180.476 95.304 179.44 95.192 179.44 93.988V89.032H182.324ZM191.149 99.392C195.265 99.392 198.569 96.172 198.569 92C198.569 87.828 195.265 84.608 191.149 84.608C187.033 84.608 183.729 87.828 183.729 92C183.729 96.172 187.033 99.392 191.149 99.392ZM191.149 95.304C189.329 95.304 187.929 93.988 187.929 92C187.929 90.012 189.329 88.696 191.149 88.696C192.969 88.696 194.369 90.012 194.369 92C194.369 93.988 192.969 95.304 191.149 95.304ZM91.0886 121.4H86.6086L81.2886 130.108L75.9686 121.4H71.4886V141H75.9686V129.604L81.0366 137.92H81.5406L86.6086 129.604V141H91.0886V121.4ZM98.0693 135.68H108.009C108.121 135.148 108.177 134.588 108.177 134C108.177 129.772 105.153 126.608 101.065 126.608C96.6413 126.608 93.6173 129.828 93.6173 134C93.6173 138.172 96.5853 141.392 101.373 141.392C104.033 141.392 106.105 140.412 107.477 138.508L104.117 136.576C103.557 137.192 102.577 137.64 101.429 137.64C99.8893 137.64 98.6013 137.136 98.0693 135.68ZM97.9853 132.544C98.3773 131.116 99.4413 130.332 101.037 130.332C102.297 130.332 103.557 130.92 104.005 132.544H97.9853ZM118.353 131.032V127H115.469V123.08L111.269 124.34V127H109.029V131.032H111.269V135.988C111.269 139.908 112.865 141.56 118.353 141V137.192C116.505 137.304 115.469 137.192 115.469 135.988V131.032H118.353ZM130.622 127V128.316C129.698 127.252 128.326 126.608 126.45 126.608C122.782 126.608 119.758 129.828 119.758 134C119.758 138.172 122.782 141.392 126.45 141.392C128.326 141.392 129.698 140.748 130.622 139.684V141H134.822V127H130.622ZM127.29 137.416C125.358 137.416 123.958 136.1 123.958 134C123.958 131.9 125.358 130.584 127.29 130.584C129.222 130.584 130.622 131.9 130.622 134C130.622 136.1 129.222 137.416 127.29 137.416ZM144.623 141.392C147.367 141.392 149.747 139.964 150.951 137.78L147.283 135.68C146.835 136.66 145.799 137.248 144.567 137.248C142.747 137.248 141.403 135.932 141.403 134C141.403 132.068 142.747 130.752 144.567 130.752C145.799 130.752 146.807 131.34 147.283 132.32L150.951 130.192C149.747 128.036 147.339 126.608 144.623 126.608C140.367 126.608 137.203 129.828 137.203 134C137.203 138.172 140.367 141.392 144.623 141.392ZM161.822 127V134.644C161.822 136.632 160.758 137.528 159.218 137.528C157.874 137.528 156.782 136.716 156.782 134.98V127H152.582V135.596C152.582 139.376 154.99 141.392 157.818 141.392C159.666 141.392 161.066 140.72 161.822 139.684V141H166.022V127H161.822ZM173.303 129.492V127H169.103V141H173.303V134.672C173.303 131.9 175.767 131.2 177.503 131.48V126.72C175.739 126.72 173.863 127.616 173.303 129.492ZM183.032 131.088C183.032 130.584 183.48 130.304 184.208 130.304C185.132 130.304 185.692 130.808 186.084 131.536L189.668 129.604C188.492 127.616 186.476 126.608 184.208 126.608C181.296 126.608 178.72 128.148 178.72 131.2C178.72 136.044 185.608 135.232 185.608 136.772C185.608 137.332 185.104 137.64 184.096 137.64C182.864 137.64 182.08 137.052 181.716 135.988L178.076 138.06C179.168 140.328 181.296 141.392 184.096 141.392C187.12 141.392 189.92 140.02 189.92 136.8C189.92 131.62 183.032 132.684 183.032 131.088ZM195.632 135.68H205.572C205.684 135.148 205.74 134.588 205.74 134C205.74 129.772 202.716 126.608 198.628 126.608C194.204 126.608 191.18 129.828 191.18 134C191.18 138.172 194.148 141.392 198.936 141.392C201.596 141.392 203.668 140.412 205.04 138.508L201.68 136.576C201.12 137.192 200.14 137.64 198.992 137.64C197.452 137.64 196.164 137.136 195.632 135.68ZM195.548 132.544C195.94 131.116 197.004 130.332 198.6 130.332C199.86 130.332 201.12 130.92 201.568 132.544H195.548ZM121.018 163.4V174.04L113.458 163.4H110.098V183H114.578V172.36L122.138 183H125.498V163.4H121.018ZM140.756 167.712V163.4H128.856V183H133.336V175.804H140.616V171.492H133.336V167.712H140.756ZM156.563 163.4H142.003V167.712H147.043V183H151.523V167.712H156.563V163.4ZM160.391 173.088C160.391 172.584 160.839 172.304 161.567 172.304C162.491 172.304 163.051 172.808 163.443 173.536L167.027 171.604C165.851 169.616 163.835 168.608 161.567 168.608C158.655 168.608 156.079 170.148 156.079 173.2C156.079 178.044 162.967 177.232 162.967 178.772C162.967 179.332 162.463 179.64 161.455 179.64C160.223 179.64 159.439 179.052 159.075 177.988L155.435 180.06C156.527 182.328 158.655 183.392 161.455 183.392C164.479 183.392 167.279 182.02 167.279 178.8C167.279 173.62 160.391 174.684 160.391 173.088Z" fill="white"/>
<circle cx="154.961" cy="477.86" r="105.77" fill="url(#paint2_linear_928_134)"/>
<path d="M202.042 586.827C195.506 589.883 188.714 592.356 181.744 594.217C166.205 598.382 149.999 599.445 134.049 597.347C118.099 595.248 102.719 590.028 88.787 581.985C74.8547 573.942 62.6432 563.234 52.8497 550.471C43.0562 537.709 35.8726 523.142 31.7089 507.603C27.5436 492.063 26.4802 475.856 28.5794 459.905C30.6787 443.955 35.8993 428.574 43.9434 414.641C51.9874 400.709 62.6972 388.497 75.4611 378.704C88.225 368.911 102.793 361.728 118.333 357.565" stroke="url(#paint3_linear_928_134)" stroke-width="0.937222" stroke-miterlimit="10" stroke-linecap="round"/>
<path d="M108.711 400.401H101.291V420.001H105.771V413.841H108.711C112.575 413.841 115.571 410.845 115.571 407.121C115.571 403.397 112.575 400.401 108.711 400.401ZM108.711 409.641H105.771V404.601H108.711C110.083 404.601 111.091 405.693 111.091 407.121C111.091 408.549 110.083 409.641 108.711 409.641ZM121.594 408.493V406.001H117.394V420.001H121.594V413.673C121.594 410.901 124.058 410.201 125.794 410.481V405.721C124.03 405.721 122.154 406.617 121.594 408.493ZM131.099 414.681H141.039C141.151 414.149 141.207 413.589 141.207 413.001C141.207 408.773 138.183 405.609 134.095 405.609C129.671 405.609 126.647 408.829 126.647 413.001C126.647 417.173 129.615 420.393 134.403 420.393C137.063 420.393 139.135 419.413 140.507 417.509L137.147 415.577C136.587 416.193 135.607 416.641 134.459 416.641C132.919 416.641 131.631 416.137 131.099 414.681ZM131.015 411.545C131.407 410.117 132.471 409.333 134.067 409.333C135.327 409.333 136.587 409.921 137.035 411.545H131.015ZM159.269 405.609C157.281 405.609 155.993 406.337 155.209 407.457C154.425 406.281 153.193 405.609 151.541 405.609C149.665 405.609 148.433 406.337 147.789 407.289V406.001H143.589V420.001H147.789V412.105C147.789 410.453 148.573 409.473 149.973 409.473C151.317 409.473 151.989 410.369 151.989 411.769V420.001H156.189V412.105C156.189 410.453 156.973 409.473 158.373 409.473C159.717 409.473 160.389 410.369 160.389 411.769V420.001H164.589V411.405C164.589 407.905 162.489 405.609 159.269 405.609ZM169.56 404.769C170.932 404.769 172.08 403.621 172.08 402.249C172.08 400.877 170.932 399.729 169.56 399.729C168.188 399.729 167.04 400.877 167.04 402.249C167.04 403.621 168.188 404.769 169.56 404.769ZM167.46 420.001H171.66V406.001H167.46V420.001ZM183.777 406.001V413.645C183.777 415.633 182.713 416.529 181.173 416.529C179.829 416.529 178.737 415.717 178.737 413.981V406.001H174.537V414.597C174.537 418.377 176.945 420.393 179.773 420.393C181.621 420.393 183.021 419.721 183.777 418.685V420.001H187.977V406.001H183.777ZM206.738 405.609C204.75 405.609 203.462 406.337 202.678 407.457C201.894 406.281 200.662 405.609 199.01 405.609C197.134 405.609 195.902 406.337 195.258 407.289V406.001H191.058V420.001H195.258V412.105C195.258 410.453 196.042 409.473 197.442 409.473C198.786 409.473 199.458 410.369 199.458 411.769V420.001H203.658V412.105C203.658 410.453 204.442 409.473 205.842 409.473C207.186 409.473 207.858 410.369 207.858 411.769V420.001H212.058V411.405C212.058 407.905 209.958 405.609 206.738 405.609ZM95.4119 446.041V442.009C90.7639 441.729 88.6079 444.081 88.6079 448.001H86.7319V452.033H88.6079V462.001H92.8079V452.033H95.4119V448.001H92.8079C92.8079 446.377 93.8439 445.901 95.4119 446.041ZM100.296 456.681H110.236C110.348 456.149 110.404 455.589 110.404 455.001C110.404 450.773 107.38 447.609 103.292 447.609C98.8679 447.609 95.8439 450.829 95.8439 455.001C95.8439 459.173 98.8119 462.393 103.6 462.393C106.26 462.393 108.332 461.413 109.704 459.509L106.344 457.577C105.784 458.193 104.804 458.641 103.656 458.641C102.116 458.641 100.828 458.137 100.296 456.681ZM100.212 453.545C100.604 452.117 101.668 451.333 103.264 451.333C104.524 451.333 105.784 451.921 106.232 453.545H100.212ZM122.813 448.001V449.317C121.889 448.253 120.517 447.609 118.641 447.609C114.973 447.609 111.949 450.829 111.949 455.001C111.949 459.173 114.973 462.393 118.641 462.393C120.517 462.393 121.889 461.749 122.813 460.685V462.001H127.013V448.001H122.813ZM119.481 458.417C117.549 458.417 116.149 457.101 116.149 455.001C116.149 452.901 117.549 451.585 119.481 451.585C121.413 451.585 122.813 452.901 122.813 455.001C122.813 457.101 121.413 458.417 119.481 458.417ZM138.299 452.033V448.001H135.415V444.081L131.215 445.341V448.001H128.975V452.033H131.215V456.989C131.215 460.909 132.811 462.561 138.299 462.001V458.193C136.451 458.305 135.415 458.193 135.415 456.989V452.033H138.299ZM149.994 448.001V455.645C149.994 457.633 148.93 458.529 147.39 458.529C146.046 458.529 144.954 457.717 144.954 455.981V448.001H140.754V456.597C140.754 460.377 143.162 462.393 145.99 462.393C147.838 462.393 149.238 461.721 149.994 460.685V462.001H154.194V448.001H149.994ZM161.474 450.493V448.001H157.274V462.001H161.474V455.673C161.474 452.901 163.938 452.201 165.674 452.481V447.721C163.91 447.721 162.034 448.617 161.474 450.493ZM170.98 456.681H180.92C181.032 456.149 181.088 455.589 181.088 455.001C181.088 450.773 178.064 447.609 173.976 447.609C169.552 447.609 166.528 450.829 166.528 455.001C166.528 459.173 169.496 462.393 174.284 462.393C176.944 462.393 179.016 461.413 180.388 459.509L177.028 457.577C176.468 458.193 175.488 458.641 174.34 458.641C172.8 458.641 171.512 458.137 170.98 456.681ZM170.896 453.545C171.288 452.117 172.352 451.333 173.948 451.333C175.208 451.333 176.468 451.921 176.916 453.545H170.896ZM186.899 452.089C186.899 451.585 187.347 451.305 188.075 451.305C188.999 451.305 189.559 451.809 189.951 452.537L193.535 450.605C192.359 448.617 190.343 447.609 188.075 447.609C185.163 447.609 182.587 449.149 182.587 452.201C182.587 457.045 189.475 456.233 189.475 457.773C189.475 458.333 188.971 458.641 187.963 458.641C186.731 458.641 185.947 458.053 185.583 456.989L181.943 459.061C183.035 461.329 185.163 462.393 187.963 462.393C190.987 462.393 193.787 461.021 193.787 457.801C193.787 452.621 186.899 453.685 186.899 452.089ZM209.74 462.393C213.856 462.393 217.16 459.173 217.16 455.001C217.16 450.829 213.856 447.609 209.74 447.609C205.624 447.609 202.32 450.829 202.32 455.001C202.32 459.173 205.624 462.393 209.74 462.393ZM209.74 458.305C207.92 458.305 206.52 456.989 206.52 455.001C206.52 453.013 207.92 451.697 209.74 451.697C211.56 451.697 212.96 453.013 212.96 455.001C212.96 456.989 211.56 458.305 209.74 458.305ZM226.826 446.041V442.009C222.178 441.729 220.022 444.081 220.022 448.001H218.146V452.033H220.022V462.001H224.222V452.033H226.826V448.001H224.222C224.222 446.377 225.258 445.901 226.826 446.041ZM112.352 484.401V504.001H116.832V484.401H112.352ZM128.264 489.609C126.416 489.609 125.016 490.281 124.26 491.317V490.001H120.06V504.001H124.26V496.357C124.26 494.369 125.324 493.473 126.864 493.473C128.208 493.473 129.3 494.285 129.3 496.021V504.001H133.5V495.405C133.5 491.625 131.092 489.609 128.264 489.609ZM140.36 494.089C140.36 493.585 140.808 493.305 141.536 493.305C142.46 493.305 143.02 493.809 143.412 494.537L146.996 492.605C145.82 490.617 143.804 489.609 141.536 489.609C138.624 489.609 136.048 491.149 136.048 494.201C136.048 499.045 142.936 498.233 142.936 499.773C142.936 500.333 142.432 500.641 141.424 500.641C140.192 500.641 139.408 500.053 139.044 498.989L135.404 501.061C136.496 503.329 138.624 504.393 141.424 504.393C144.448 504.393 147.248 503.021 147.248 499.801C147.248 494.621 140.36 495.685 140.36 494.089ZM157.139 494.033V490.001H154.255V486.081L150.055 487.341V490.001H147.815V494.033H150.055V498.989C150.055 502.909 151.651 504.561 157.139 504.001V500.193C155.291 500.305 154.255 500.193 154.255 498.989V494.033H157.139ZM169.407 490.001V491.317C168.483 490.253 167.111 489.609 165.235 489.609C161.567 489.609 158.543 492.829 158.543 497.001C158.543 501.173 161.567 504.393 165.235 504.393C167.111 504.393 168.483 503.749 169.407 502.685V504.001H173.607V490.001H169.407ZM166.075 500.417C164.143 500.417 162.743 499.101 162.743 497.001C162.743 494.901 164.143 493.585 166.075 493.585C168.007 493.585 169.407 494.901 169.407 497.001C169.407 499.101 168.007 500.417 166.075 500.417ZM184.892 489.609C183.044 489.609 181.644 490.281 180.888 491.317V490.001H176.688V504.001H180.888V496.357C180.888 494.369 181.952 493.473 183.492 493.473C184.836 493.473 185.928 494.285 185.928 496.021V504.001H190.128V495.405C190.128 491.625 187.72 489.609 184.892 489.609ZM201.217 494.033V490.001H198.333V486.081L194.133 487.341V490.001H191.893V494.033H194.133V498.989C194.133 502.909 195.729 504.561 201.217 504.001V500.193C199.369 500.305 198.333 500.193 198.333 498.989V494.033H201.217ZM119.637 546.001H124.733L127.925 534.437L131.117 546.001H136.213L141.617 526.401H136.913L133.525 540.121L129.745 526.401H126.105L122.325 540.121L118.937 526.401H114.233L119.637 546.001ZM151.934 532.001V533.317C151.01 532.253 149.638 531.609 147.762 531.609C144.094 531.609 141.07 534.829 141.07 539.001C141.07 543.173 144.094 546.393 147.762 546.393C149.638 546.393 151.01 545.749 151.934 544.685V546.001H156.134V532.001H151.934ZM148.602 542.417C146.67 542.417 145.27 541.101 145.27 539.001C145.27 536.901 146.67 535.585 148.602 535.585C150.534 535.585 151.934 536.901 151.934 539.001C151.934 541.101 150.534 542.417 148.602 542.417ZM167.42 536.033V532.001H164.536V528.081L160.336 529.341V532.001H158.096V536.033H160.336V540.989C160.336 544.909 161.932 546.561 167.42 546.001V542.193C165.572 542.305 164.536 542.193 164.536 540.989V536.033H167.42ZM176.244 546.393C178.988 546.393 181.368 544.965 182.572 542.781L178.904 540.681C178.456 541.661 177.42 542.249 176.188 542.249C174.368 542.249 173.024 540.933 173.024 539.001C173.024 537.069 174.368 535.753 176.188 535.753C177.42 535.753 178.428 536.341 178.904 537.321L182.572 535.193C181.368 533.037 178.96 531.609 176.244 531.609C171.988 531.609 168.824 534.829 168.824 539.001C168.824 543.173 171.988 546.393 176.244 546.393ZM192.467 531.609C190.619 531.609 189.219 532.281 188.463 533.317V526.401H184.263V546.001H188.463V538.357C188.463 536.369 189.527 535.473 191.067 535.473C192.411 535.473 193.503 536.285 193.503 538.021V546.001H197.703V537.405C197.703 533.625 195.295 531.609 192.467 531.609Z" fill="white"/>
<circle cx="868.375" cy="299.829" r="105.77" fill="url(#paint4_linear_928_134)"/>
<path d="M845.559 174.961C852.952 173.649 860.447 172.993 867.955 173C884.699 172.999 901.279 176.295 916.749 182.702C932.218 189.108 946.275 198.499 958.115 210.338C969.955 222.177 979.347 236.233 985.755 251.702C992.163 267.171 995.461 283.751 995.461 300.494C995.463 317.239 992.166 333.82 985.758 349.29C979.351 364.761 969.959 378.817 958.119 390.658C946.279 402.498 932.222 411.89 916.751 418.297C901.281 424.704 884.7 428.001 867.955 428" stroke="url(#paint5_linear_928_134)" stroke-width="0.937222" stroke-miterlimit="10" stroke-linecap="round"/>
<path d="M831.375 252.4H823.955V272H828.435V265.84H831.375C835.239 265.84 838.235 262.844 838.235 259.12C838.235 255.396 835.239 252.4 831.375 252.4ZM831.375 261.64H828.435V256.6H831.375C832.747 256.6 833.755 257.692 833.755 259.12C833.755 260.548 832.747 261.64 831.375 261.64ZM844.258 260.492V258H840.058V272H844.258V265.672C844.258 262.9 846.722 262.2 848.458 262.48V257.72C846.694 257.72 844.818 258.616 844.258 260.492ZM852.521 256.768C853.893 256.768 855.041 255.62 855.041 254.248C855.041 252.876 853.893 251.728 852.521 251.728C851.149 251.728 850.001 252.876 850.001 254.248C850.001 255.62 851.149 256.768 852.521 256.768ZM850.421 272H854.621V258H850.421V272ZM866.626 258L863.714 266.876L860.802 258H856.154L861.334 272H866.094L871.274 258H866.626ZM882.433 258V259.316C881.509 258.252 880.137 257.608 878.261 257.608C874.593 257.608 871.569 260.828 871.569 265C871.569 269.172 874.593 272.392 878.261 272.392C880.137 272.392 881.509 271.748 882.433 270.684V272H886.633V258H882.433ZM879.101 268.416C877.169 268.416 875.769 267.1 875.769 265C875.769 262.9 877.169 261.584 879.101 261.584C881.033 261.584 882.433 262.9 882.433 265C882.433 267.1 881.033 268.416 879.101 268.416ZM897.918 262.032V258H895.034V254.08L890.834 255.34V258H888.594V262.032H890.834V266.988C890.834 270.908 892.43 272.56 897.918 272V268.192C896.07 268.304 895.034 268.192 895.034 266.988V262.032H897.918ZM903.774 266.68H913.714C913.826 266.148 913.882 265.588 913.882 265C913.882 260.772 910.858 257.608 906.77 257.608C902.346 257.608 899.322 260.828 899.322 265C899.322 269.172 902.29 272.392 907.078 272.392C909.738 272.392 911.81 271.412 913.182 269.508L909.822 267.576C909.262 268.192 908.282 268.64 907.134 268.64C905.594 268.64 904.306 268.136 903.774 266.68ZM903.69 263.544C904.082 262.116 905.146 261.332 906.742 261.332C908.002 261.332 909.262 261.92 909.71 263.544H903.69ZM838.343 314H843.243L836.579 294.4H830.867L824.203 314H829.103L830.083 310.92H837.363L838.343 314ZM831.427 306.72L833.723 299.524L836.019 306.72H831.427ZM851.084 314.392C853.828 314.392 856.208 312.964 857.412 310.78L853.744 308.68C853.296 309.66 852.26 310.248 851.028 310.248C849.208 310.248 847.864 308.932 847.864 307C847.864 305.068 849.208 303.752 851.028 303.752C852.26 303.752 853.268 304.34 853.744 305.32L857.412 303.192C856.208 301.036 853.8 299.608 851.084 299.608C846.828 299.608 843.664 302.828 843.664 307C843.664 311.172 846.828 314.392 851.084 314.392ZM865.549 314.392C868.293 314.392 870.673 312.964 871.877 310.78L868.209 308.68C867.761 309.66 866.725 310.248 865.493 310.248C863.673 310.248 862.329 308.932 862.329 307C862.329 305.068 863.673 303.752 865.493 303.752C866.725 303.752 867.733 304.34 868.209 305.32L871.877 303.192C870.673 301.036 868.265 299.608 865.549 299.608C861.293 299.608 858.129 302.828 858.129 307C858.129 311.172 861.293 314.392 865.549 314.392ZM877.046 308.68H886.986C887.098 308.148 887.154 307.588 887.154 307C887.154 302.772 884.13 299.608 880.042 299.608C875.618 299.608 872.594 302.828 872.594 307C872.594 311.172 875.562 314.392 880.35 314.392C883.01 314.392 885.082 313.412 886.454 311.508L883.094 309.576C882.534 310.192 881.554 310.64 880.406 310.64C878.866 310.64 877.578 310.136 877.046 308.68ZM876.962 305.544C877.354 304.116 878.418 303.332 880.014 303.332C881.274 303.332 882.534 303.92 882.982 305.544H876.962ZM892.965 304.088C892.965 303.584 893.413 303.304 894.141 303.304C895.065 303.304 895.625 303.808 896.017 304.536L899.601 302.604C898.425 300.616 896.409 299.608 894.141 299.608C891.229 299.608 888.653 301.148 888.653 304.2C888.653 309.044 895.541 308.232 895.541 309.772C895.541 310.332 895.037 310.64 894.029 310.64C892.797 310.64 892.013 310.052 891.649 308.988L888.009 311.06C889.101 313.328 891.229 314.392 894.029 314.392C897.053 314.392 899.853 313.02 899.853 309.8C899.853 304.62 892.965 305.684 892.965 304.088ZM905.215 304.088C905.215 303.584 905.663 303.304 906.391 303.304C907.315 303.304 907.875 303.808 908.267 304.536L911.851 302.604C910.675 300.616 908.659 299.608 906.391 299.608C903.479 299.608 900.903 301.148 900.903 304.2C900.903 309.044 907.791 308.232 907.791 309.772C907.791 310.332 907.287 310.64 906.279 310.64C905.047 310.64 904.263 310.052 903.899 308.988L900.259 311.06C901.351 313.328 903.479 314.392 906.279 314.392C909.303 314.392 912.103 313.02 912.103 309.8C912.103 304.62 905.215 305.684 905.215 304.088ZM852.321 336.4H844.901V356H849.381V349.84H852.321C856.185 349.84 859.181 346.844 859.181 343.12C859.181 339.396 856.185 336.4 852.321 336.4ZM852.321 345.64H849.381V340.6H852.321C853.693 340.6 854.701 341.692 854.701 343.12C854.701 344.548 853.693 345.64 852.321 345.64ZM870.593 342V343.316C869.669 342.252 868.297 341.608 866.421 341.608C862.753 341.608 859.729 344.828 859.729 349C859.729 353.172 862.753 356.392 866.421 356.392C868.297 356.392 869.669 355.748 870.593 354.684V356H874.793V342H870.593ZM867.261 352.416C865.329 352.416 863.929 351.1 863.929 349C863.929 346.9 865.329 345.584 867.261 345.584C869.193 345.584 870.593 346.9 870.593 349C870.593 351.1 869.193 352.416 867.261 352.416ZM888.038 336.4V343.316C887.114 342.252 885.742 341.608 883.866 341.608C880.198 341.608 877.174 344.828 877.174 349C877.174 353.172 880.198 356.392 883.866 356.392C885.742 356.392 887.114 355.748 888.038 354.684V356H892.238V336.4H888.038ZM884.706 352.416C882.774 352.416 881.374 351.1 881.374 349C881.374 346.9 882.774 345.584 884.706 345.584C886.638 345.584 888.038 346.9 888.038 349C888.038 351.1 886.638 352.416 884.706 352.416Z" fill="white"/>
<circle cx="483.295" cy="291.895" r="127.5" fill="url(#paint6_linear_928_134)"/>
<path d="M447.465 229.378C452.329 229.378 455.785 226.818 455.785 222.498C455.785 217.762 451.977 216.578 448.585 215.554C445.097 214.498 444.553 213.794 444.553 212.77C444.553 211.874 445.353 211.074 446.953 211.074C449.001 211.074 450.057 212.066 450.825 213.666L455.145 211.138C453.513 207.842 450.633 206.082 446.953 206.082C443.081 206.082 439.433 208.578 439.433 212.898C439.433 217.186 442.697 218.786 446.025 219.714C449.385 220.642 450.665 221.186 450.665 222.562C450.665 223.426 450.057 224.386 447.625 224.386C445.097 224.386 443.721 223.138 442.921 221.282L438.505 223.842C439.753 227.138 442.761 229.378 447.465 229.378ZM467.091 217.538V212.93H463.795V208.45L458.995 209.89V212.93H456.435V217.538H458.995V223.202C458.995 227.682 460.819 229.57 467.091 228.93V224.578C464.979 224.706 463.795 224.578 463.795 223.202V217.538H467.091ZM481.113 212.93V214.434C480.057 213.218 478.489 212.482 476.345 212.482C472.153 212.482 468.697 216.162 468.697 220.93C468.697 225.698 472.153 229.378 476.345 229.378C478.489 229.378 480.057 228.642 481.113 227.426V228.93H485.913V212.93H481.113ZM477.305 224.834C475.097 224.834 473.497 223.33 473.497 220.93C473.497 218.53 475.097 217.026 477.305 217.026C479.513 217.026 481.113 218.53 481.113 220.93C481.113 223.33 479.513 224.834 477.305 224.834ZM504.794 228.93L498.81 220.93L504.634 212.93H499.034L494.234 219.938V206.53H489.434V228.93H494.234V221.858L499.354 228.93H504.794ZM509.878 222.85H521.238C521.366 222.242 521.43 221.602 521.43 220.93C521.43 216.098 517.974 212.482 513.302 212.482C508.246 212.482 504.79 216.162 504.79 220.93C504.79 225.698 508.182 229.378 513.654 229.378C516.694 229.378 519.062 228.258 520.63 226.082L516.79 223.874C516.15 224.578 515.03 225.09 513.718 225.09C511.958 225.09 510.486 224.514 509.878 222.85ZM509.782 219.266C510.23 217.634 511.446 216.738 513.27 216.738C514.71 216.738 516.15 217.41 516.662 219.266H509.782ZM440.726 254.53H431.766V276.93H440.726C446.902 276.93 451.606 272.066 451.606 265.73C451.606 259.394 446.902 254.53 440.726 254.53ZM440.726 272.002H436.886V259.458H440.726C444.246 259.458 446.678 261.89 446.678 265.73C446.678 269.57 444.246 272.002 440.726 272.002ZM458.613 270.85H469.973C470.101 270.242 470.165 269.602 470.165 268.93C470.165 264.098 466.709 260.482 462.037 260.482C456.981 260.482 453.525 264.162 453.525 268.93C453.525 273.698 456.917 277.378 462.389 277.378C465.429 277.378 467.797 276.258 469.365 274.082L465.525 271.874C464.885 272.578 463.765 273.09 462.453 273.09C460.693 273.09 459.221 272.514 458.613 270.85ZM458.517 267.266C458.965 265.634 460.181 264.738 462.005 264.738C463.445 264.738 464.885 265.41 465.397 267.266H458.517ZM481.219 258.69V254.082C475.907 253.762 473.443 256.45 473.443 260.93H471.299V265.538H473.443V276.93H478.243V265.538H481.219V260.93H478.243C478.243 259.074 479.427 258.53 481.219 258.69ZM492.826 265.538V260.93H489.53V256.45L484.73 257.89V260.93H482.17V265.538H484.73V271.202C484.73 275.682 486.554 277.57 492.826 276.93V272.578C490.714 272.706 489.53 272.578 489.53 271.202V265.538H492.826ZM497.944 259.522C499.512 259.522 500.824 258.21 500.824 256.642C500.824 255.074 499.512 253.762 497.944 253.762C496.376 253.762 495.064 255.074 495.064 256.642C495.064 258.21 496.376 259.522 497.944 259.522ZM495.544 276.93H500.344V260.93H495.544V276.93ZM512.656 258.69V254.082C507.344 253.762 504.88 256.45 504.88 260.93H502.736V265.538H504.88V276.93H509.68V265.538H512.656V260.93H509.68C509.68 259.074 510.864 258.53 512.656 258.69ZM525.124 260.93L522.116 270.722L518.564 260.93H513.284L519.652 276.194C518.948 278.146 517.892 278.85 515.652 278.85V283.33C520.132 283.554 522.98 281.538 524.772 276.45L530.244 260.93H525.124ZM453.681 302.53H437.041V307.458H442.801V324.93H447.921V307.458H453.681V302.53ZM460.567 325.378C465.271 325.378 469.047 321.698 469.047 316.93C469.047 312.162 465.271 308.482 460.567 308.482C455.863 308.482 452.087 312.162 452.087 316.93C452.087 321.698 455.863 325.378 460.567 325.378ZM460.567 320.706C458.487 320.706 456.887 319.202 456.887 316.93C456.887 314.658 458.487 313.154 460.567 313.154C462.647 313.154 464.247 314.658 464.247 316.93C464.247 319.202 462.647 320.706 460.567 320.706ZM487.122 324.93L481.138 316.93L486.962 308.93H481.362L476.562 315.938V302.53H471.762V324.93H476.562V317.858L481.682 324.93H487.122ZM492.207 318.85H503.567C503.695 318.242 503.759 317.602 503.759 316.93C503.759 312.098 500.303 308.482 495.631 308.482C490.575 308.482 487.119 312.162 487.119 316.93C487.119 321.698 490.511 325.378 495.983 325.378C499.023 325.378 501.391 324.258 502.959 322.082L499.119 319.874C498.479 320.578 497.359 321.09 496.047 321.09C494.287 321.09 492.815 320.514 492.207 318.85ZM492.111 315.266C492.559 313.634 493.775 312.738 495.599 312.738C497.039 312.738 498.479 313.41 498.991 315.266H492.111ZM515.857 308.482C513.745 308.482 512.145 309.25 511.281 310.434V308.93H506.481V324.93H511.281V316.194C511.281 313.922 512.497 312.898 514.257 312.898C515.793 312.898 517.041 313.826 517.041 315.81V324.93H521.841V315.106C521.841 310.786 519.089 308.482 515.857 308.482ZM436.529 376.13H441.329C439.089 371.65 437.809 366.85 437.809 361.73C437.809 356.61 439.089 351.81 441.329 347.33H436.529C434.289 351.81 433.009 356.61 433.009 361.73C433.009 366.85 434.289 371.65 436.529 376.13ZM452.539 350.53H443.579V372.93H452.539C458.715 372.93 463.419 368.066 463.419 361.73C463.419 355.394 458.715 350.53 452.539 350.53ZM452.539 368.002H448.699V355.458H452.539C456.059 355.458 458.491 357.89 458.491 361.73C458.491 365.57 456.059 368.002 452.539 368.002ZM479.897 355.458V350.53H466.297V372.93H471.417V364.706H479.737V359.778H471.417V355.458H479.897ZM497.962 350.53H481.322V355.458H487.082V372.93H492.202V355.458H497.962V350.53ZM518.444 350.53H512.62L508.364 359.17L504.108 350.53H498.284L505.804 364.322V372.93H510.924V364.322L518.444 350.53ZM523.56 376.13C525.8 371.65 527.08 366.85 527.08 361.73C527.08 356.61 525.8 351.81 523.56 347.33H518.76C521 351.81 522.28 356.61 522.28 361.73C522.28 366.85 521 371.65 518.76 376.13H523.56Z" fill="white"/>
<defs>
<filter id="filter0_f_928_134" x="41" y="27" width="194.748" height="194.748" filterUnits="userSpaceOnUse" color-interpolation-filters="sRGB">
<feFlood flood-opacity="0" result="BackgroundImageFix"/>
<feBlend mode="normal" in="SourceGraphic" in2="BackgroundImageFix" result="shape"/>
<feGaussianBlur stdDeviation="17" result="effect1_foregroundBlur_928_134"/>
</filter>
<filter id="filter1_f_928_134" x="764" y="220" width="194.748" height="194.748" filterUnits="userSpaceOnUse" color-interpolation-filters="sRGB">
<feFlood flood-opacity="0" result="BackgroundImageFix"/>
<feBlend mode="normal" in="SourceGraphic" in2="BackgroundImageFix" result="shape"/>
<feGaussianBlur stdDeviation="17" result="effect1_foregroundBlur_928_134"/>
</filter>
<filter id="filter2_f_928_134" x="47" y="397" width="219" height="219" filterUnits="userSpaceOnUse" color-interpolation-filters="sRGB">
<feFlood flood-opacity="0" result="BackgroundImageFix"/>
<feBlend mode="normal" in="SourceGraphic" in2="BackgroundImageFix" result="shape"/>
<feGaussianBlur stdDeviation="17" result="effect1_foregroundBlur_928_134"/>
</filter>
<linearGradient id="paint0_linear_928_134" x1="31.5652" y1="67.0699" x2="191.456" y2="182.882" gradientUnits="userSpaceOnUse">
<stop stop-color="#DBB35D"/>
<stop offset="1" stop-color="#D2A84C"/>
</linearGradient>
<linearGradient id="paint1_linear_928_134" x1="85007.7" y1="14084.7" x2="64914.8" y2="14084.7" gradientUnits="userSpaceOnUse">
<stop stop-color="#808285"/>
<stop offset="1" stop-color="#58595B"/>
</linearGradient>
<linearGradient id="paint2_linear_928_134" x1="32.8451" y1="407.667" x2="210.731" y2="536.514" gradientUnits="userSpaceOnUse">
<stop stop-color="#DBB35D"/>
<stop offset="1" stop-color="#D2A84C"/>
</linearGradient>
<linearGradient id="paint3_linear_928_134" x1="75431.9" y1="-33577.7" x2="56784.7" y2="-28581.2" gradientUnits="userSpaceOnUse">
<stop stop-color="#808285"/>
<stop offset="1" stop-color="#58595B"/>
</linearGradient>
<linearGradient id="paint4_linear_928_134" x1="962.927" y1="205.277" x2="868.375" y2="405.599" gradientUnits="userSpaceOnUse">
<stop stop-color="#DBB35D"/>
<stop offset="1" stop-color="#D2A84C"/>
</linearGradient>
<linearGradient id="paint5_linear_928_134" x1="-83990.2" y1="14256.6" x2="-63897.3" y2="14256.6" gradientUnits="userSpaceOnUse">
<stop stop-color="#808285"/>
<stop offset="1" stop-color="#58595B"/>
</linearGradient>
<linearGradient id="paint6_linear_928_134" x1="371.908" y1="184.01" x2="483.295" y2="419.395" gradientUnits="userSpaceOnUse">
<stop stop-color="#DBB35D"/>
<stop offset="1" stop-color="#D2A84C"/>
</linearGradient>
</defs>
</svg>
