<svg width="658" height="400" viewBox="0 0 1134 715" fill="none" xmlns="http://www.w3.org/2000/svg">
<rect x="293.588" y="245.379" width="18.7877" height="247.554" transform="rotate(-56.7032 293.588 245.379)" fill="white"/>
<rect x="654.104" y="391.771" width="18.0517" height="259.664" transform="rotate(-90 654.104 391.771)" fill="white"/>
<rect width="18.0517" height="193.619" transform="matrix(-0.632959 -0.774185 -0.774185 0.632959 488.322 423.976)" fill="white"/>
<g filter="url(#filter0_f_926_135)">
<circle cx="225.374" cy="213.374" r="63.3741" fill="white" fill-opacity="0.8"/>
</g>
<g filter="url(#filter1_f_926_135)">
<circle cx="948.374" cy="406.374" r="63.3741" fill="white"/>
</g>
<g opacity="0.7" filter="url(#filter2_f_926_135)">
<circle cx="243.5" cy="595.5" r="75.5" fill="white"/>
</g>
<circle cx="567.875" cy="378.785" r="93.7222" fill="#61DB94"/>
<circle cx="567.872" cy="378.785" r="87.4741" fill="white"/>
<circle cx="223.617" cy="213.451" r="95.07" fill="white"/>
<circle cx="224.253" cy="213.087" r="78.995" fill="url(#paint0_linear_926_135)"/>
<path d="M258.898 91.9613C251.505 90.6494 244.01 89.9931 236.502 90.0001C219.758 89.9986 203.178 93.2952 187.708 99.7017C172.239 106.108 158.182 115.499 146.342 127.338C134.502 139.177 125.11 153.233 118.702 168.702C112.294 184.171 108.996 200.751 108.996 217.494C108.994 234.239 112.292 250.82 118.699 266.29C125.106 281.761 134.498 295.817 146.338 307.658C158.178 319.498 172.235 328.89 187.706 335.297C203.176 341.704 219.757 345.001 236.502 345" stroke="url(#paint1_linear_926_135)" stroke-width="0.937222" stroke-miterlimit="10" stroke-linecap="round"/>
<path d="M181.488 185H186.038L179.85 166.8H174.546L168.358 185H172.908L173.818 182.14H180.578L181.488 185ZM175.066 178.24L177.198 171.558L179.33 178.24H175.066ZM193.319 185.364C195.867 185.364 198.077 184.038 199.195 182.01L195.789 180.06C195.373 180.97 194.411 181.516 193.267 181.516C191.577 181.516 190.329 180.294 190.329 178.5C190.329 176.706 191.577 175.484 193.267 175.484C194.411 175.484 195.347 176.03 195.789 176.94L199.195 174.964C198.077 172.962 195.841 171.636 193.319 171.636C189.367 171.636 186.429 174.626 186.429 178.5C186.429 182.374 189.367 185.364 193.319 185.364ZM206.751 185.364C209.299 185.364 211.509 184.038 212.627 182.01L209.221 180.06C208.805 180.97 207.843 181.516 206.699 181.516C205.009 181.516 203.761 180.294 203.761 178.5C203.761 176.706 205.009 175.484 206.699 175.484C207.843 175.484 208.779 176.03 209.221 176.94L212.627 174.964C211.509 172.962 209.273 171.636 206.751 171.636C202.799 171.636 199.861 174.626 199.861 178.5C199.861 182.374 202.799 185.364 206.751 185.364ZM217.427 180.06H226.657C226.761 179.566 226.813 179.046 226.813 178.5C226.813 174.574 224.005 171.636 220.209 171.636C216.101 171.636 213.293 174.626 213.293 178.5C213.293 182.374 216.049 185.364 220.495 185.364C222.965 185.364 224.889 184.454 226.163 182.686L223.043 180.892C222.523 181.464 221.613 181.88 220.547 181.88C219.117 181.88 217.921 181.412 217.427 180.06ZM217.349 177.148C217.713 175.822 218.701 175.094 220.183 175.094C221.353 175.094 222.523 175.64 222.939 177.148H217.349ZM232.209 175.796C232.209 175.328 232.625 175.068 233.301 175.068C234.159 175.068 234.679 175.536 235.043 176.212L238.371 174.418C237.279 172.572 235.407 171.636 233.301 171.636C230.597 171.636 228.205 173.066 228.205 175.9C228.205 180.398 234.601 179.644 234.601 181.074C234.601 181.594 234.133 181.88 233.197 181.88C232.053 181.88 231.325 181.334 230.987 180.346L227.607 182.27C228.621 184.376 230.597 185.364 233.197 185.364C236.005 185.364 238.605 184.09 238.605 181.1C238.605 176.29 232.209 177.278 232.209 175.796ZM243.584 175.796C243.584 175.328 244 175.068 244.676 175.068C245.534 175.068 246.054 175.536 246.418 176.212L249.746 174.418C248.654 172.572 246.782 171.636 244.676 171.636C241.972 171.636 239.58 173.066 239.58 175.9C239.58 180.398 245.976 179.644 245.976 181.074C245.976 181.594 245.508 181.88 244.572 181.88C243.428 181.88 242.7 181.334 242.362 180.346L238.982 182.27C239.996 184.376 241.972 185.364 244.572 185.364C247.38 185.364 249.98 184.09 249.98 181.1C249.98 176.29 243.584 177.278 243.584 175.796ZM266.172 175.744V172H263.494V168.36L259.594 169.53V172H257.514V175.744H259.594V180.346C259.594 183.986 261.076 185.52 266.172 185V181.464C264.456 181.568 263.494 181.464 263.494 180.346V175.744H266.172ZM274.366 185.364C278.188 185.364 281.256 182.374 281.256 178.5C281.256 174.626 278.188 171.636 274.366 171.636C270.544 171.636 267.476 174.626 267.476 178.5C267.476 182.374 270.544 185.364 274.366 185.364ZM274.366 181.568C272.676 181.568 271.376 180.346 271.376 178.5C271.376 176.654 272.676 175.432 274.366 175.432C276.056 175.432 277.356 176.654 277.356 178.5C277.356 180.346 276.056 181.568 274.366 181.568ZM181.453 205.8H177.293L172.353 213.886L167.413 205.8H163.253V224H167.413V213.418L172.119 221.14H172.587L177.293 213.418V224H181.453V205.8ZM187.935 219.06H197.165C197.269 218.566 197.321 218.046 197.321 217.5C197.321 213.574 194.513 210.636 190.717 210.636C186.609 210.636 183.801 213.626 183.801 217.5C183.801 221.374 186.557 224.364 191.003 224.364C193.473 224.364 195.397 223.454 196.671 221.686L193.551 219.892C193.031 220.464 192.121 220.88 191.055 220.88C189.625 220.88 188.429 220.412 187.935 219.06ZM187.857 216.148C188.221 214.822 189.209 214.094 190.691 214.094C191.861 214.094 193.031 214.64 193.447 216.148H187.857ZM206.771 214.744V211H204.093V207.36L200.193 208.53V211H198.113V214.744H200.193V219.346C200.193 222.986 201.675 224.52 206.771 224V220.464C205.055 220.568 204.093 220.464 204.093 219.346V214.744H206.771ZM218.163 211V212.222C217.305 211.234 216.031 210.636 214.289 210.636C210.883 210.636 208.075 213.626 208.075 217.5C208.075 221.374 210.883 224.364 214.289 224.364C216.031 224.364 217.305 223.766 218.163 222.778V224H222.063V211H218.163ZM215.069 220.672C213.275 220.672 211.975 219.45 211.975 217.5C211.975 215.55 213.275 214.328 215.069 214.328C216.863 214.328 218.163 215.55 218.163 217.5C218.163 219.45 216.863 220.672 215.069 220.672ZM231.164 224.364C233.712 224.364 235.922 223.038 237.04 221.01L233.634 219.06C233.218 219.97 232.256 220.516 231.112 220.516C229.422 220.516 228.174 219.294 228.174 217.5C228.174 215.706 229.422 214.484 231.112 214.484C232.256 214.484 233.192 215.03 233.634 215.94L237.04 213.964C235.922 211.962 233.686 210.636 231.164 210.636C227.212 210.636 224.274 213.626 224.274 217.5C224.274 221.374 227.212 224.364 231.164 224.364ZM247.135 211V218.098C247.135 219.944 246.147 220.776 244.717 220.776C243.469 220.776 242.455 220.022 242.455 218.41V211H238.555V218.982C238.555 222.492 240.791 224.364 243.417 224.364C245.133 224.364 246.433 223.74 247.135 222.778V224H251.035V211H247.135ZM257.795 213.314V211H253.895V224H257.795V218.124C257.795 215.55 260.083 214.9 261.695 215.16V210.74C260.057 210.74 258.315 211.572 257.795 213.314ZM266.829 214.796C266.829 214.328 267.245 214.068 267.921 214.068C268.779 214.068 269.299 214.536 269.663 215.212L272.991 213.418C271.899 211.572 270.027 210.636 267.921 210.636C265.217 210.636 262.825 212.066 262.825 214.9C262.825 219.398 269.221 218.644 269.221 220.074C269.221 220.594 268.753 220.88 267.817 220.88C266.673 220.88 265.945 220.334 265.607 219.346L262.227 221.27C263.241 223.376 265.217 224.364 267.817 224.364C270.625 224.364 273.225 223.09 273.225 220.1C273.225 215.29 266.829 216.278 266.829 214.796ZM278.529 219.06H287.759C287.863 218.566 287.915 218.046 287.915 217.5C287.915 213.574 285.107 210.636 281.311 210.636C277.203 210.636 274.395 213.626 274.395 217.5C274.395 221.374 277.151 224.364 281.597 224.364C284.067 224.364 285.991 223.454 287.265 221.686L284.145 219.892C283.625 220.464 282.715 220.88 281.649 220.88C280.219 220.88 279.023 220.412 278.529 219.06ZM278.451 216.148C278.815 214.822 279.803 214.094 281.285 214.094C282.455 214.094 283.625 214.64 284.041 216.148H278.451ZM209.245 244.8V254.68L202.225 244.8H199.105V263H203.265V253.12L210.285 263H213.405V244.8H209.245ZM227.573 248.804V244.8H216.523V263H220.683V256.318H227.443V252.314H220.683V248.804H227.573ZM242.251 244.8H228.731V248.804H233.411V263H237.571V248.804H242.251V244.8ZM245.806 253.796C245.806 253.328 246.222 253.068 246.898 253.068C247.756 253.068 248.276 253.536 248.64 254.212L251.968 252.418C250.876 250.572 249.004 249.636 246.898 249.636C244.194 249.636 241.802 251.066 241.802 253.9C241.802 258.398 248.198 257.644 248.198 259.074C248.198 259.594 247.73 259.88 246.794 259.88C245.65 259.88 244.922 259.334 244.584 258.346L241.204 260.27C242.218 262.376 244.194 263.364 246.794 263.364C249.602 263.364 252.202 262.09 252.202 259.1C252.202 254.29 245.806 255.278 245.806 253.796Z" fill="white"/>
<circle cx="240.461" cy="564.364" r="105.77" fill="white"/>
<circle cx="240.586" cy="564.485" r="94.395" fill="url(#paint2_linear_926_135)"/>
<path d="M289.042 675.827C282.506 678.883 275.714 681.356 268.744 683.217C253.205 687.382 236.999 688.445 221.049 686.347C205.099 684.248 189.719 679.028 175.787 670.985C161.855 662.942 149.643 652.234 139.85 639.471C130.056 626.709 122.873 612.142 118.709 596.603C114.544 581.063 113.48 564.856 115.579 548.905C117.679 532.955 122.899 517.574 130.943 503.641C138.987 489.709 149.697 477.497 162.461 467.704C175.225 457.911 189.793 450.728 205.333 446.565" stroke="url(#paint3_linear_926_135)" stroke-width="0.937222" stroke-miterlimit="10" stroke-linecap="round"/>
<path d="M192.992 500.249H186.102V518.449H190.262V512.729H192.992C196.58 512.729 199.362 509.947 199.362 506.489C199.362 503.031 196.58 500.249 192.992 500.249ZM192.992 508.829H190.262V504.149H192.992C194.266 504.149 195.202 505.163 195.202 506.489C195.202 507.815 194.266 508.829 192.992 508.829ZM204.954 507.763V505.449H201.054V518.449H204.954V512.573C204.954 509.999 207.242 509.349 208.854 509.609V505.189C207.216 505.189 205.474 506.021 204.954 507.763ZM213.78 513.509H223.01C223.114 513.015 223.166 512.495 223.166 511.949C223.166 508.023 220.358 505.085 216.562 505.085C212.454 505.085 209.646 508.075 209.646 511.949C209.646 515.823 212.402 518.813 216.848 518.813C219.318 518.813 221.242 517.903 222.516 516.135L219.396 514.341C218.876 514.913 217.966 515.329 216.9 515.329C215.47 515.329 214.274 514.861 213.78 513.509ZM213.702 510.597C214.066 509.271 215.054 508.543 216.536 508.543C217.706 508.543 218.876 509.089 219.292 510.597H213.702ZM239.938 505.085C238.092 505.085 236.896 505.761 236.168 506.801C235.44 505.709 234.296 505.085 232.762 505.085C231.02 505.085 229.876 505.761 229.278 506.645V505.449H225.378V518.449H229.278V511.117C229.278 509.583 230.006 508.673 231.306 508.673C232.554 508.673 233.178 509.505 233.178 510.805V518.449H237.078V511.117C237.078 509.583 237.806 508.673 239.106 508.673C240.354 508.673 240.978 509.505 240.978 510.805V518.449H244.878V510.467C244.878 507.217 242.928 505.085 239.938 505.085ZM249.494 504.305C250.768 504.305 251.834 503.239 251.834 501.965C251.834 500.691 250.768 499.625 249.494 499.625C248.22 499.625 247.154 500.691 247.154 501.965C247.154 503.239 248.22 504.305 249.494 504.305ZM247.544 518.449H251.444V505.449H247.544V518.449ZM262.696 505.449V512.547C262.696 514.393 261.708 515.225 260.278 515.225C259.03 515.225 258.016 514.471 258.016 512.859V505.449H254.116V513.431C254.116 516.941 256.352 518.813 258.978 518.813C260.694 518.813 261.994 518.189 262.696 517.227V518.449H266.596V505.449H262.696ZM284.016 505.085C282.17 505.085 280.974 505.761 280.246 506.801C279.518 505.709 278.374 505.085 276.84 505.085C275.098 505.085 273.954 505.761 273.356 506.645V505.449H269.456V518.449H273.356V511.117C273.356 509.583 274.084 508.673 275.384 508.673C276.632 508.673 277.256 509.505 277.256 510.805V518.449H281.156V511.117C281.156 509.583 281.884 508.673 283.184 508.673C284.432 508.673 285.056 509.505 285.056 510.805V518.449H288.956V510.467C288.956 507.217 287.006 505.085 284.016 505.085ZM195.661 542.629V538.885C191.345 538.625 189.343 540.809 189.343 544.449H187.601V548.193H189.343V557.449H193.243V548.193H195.661V544.449H193.243C193.243 542.941 194.205 542.499 195.661 542.629ZM200.196 552.509H209.426C209.53 552.015 209.582 551.495 209.582 550.949C209.582 547.023 206.774 544.085 202.978 544.085C198.87 544.085 196.062 547.075 196.062 550.949C196.062 554.823 198.818 557.813 203.264 557.813C205.734 557.813 207.658 556.903 208.932 555.135L205.812 553.341C205.292 553.913 204.382 554.329 203.316 554.329C201.886 554.329 200.69 553.861 200.196 552.509ZM200.118 549.597C200.482 548.271 201.47 547.543 202.952 547.543C204.122 547.543 205.292 548.089 205.708 549.597H200.118ZM221.105 544.449V545.671C220.247 544.683 218.973 544.085 217.231 544.085C213.825 544.085 211.017 547.075 211.017 550.949C211.017 554.823 213.825 557.813 217.231 557.813C218.973 557.813 220.247 557.215 221.105 556.227V557.449H225.005V544.449H221.105ZM218.011 554.121C216.217 554.121 214.917 552.899 214.917 550.949C214.917 548.999 216.217 547.777 218.011 547.777C219.805 547.777 221.105 548.999 221.105 550.949C221.105 552.899 219.805 554.121 218.011 554.121ZM235.485 548.193V544.449H232.807V540.809L228.907 541.979V544.449H226.827V548.193H228.907V552.795C228.907 556.435 230.389 557.969 235.485 557.449V553.913C233.769 554.017 232.807 553.913 232.807 552.795V548.193H235.485ZM246.345 544.449V551.547C246.345 553.393 245.357 554.225 243.927 554.225C242.679 554.225 241.665 553.471 241.665 551.859V544.449H237.765V552.431C237.765 555.941 240.001 557.813 242.627 557.813C244.343 557.813 245.643 557.189 246.345 556.227V557.449H250.245V544.449H246.345ZM257.005 546.763V544.449H253.105V557.449H257.005V551.573C257.005 548.999 259.293 548.349 260.905 548.609V544.189C259.267 544.189 257.525 545.021 257.005 546.763ZM265.831 552.509H275.061C275.165 552.015 275.217 551.495 275.217 550.949C275.217 547.023 272.409 544.085 268.613 544.085C264.505 544.085 261.697 547.075 261.697 550.949C261.697 554.823 264.453 557.813 268.899 557.813C271.369 557.813 273.293 556.903 274.567 555.135L271.447 553.341C270.927 553.913 270.017 554.329 268.951 554.329C267.521 554.329 266.325 553.861 265.831 552.509ZM265.753 549.597C266.117 548.271 267.105 547.543 268.587 547.543C269.757 547.543 270.927 548.089 271.343 549.597H265.753ZM280.613 548.245C280.613 547.777 281.029 547.517 281.705 547.517C282.563 547.517 283.083 547.985 283.447 548.661L286.775 546.867C285.683 545.021 283.811 544.085 281.705 544.085C279.001 544.085 276.609 545.515 276.609 548.349C276.609 552.847 283.005 552.093 283.005 553.523C283.005 554.043 282.537 554.329 281.601 554.329C280.457 554.329 279.729 553.783 279.391 552.795L276.011 554.719C277.025 556.825 279.001 557.813 281.601 557.813C284.409 557.813 287.009 556.539 287.009 553.549C287.009 548.739 280.613 549.727 280.613 548.245ZM187.464 596.813C191.286 596.813 194.354 593.823 194.354 589.949C194.354 586.075 191.286 583.085 187.464 583.085C183.642 583.085 180.574 586.075 180.574 589.949C180.574 593.823 183.642 596.813 187.464 596.813ZM187.464 593.017C185.774 593.017 184.474 591.795 184.474 589.949C184.474 588.103 185.774 586.881 187.464 586.881C189.154 586.881 190.454 588.103 190.454 589.949C190.454 591.795 189.154 593.017 187.464 593.017ZM203.329 581.629V577.885C199.013 577.625 197.011 579.809 197.011 583.449H195.269V587.193H197.011V596.449H200.911V587.193H203.329V583.449H200.911C200.911 581.941 201.873 581.499 203.329 581.629ZM211.391 578.249V596.449H215.551V578.249H211.391ZM226.166 583.085C224.45 583.085 223.15 583.709 222.448 584.671V583.449H218.548V596.449H222.448V589.351C222.448 587.505 223.436 586.673 224.866 586.673C226.114 586.673 227.128 587.427 227.128 589.039V596.449H231.028V588.467C231.028 584.957 228.792 583.085 226.166 583.085ZM237.398 587.245C237.398 586.777 237.814 586.517 238.49 586.517C239.348 586.517 239.868 586.985 240.232 587.661L243.56 585.867C242.468 584.021 240.596 583.085 238.49 583.085C235.786 583.085 233.394 584.515 233.394 587.349C233.394 591.847 239.79 591.093 239.79 592.523C239.79 593.043 239.322 593.329 238.386 593.329C237.242 593.329 236.514 592.783 236.176 591.795L232.796 593.719C233.81 595.825 235.786 596.813 238.386 596.813C241.194 596.813 243.794 595.539 243.794 592.549C243.794 587.739 237.398 588.727 237.398 587.245ZM252.979 587.193V583.449H250.301V579.809L246.401 580.979V583.449H244.321V587.193H246.401V591.795C246.401 595.435 247.883 596.969 252.979 596.449V592.913C251.263 593.017 250.301 592.913 250.301 591.795V587.193H252.979ZM264.371 583.449V584.671C263.513 583.683 262.239 583.085 260.497 583.085C257.091 583.085 254.283 586.075 254.283 589.949C254.283 593.823 257.091 596.813 260.497 596.813C262.239 596.813 263.513 596.215 264.371 595.227V596.449H268.271V583.449H264.371ZM261.277 593.121C259.483 593.121 258.183 591.899 258.183 589.949C258.183 587.999 259.483 586.777 261.277 586.777C263.071 586.777 264.371 587.999 264.371 589.949C264.371 591.899 263.071 593.121 261.277 593.121ZM278.75 583.085C277.034 583.085 275.734 583.709 275.032 584.671V583.449H271.132V596.449H275.032V589.351C275.032 587.505 276.02 586.673 277.45 586.673C278.698 586.673 279.712 587.427 279.712 589.039V596.449H283.612V588.467C283.612 584.957 281.376 583.085 278.75 583.085ZM293.908 587.193V583.449H291.23V579.809L287.33 580.979V583.449H285.25V587.193H287.33V591.795C287.33 595.435 288.812 596.969 293.908 596.449V592.913C292.192 593.017 291.23 592.913 291.23 591.795V587.193H293.908ZM203.137 635.449H207.869L210.833 624.711L213.797 635.449H218.529L223.547 617.249H219.179L216.033 629.989L212.523 617.249H209.143L205.633 629.989L202.487 617.249H198.119L203.137 635.449ZM233.128 622.449V623.671C232.27 622.683 230.996 622.085 229.254 622.085C225.848 622.085 223.04 625.075 223.04 628.949C223.04 632.823 225.848 635.813 229.254 635.813C230.996 635.813 232.27 635.215 233.128 634.227V635.449H237.028V622.449H233.128ZM230.034 632.121C228.24 632.121 226.94 630.899 226.94 628.949C226.94 626.999 228.24 625.777 230.034 625.777C231.828 625.777 233.128 626.999 233.128 628.949C233.128 630.899 231.828 632.121 230.034 632.121ZM247.507 626.193V622.449H244.829V618.809L240.929 619.979V622.449H238.849V626.193H240.929V630.795C240.929 634.435 242.411 635.969 247.507 635.449V631.913C245.791 632.017 244.829 631.913 244.829 630.795V626.193H247.507ZM255.701 635.813C258.249 635.813 260.459 634.487 261.577 632.459L258.171 630.509C257.755 631.419 256.793 631.965 255.649 631.965C253.959 631.965 252.711 630.743 252.711 628.949C252.711 627.155 253.959 625.933 255.649 625.933C256.793 625.933 257.729 626.479 258.171 627.389L261.577 625.413C260.459 623.411 258.223 622.085 255.701 622.085C251.749 622.085 248.811 625.075 248.811 628.949C248.811 632.823 251.749 635.813 255.701 635.813ZM270.765 622.085C269.049 622.085 267.749 622.709 267.047 623.671V617.249H263.147V635.449H267.047V628.351C267.047 626.505 268.035 625.673 269.465 625.673C270.713 625.673 271.727 626.427 271.727 628.039V635.449H275.627V627.467C275.627 623.957 273.391 622.085 270.765 622.085Z" fill="white"/>
<circle cx="952.773" cy="386.228" r="105.772" fill="white"/>
<circle cx="952.97" cy="384.424" r="88.365" fill="url(#paint4_linear_926_135)"/>
<path d="M932.559 263.961C939.952 262.649 947.447 261.993 954.955 262C971.699 261.999 988.279 265.295 1003.75 271.702C1019.22 278.108 1033.27 287.499 1045.11 299.338C1056.95 311.177 1066.35 325.233 1072.76 340.702C1079.16 356.171 1082.46 372.751 1082.46 389.494C1082.46 406.239 1079.17 422.82 1072.76 438.29C1066.35 453.761 1056.96 467.817 1045.12 479.658C1033.28 491.498 1019.22 500.89 1003.75 507.297C988.281 513.704 971.7 517.001 954.955 517" stroke="url(#paint5_linear_926_135)" stroke-width="0.937222" stroke-miterlimit="10" stroke-linecap="round"/>
<path d="M916.273 340.015H909.383V358.215H913.543V352.495H916.273C919.861 352.495 922.643 349.713 922.643 346.255C922.643 342.797 919.861 340.015 916.273 340.015ZM916.273 348.595H913.543V343.915H916.273C917.547 343.915 918.483 344.929 918.483 346.255C918.483 347.581 917.547 348.595 916.273 348.595ZM928.235 347.529V345.215H924.335V358.215H928.235V352.339C928.235 349.765 930.523 349.115 932.135 349.375V344.955C930.497 344.955 928.755 345.787 928.235 347.529ZM935.908 344.071C937.182 344.071 938.248 343.005 938.248 341.731C938.248 340.457 937.182 339.391 935.908 339.391C934.634 339.391 933.568 340.457 933.568 341.731C933.568 343.005 934.634 344.071 935.908 344.071ZM933.958 358.215H937.858V345.215H933.958V358.215ZM949.006 345.215L946.302 353.457L943.598 345.215H939.282L944.092 358.215H948.512L953.322 345.215H949.006ZM963.683 345.215V346.437C962.825 345.449 961.551 344.851 959.809 344.851C956.403 344.851 953.595 347.841 953.595 351.715C953.595 355.589 956.403 358.579 959.809 358.579C961.551 358.579 962.825 357.981 963.683 356.993V358.215H967.583V345.215H963.683ZM960.589 354.887C958.795 354.887 957.495 353.665 957.495 351.715C957.495 349.765 958.795 348.543 960.589 348.543C962.383 348.543 963.683 349.765 963.683 351.715C963.683 353.665 962.383 354.887 960.589 354.887ZM978.063 348.959V345.215H975.385V341.575L971.485 342.745V345.215H969.405V348.959H971.485V353.561C971.485 357.201 972.967 358.735 978.063 358.215V354.679C976.347 354.783 975.385 354.679 975.385 353.561V348.959H978.063ZM983.501 353.275H992.731C992.835 352.781 992.887 352.261 992.887 351.715C992.887 347.789 990.079 344.851 986.283 344.851C982.175 344.851 979.367 347.841 979.367 351.715C979.367 355.589 982.123 358.579 986.569 358.579C989.039 358.579 990.963 357.669 992.237 355.901L989.117 354.107C988.597 354.679 987.687 355.095 986.621 355.095C985.191 355.095 983.995 354.627 983.501 353.275ZM983.423 350.363C983.787 349.037 984.775 348.309 986.257 348.309C987.427 348.309 988.597 348.855 989.013 350.363H983.423ZM922.743 397.215H927.293L921.105 379.015H915.801L909.613 397.215H914.163L915.073 394.355H921.833L922.743 397.215ZM916.321 390.455L918.453 383.773L920.585 390.455H916.321ZM934.574 397.579C937.122 397.579 939.332 396.253 940.45 394.225L937.044 392.275C936.628 393.185 935.666 393.731 934.522 393.731C932.832 393.731 931.584 392.509 931.584 390.715C931.584 388.921 932.832 387.699 934.522 387.699C935.666 387.699 936.602 388.245 937.044 389.155L940.45 387.179C939.332 385.177 937.096 383.851 934.574 383.851C930.622 383.851 927.684 386.841 927.684 390.715C927.684 394.589 930.622 397.579 934.574 397.579ZM948.006 397.579C950.554 397.579 952.764 396.253 953.882 394.225L950.476 392.275C950.06 393.185 949.098 393.731 947.954 393.731C946.264 393.731 945.016 392.509 945.016 390.715C945.016 388.921 946.264 387.699 947.954 387.699C949.098 387.699 950.034 388.245 950.476 389.155L953.882 387.179C952.764 385.177 950.528 383.851 948.006 383.851C944.054 383.851 941.116 386.841 941.116 390.715C941.116 394.589 944.054 397.579 948.006 397.579ZM958.682 392.275H967.912C968.016 391.781 968.068 391.261 968.068 390.715C968.068 386.789 965.26 383.851 961.464 383.851C957.356 383.851 954.548 386.841 954.548 390.715C954.548 394.589 957.304 397.579 961.75 397.579C964.22 397.579 966.144 396.669 967.418 394.901L964.298 393.107C963.778 393.679 962.868 394.095 961.802 394.095C960.372 394.095 959.176 393.627 958.682 392.275ZM958.604 389.363C958.968 388.037 959.956 387.309 961.438 387.309C962.608 387.309 963.778 387.855 964.194 389.363H958.604ZM973.464 388.011C973.464 387.543 973.88 387.283 974.556 387.283C975.414 387.283 975.934 387.751 976.298 388.427L979.626 386.633C978.534 384.787 976.662 383.851 974.556 383.851C971.852 383.851 969.46 385.281 969.46 388.115C969.46 392.613 975.856 391.859 975.856 393.289C975.856 393.809 975.388 394.095 974.452 394.095C973.308 394.095 972.58 393.549 972.242 392.561L968.862 394.485C969.876 396.591 971.852 397.579 974.452 397.579C977.26 397.579 979.86 396.305 979.86 393.315C979.86 388.505 973.464 389.493 973.464 388.011ZM984.839 388.011C984.839 387.543 985.255 387.283 985.931 387.283C986.789 387.283 987.309 387.751 987.673 388.427L991.001 386.633C989.909 384.787 988.037 383.851 985.931 383.851C983.227 383.851 980.835 385.281 980.835 388.115C980.835 392.613 987.231 391.859 987.231 393.289C987.231 393.809 986.763 394.095 985.827 394.095C984.683 394.095 983.955 393.549 983.617 392.561L980.237 394.485C981.251 396.591 983.227 397.579 985.827 397.579C988.635 397.579 991.235 396.305 991.235 393.315C991.235 388.505 984.839 389.493 984.839 388.011ZM935.722 418.015H928.832V436.215H932.992V430.495H935.722C939.31 430.495 942.092 427.713 942.092 424.255C942.092 420.797 939.31 418.015 935.722 418.015ZM935.722 426.595H932.992V421.915H935.722C936.996 421.915 937.932 422.929 937.932 424.255C937.932 425.581 936.996 426.595 935.722 426.595ZM952.689 423.215V424.437C951.831 423.449 950.557 422.851 948.815 422.851C945.409 422.851 942.601 425.841 942.601 429.715C942.601 433.589 945.409 436.579 948.815 436.579C950.557 436.579 951.831 435.981 952.689 434.993V436.215H956.589V423.215H952.689ZM949.595 432.887C947.801 432.887 946.501 431.665 946.501 429.715C946.501 427.765 947.801 426.543 949.595 426.543C951.389 426.543 952.689 427.765 952.689 429.715C952.689 431.665 951.389 432.887 949.595 432.887ZM968.889 418.015V424.437C968.031 423.449 966.757 422.851 965.015 422.851C961.609 422.851 958.801 425.841 958.801 429.715C958.801 433.589 961.609 436.579 965.015 436.579C966.757 436.579 968.031 435.981 968.889 434.993V436.215H972.789V418.015H968.889ZM965.795 432.887C964.001 432.887 962.701 431.665 962.701 429.715C962.701 427.765 964.001 426.543 965.795 426.543C967.589 426.543 968.889 427.765 968.889 429.715C968.889 431.665 967.589 432.887 965.795 432.887Z" fill="white"/>
<circle cx="567.5" cy="377.5" r="127.5" fill="white"/>
<circle cx="567.828" cy="375.427" r="111.033" fill="url(#paint6_linear_926_135)"/>
<path d="M534.465 318.378C539.329 318.378 542.785 315.818 542.785 311.498C542.785 306.762 538.977 305.578 535.585 304.554C532.097 303.498 531.553 302.794 531.553 301.77C531.553 300.874 532.353 300.074 533.953 300.074C536.001 300.074 537.057 301.066 537.825 302.666L542.145 300.138C540.513 296.842 537.633 295.082 533.953 295.082C530.081 295.082 526.433 297.578 526.433 301.898C526.433 306.186 529.697 307.786 533.025 308.714C536.385 309.642 537.665 310.186 537.665 311.562C537.665 312.426 537.057 313.386 534.625 313.386C532.097 313.386 530.721 312.138 529.921 310.282L525.505 312.842C526.753 316.138 529.761 318.378 534.465 318.378ZM554.091 306.538V301.93H550.795V297.45L545.995 298.89V301.93H543.435V306.538H545.995V312.202C545.995 316.682 547.819 318.57 554.091 317.93V313.578C551.979 313.706 550.795 313.578 550.795 312.202V306.538H554.091ZM568.113 301.93V303.434C567.057 302.218 565.489 301.482 563.345 301.482C559.153 301.482 555.697 305.162 555.697 309.93C555.697 314.698 559.153 318.378 563.345 318.378C565.489 318.378 567.057 317.642 568.113 316.426V317.93H572.913V301.93H568.113ZM564.305 313.834C562.097 313.834 560.497 312.33 560.497 309.93C560.497 307.53 562.097 306.026 564.305 306.026C566.513 306.026 568.113 307.53 568.113 309.93C568.113 312.33 566.513 313.834 564.305 313.834ZM591.794 317.93L585.81 309.93L591.634 301.93H586.034L581.234 308.938V295.53H576.434V317.93H581.234V310.858L586.354 317.93H591.794ZM596.878 311.85H608.238C608.366 311.242 608.43 310.602 608.43 309.93C608.43 305.098 604.974 301.482 600.302 301.482C595.246 301.482 591.79 305.162 591.79 309.93C591.79 314.698 595.182 318.378 600.654 318.378C603.694 318.378 606.062 317.258 607.63 315.082L603.79 312.874C603.15 313.578 602.03 314.09 600.718 314.09C598.958 314.09 597.486 313.514 596.878 311.85ZM596.782 308.266C597.23 306.634 598.446 305.738 600.27 305.738C601.71 305.738 603.15 306.41 603.662 308.266H596.782ZM527.726 343.53H518.766V365.93H527.726C533.902 365.93 538.606 361.066 538.606 354.73C538.606 348.394 533.902 343.53 527.726 343.53ZM527.726 361.002H523.886V348.458H527.726C531.246 348.458 533.678 350.89 533.678 354.73C533.678 358.57 531.246 361.002 527.726 361.002ZM545.613 359.85H556.973C557.101 359.242 557.165 358.602 557.165 357.93C557.165 353.098 553.709 349.482 549.037 349.482C543.981 349.482 540.525 353.162 540.525 357.93C540.525 362.698 543.917 366.378 549.389 366.378C552.429 366.378 554.797 365.258 556.365 363.082L552.525 360.874C551.885 361.578 550.765 362.09 549.453 362.09C547.693 362.09 546.221 361.514 545.613 359.85ZM545.517 356.266C545.965 354.634 547.181 353.738 549.005 353.738C550.445 353.738 551.885 354.41 552.397 356.266H545.517ZM568.219 347.69V343.082C562.907 342.762 560.443 345.45 560.443 349.93H558.299V354.538H560.443V365.93H565.243V354.538H568.219V349.93H565.243C565.243 348.074 566.427 347.53 568.219 347.69ZM579.826 354.538V349.93H576.53V345.45L571.73 346.89V349.93H569.17V354.538H571.73V360.202C571.73 364.682 573.554 366.57 579.826 365.93V361.578C577.714 361.706 576.53 361.578 576.53 360.202V354.538H579.826ZM584.944 348.522C586.512 348.522 587.824 347.21 587.824 345.642C587.824 344.074 586.512 342.762 584.944 342.762C583.376 342.762 582.064 344.074 582.064 345.642C582.064 347.21 583.376 348.522 584.944 348.522ZM582.544 365.93H587.344V349.93H582.544V365.93ZM599.656 347.69V343.082C594.344 342.762 591.88 345.45 591.88 349.93H589.736V354.538H591.88V365.93H596.68V354.538H599.656V349.93H596.68C596.68 348.074 597.864 347.53 599.656 347.69ZM612.124 349.93L609.116 359.722L605.564 349.93H600.284L606.652 365.194C605.948 367.146 604.892 367.85 602.652 367.85V372.33C607.132 372.554 609.98 370.538 611.772 365.45L617.244 349.93H612.124ZM540.681 391.53H524.041V396.458H529.801V413.93H534.921V396.458H540.681V391.53ZM547.567 414.378C552.271 414.378 556.047 410.698 556.047 405.93C556.047 401.162 552.271 397.482 547.567 397.482C542.863 397.482 539.087 401.162 539.087 405.93C539.087 410.698 542.863 414.378 547.567 414.378ZM547.567 409.706C545.487 409.706 543.887 408.202 543.887 405.93C543.887 403.658 545.487 402.154 547.567 402.154C549.647 402.154 551.247 403.658 551.247 405.93C551.247 408.202 549.647 409.706 547.567 409.706ZM574.122 413.93L568.138 405.93L573.962 397.93H568.362L563.562 404.938V391.53H558.762V413.93H563.562V406.858L568.682 413.93H574.122ZM579.207 407.85H590.567C590.695 407.242 590.759 406.602 590.759 405.93C590.759 401.098 587.303 397.482 582.631 397.482C577.575 397.482 574.119 401.162 574.119 405.93C574.119 410.698 577.511 414.378 582.983 414.378C586.023 414.378 588.391 413.258 589.959 411.082L586.119 408.874C585.479 409.578 584.359 410.09 583.047 410.09C581.287 410.09 579.815 409.514 579.207 407.85ZM579.111 404.266C579.559 402.634 580.775 401.738 582.599 401.738C584.039 401.738 585.479 402.41 585.991 404.266H579.111ZM602.857 397.482C600.745 397.482 599.145 398.25 598.281 399.434V397.93H593.481V413.93H598.281V405.194C598.281 402.922 599.497 401.898 601.257 401.898C602.793 401.898 604.041 402.826 604.041 404.81V413.93H608.841V404.106C608.841 399.786 606.089 397.482 602.857 397.482ZM523.529 465.13H528.329C526.089 460.65 524.809 455.85 524.809 450.73C524.809 445.61 526.089 440.81 528.329 436.33H523.529C521.289 440.81 520.009 445.61 520.009 450.73C520.009 455.85 521.289 460.65 523.529 465.13ZM539.539 439.53H530.579V461.93H539.539C545.715 461.93 550.419 457.066 550.419 450.73C550.419 444.394 545.715 439.53 539.539 439.53ZM539.539 457.002H535.699V444.458H539.539C543.059 444.458 545.491 446.89 545.491 450.73C545.491 454.57 543.059 457.002 539.539 457.002ZM566.897 444.458V439.53H553.297V461.93H558.417V453.706H566.737V448.778H558.417V444.458H566.897ZM584.962 439.53H568.322V444.458H574.082V461.93H579.202V444.458H584.962V439.53ZM605.444 439.53H599.62L595.364 448.17L591.108 439.53H585.284L592.804 453.322V461.93H597.924V453.322L605.444 439.53ZM610.56 465.13C612.8 460.65 614.08 455.85 614.08 450.73C614.08 445.61 612.8 440.81 610.56 436.33H605.76C608 440.81 609.28 445.61 609.28 450.73C609.28 455.85 608 460.65 605.76 465.13H610.56Z" fill="white"/>
<path d="M40.7358 52V46.488H45.6238V21.112H40.7358V15.6H55.5558C60.4091 15.6 64.1184 16.8307 66.6838 19.292C69.2491 21.7533 70.5318 25.4453 70.5318 30.368V37.232C70.5318 42.1547 69.2491 45.8467 66.6838 48.308C64.1184 50.7693 60.4091 52 55.5558 52H40.7358ZM51.8638 46.332H55.6078C58.5544 46.332 60.7384 45.5693 62.1598 44.044C63.5811 42.5187 64.2918 40.3173 64.2918 37.44V30.212C64.2918 27.2653 63.5811 25.0467 62.1598 23.556C60.7384 22.0307 58.5544 21.268 55.6078 21.268H51.8638V46.332ZM88.4738 52.728C85.9084 52.728 83.6378 52.1907 81.6618 51.116C79.7204 50.0067 78.1951 48.464 77.0858 46.488C76.0111 44.4773 75.4738 42.1373 75.4738 39.468V38.844C75.4738 36.14 76.0111 33.8 77.0858 31.824C78.1604 29.848 79.6684 28.3227 81.6098 27.248C83.5511 26.1387 85.7871 25.584 88.3178 25.584C90.8138 25.584 92.9978 26.1387 94.8698 27.248C96.7418 28.3227 98.1978 29.848 99.2378 31.824C100.278 33.8 100.798 36.1053 100.798 38.74V40.872H81.5058C81.5751 42.8827 82.2858 44.4947 83.6378 45.708C84.9898 46.9213 86.6538 47.528 88.6298 47.528C90.5711 47.528 92.0098 47.112 92.9458 46.28C93.8818 45.4133 94.5924 44.4427 95.0778 43.368L100.018 45.916C99.5324 46.852 98.8218 47.8573 97.8858 48.932C96.9844 49.972 95.7711 50.8733 94.2458 51.636C92.7204 52.364 90.7964 52.728 88.4738 52.728ZM81.5578 36.348H94.7138C94.5751 34.6493 93.9164 33.2973 92.7378 32.292C91.5938 31.2867 90.1031 30.784 88.2658 30.784C86.3591 30.784 84.8338 31.2867 83.6898 32.292C82.5458 33.2973 81.8351 34.6493 81.5578 36.348ZM110.545 52V31.252H103.681V26.312H110.545V21.112C110.545 19.4133 111.031 18.0787 112.001 17.108C113.007 16.1027 114.324 15.6 115.953 15.6H122.609V20.54H117.929C116.959 20.54 116.473 21.06 116.473 22.1V26.312H123.545V31.252H116.473V52H110.545ZM137.939 52C136.275 52 134.941 51.5147 133.935 50.544C132.965 49.5387 132.479 48.1867 132.479 46.488V31.252H125.771V26.312H132.479V18.044H138.459V26.312H145.843V31.252H138.459V45.5C138.459 46.54 138.945 47.06 139.915 47.06H145.063V52H137.939ZM151.929 52V26.312H157.909V52H151.929ZM154.893 23.036C153.818 23.036 152.882 22.6893 152.085 21.996C151.322 21.268 150.941 20.3147 150.941 19.136C150.941 17.9573 151.322 17.0213 152.085 16.328C152.882 15.6 153.818 15.236 154.893 15.236C156.037 15.236 156.973 15.6 157.701 16.328C158.463 17.0213 158.845 17.9573 158.845 19.136C158.845 20.3147 158.463 21.268 157.701 21.996C156.973 22.6893 156.037 23.036 154.893 23.036ZM169.959 52V31.252H163.095V26.312H169.959V21.112C169.959 19.4133 170.445 18.0787 171.415 17.108C172.421 16.1027 173.738 15.6 175.367 15.6H182.023V20.54H177.343C176.373 20.54 175.887 21.06 175.887 22.1V26.312H182.959V31.252H175.887V52H169.959ZM191.047 62.4V57.2H205.243C206.213 57.2 206.699 56.68 206.699 55.64V48.464H205.815C205.537 49.088 205.087 49.712 204.463 50.336C203.839 50.9253 203.007 51.428 201.967 51.844C200.927 52.2253 199.609 52.416 198.015 52.416C196.039 52.416 194.288 51.9827 192.763 51.116C191.237 50.2147 190.059 48.9667 189.227 47.372C188.395 45.7427 187.979 43.8533 187.979 41.704V26.312H193.907V41.236C193.907 43.316 194.409 44.8587 195.415 45.864C196.455 46.8693 197.911 47.372 199.783 47.372C201.897 47.372 203.561 46.6787 204.775 45.292C206.023 43.9053 206.647 41.912 206.647 39.312V26.312H212.575V56.888C212.575 58.5867 212.089 59.9213 211.119 60.892C210.148 61.8973 208.831 62.4 207.167 62.4H191.047ZM243.209 52C241.545 52 240.21 51.5147 239.205 50.544C238.234 49.5387 237.749 48.1867 237.749 46.488V31.252H231.041V26.312H237.749V18.044H243.729V26.312H251.113V31.252H243.729V45.5C243.729 46.54 244.214 47.06 245.185 47.06H250.333V52H243.209ZM268.452 52.728C265.887 52.728 263.582 52.208 261.536 51.168C259.526 50.0933 257.931 48.5853 256.752 46.644C255.608 44.668 255.036 42.3107 255.036 39.572V38.74C255.036 36.0013 255.608 33.644 256.752 31.668C257.931 29.692 259.526 28.184 261.536 27.144C263.582 26.104 265.887 25.584 268.452 25.584C271.018 25.584 273.306 26.104 275.316 27.144C277.327 28.184 278.904 29.692 280.048 31.668C281.227 33.644 281.816 36.0013 281.816 38.74V39.572C281.816 42.3107 281.227 44.668 280.048 46.644C278.904 48.5853 277.327 50.0933 275.316 51.168C273.306 52.208 271.018 52.728 268.452 52.728ZM268.452 47.424C270.636 47.424 272.422 46.7307 273.808 45.344C275.195 43.9227 275.888 41.9467 275.888 39.416V38.896C275.888 36.3653 275.195 34.4067 273.808 33.02C272.422 31.5987 270.636 30.888 268.452 30.888C266.268 30.888 264.483 31.5987 263.096 33.02C261.71 34.4067 261.016 36.3653 261.016 38.896V39.416C261.016 41.9467 261.71 43.9227 263.096 45.344C264.483 46.7307 266.268 47.424 268.452 47.424ZM288.175 52V15.6H294.155V36.036H295.039L304.295 26.312H312.147L299.719 38.74L312.563 52H304.815L295.039 41.548H294.155V52H288.175ZM327.4 52.728C324.834 52.728 322.564 52.1907 320.588 51.116C318.646 50.0067 317.121 48.464 316.012 46.488C314.937 44.4773 314.4 42.1373 314.4 39.468V38.844C314.4 36.14 314.937 33.8 316.012 31.824C317.086 29.848 318.594 28.3227 320.536 27.248C322.477 26.1387 324.713 25.584 327.244 25.584C329.74 25.584 331.924 26.1387 333.796 27.248C335.668 28.3227 337.124 29.848 338.164 31.824C339.204 33.8 339.724 36.1053 339.724 38.74V40.872H320.432C320.501 42.8827 321.212 44.4947 322.564 45.708C323.916 46.9213 325.58 47.528 327.556 47.528C329.497 47.528 330.936 47.112 331.872 46.28C332.808 45.4133 333.518 44.4427 334.004 43.368L338.944 45.916C338.458 46.852 337.748 47.8573 336.812 48.932C335.91 49.972 334.697 50.8733 333.172 51.636C331.646 52.364 329.722 52.728 327.4 52.728ZM320.484 36.348H333.64C333.501 34.6493 332.842 33.2973 331.664 32.292C330.52 31.2867 329.029 30.784 327.192 30.784C325.285 30.784 323.76 31.2867 322.616 32.292C321.472 33.2973 320.761 34.6493 320.484 36.348ZM345.862 52V26.312H351.738V29.9H352.622C353.073 28.9293 353.888 28.0107 355.066 27.144C356.245 26.2773 358.03 25.844 360.422 25.844C362.398 25.844 364.149 26.2947 365.674 27.196C367.2 28.0973 368.378 29.3453 369.21 30.94C370.077 32.5347 370.51 34.424 370.51 36.608V52H364.53V37.076C364.53 34.996 364.01 33.4533 362.97 32.448C361.965 31.408 360.526 30.888 358.654 30.888C356.54 30.888 354.876 31.5987 353.662 33.02C352.449 34.4067 351.842 36.4 351.842 39V52H345.862ZM407.333 64.636C403.589 64.636 400.434 63.9773 397.869 62.66C395.303 61.3773 393.345 59.3667 391.993 56.628C390.675 53.924 390.017 50.4747 390.017 46.28V31.2C390.017 26.9707 390.675 23.504 391.993 20.8C393.345 18.096 395.303 16.1027 397.869 14.82C400.434 13.5027 403.589 12.844 407.333 12.844V17.94C403.45 17.94 400.555 19.032 398.649 21.216C396.742 23.4 395.789 26.8147 395.789 31.46V46.02C395.789 50.6307 396.742 54.028 398.649 56.212C400.555 58.4307 403.45 59.54 407.333 59.54V64.636ZM410.119 52V46.488H415.007V21.112H410.119V15.6H424.939C429.792 15.6 433.501 16.8307 436.067 19.292C438.632 21.7533 439.915 25.4453 439.915 30.368V37.232C439.915 42.1547 438.632 45.8467 436.067 48.308C433.501 50.7693 429.792 52 424.939 52H410.119ZM421.247 46.332H424.991C427.937 46.332 430.121 45.5693 431.543 44.044C432.964 42.5187 433.675 40.3173 433.675 37.44V30.212C433.675 27.2653 432.964 25.0467 431.543 23.556C430.121 22.0307 427.937 21.268 424.991 21.268H421.247V46.332ZM445.897 52V15.6H468.569V21.268H452.189V30.888H467.269V36.608H452.189V52H445.897ZM482.305 52V21.268H471.437V15.6H499.413V21.268H488.545V52H482.305ZM513.707 52V39.156L501.175 15.6H508.195L516.411 31.668H517.295L525.511 15.6H532.479L519.947 39.156V52H513.707ZM533.108 64.636V59.54C536.991 59.54 539.868 58.4307 541.74 56.212C543.647 54.028 544.6 50.6307 544.6 46.02V31.46C544.6 26.8147 543.647 23.4 541.74 21.216C539.868 19.032 536.991 17.94 533.108 17.94V12.844C536.852 12.844 540.007 13.5027 542.572 14.82C545.137 16.1027 547.079 18.096 548.396 20.8C549.713 23.504 550.372 26.9707 550.372 31.2V46.28C550.372 50.4747 549.713 53.924 548.396 56.628C547.079 59.3667 545.137 61.3773 542.572 62.66C540.007 63.9773 536.852 64.636 533.108 64.636ZM570.163 52V15.6H576.143V29.692H577.027C577.305 29.1027 577.755 28.5133 578.379 27.924C579.003 27.3347 579.818 26.8493 580.823 26.468C581.863 26.0867 583.163 25.896 584.723 25.896C586.699 25.896 588.45 26.3467 589.975 27.248C591.501 28.1147 592.679 29.3453 593.511 30.94C594.378 32.5347 594.811 34.424 594.811 36.608V52H588.831V37.076C588.831 34.996 588.311 33.4533 587.271 32.448C586.266 31.408 584.827 30.888 582.955 30.888C580.841 30.888 579.177 31.5987 577.963 33.02C576.75 34.4067 576.143 36.4 576.143 39V52H570.163ZM610.111 52.728C608.309 52.728 606.679 52.416 605.223 51.792C603.767 51.1333 602.606 50.1973 601.739 48.984C600.907 47.7707 600.491 46.28 600.491 44.512C600.491 42.7787 600.907 41.3227 601.739 40.144C602.606 38.9653 603.785 38.0813 605.275 37.492C606.766 36.868 608.465 36.556 610.371 36.556H617.807V34.996C617.807 33.644 617.391 32.552 616.559 31.72C615.727 30.8533 614.427 30.42 612.659 30.42C610.926 30.42 609.609 30.836 608.707 31.668C607.841 32.4653 607.269 33.5053 606.991 34.788L601.479 32.968C601.895 31.616 602.554 30.3853 603.455 29.276C604.391 28.1667 605.622 27.2827 607.147 26.624C608.673 25.9307 610.545 25.584 612.763 25.584C616.126 25.584 618.761 26.4333 620.667 28.132C622.609 29.796 623.579 32.2227 623.579 35.412V45.5C623.579 46.54 624.065 47.06 625.035 47.06H627.219V52H623.007C621.759 52 620.737 51.688 619.939 51.064C619.142 50.44 618.743 49.5907 618.743 48.516V48.412H617.859C617.651 48.8973 617.287 49.4867 616.767 50.18C616.247 50.8733 615.45 51.48 614.375 52C613.335 52.4853 611.914 52.728 610.111 52.728ZM611.099 47.84C613.075 47.84 614.687 47.2853 615.935 46.176C617.183 45.032 617.807 43.5067 617.807 41.6V41.08H610.735C609.453 41.08 608.413 41.3573 607.615 41.912C606.818 42.4667 606.419 43.2813 606.419 44.356C606.419 45.396 606.835 46.2453 607.667 46.904C608.499 47.528 609.643 47.84 611.099 47.84ZM642.572 52.728C639.244 52.728 636.505 52 634.356 50.544C632.207 49.088 630.907 46.956 630.456 44.148L635.968 42.744C636.211 44.0613 636.644 45.1013 637.268 45.864C637.892 46.6267 638.655 47.164 639.556 47.476C640.492 47.788 641.497 47.944 642.572 47.944C644.201 47.944 645.415 47.6493 646.212 47.06C647.044 46.4707 647.46 45.7253 647.46 44.824C647.46 43.888 647.061 43.1947 646.264 42.744C645.501 42.2933 644.323 41.912 642.728 41.6L641.116 41.34C639.348 40.9933 637.736 40.5253 636.28 39.936C634.824 39.312 633.645 38.48 632.744 37.44C631.877 36.3653 631.444 35.0133 631.444 33.384C631.444 30.888 632.363 28.964 634.2 27.612C636.072 26.26 638.516 25.584 641.532 25.584C644.409 25.584 646.784 26.2253 648.656 27.508C650.528 28.7907 651.741 30.5067 652.296 32.656L646.784 34.32C646.507 32.864 645.9 31.8413 644.964 31.252C644.028 30.628 642.884 30.316 641.532 30.316C640.145 30.316 639.071 30.5587 638.308 31.044C637.58 31.5293 637.216 32.2227 637.216 33.124C637.216 34.0253 637.597 34.7013 638.36 35.152C639.123 35.6027 640.145 35.932 641.428 36.14L643.04 36.452C644.947 36.7987 646.663 37.2493 648.188 37.804C649.748 38.3587 650.979 39.156 651.88 40.196C652.781 41.236 653.232 42.64 653.232 44.408C653.232 47.0773 652.261 49.14 650.32 50.596C648.413 52.0173 645.831 52.728 642.572 52.728ZM672.538 52V26.312H678.414V29.172H679.298C679.749 28.3053 680.494 27.5427 681.534 26.884C682.609 26.1907 684.03 25.844 685.798 25.844C687.67 25.844 689.178 26.2253 690.322 26.988C691.466 27.7507 692.333 28.7213 692.922 29.9H693.754C694.344 28.7213 695.193 27.7507 696.302 26.988C697.412 26.2253 698.989 25.844 701.034 25.844C702.629 25.844 704.068 26.1907 705.35 26.884C706.668 27.5773 707.708 28.6 708.47 29.952C709.268 31.304 709.666 32.9853 709.666 34.996V52H703.686V35.412C703.686 33.9213 703.288 32.7947 702.49 32.032C701.693 31.2347 700.584 30.836 699.162 30.836C697.602 30.836 696.354 31.356 695.418 32.396C694.517 33.4013 694.066 34.8573 694.066 36.764V52H688.138V35.412C688.138 33.9213 687.74 32.7947 686.942 32.032C686.145 31.2347 685.036 30.836 683.614 30.836C682.02 30.836 680.772 31.356 679.87 32.396C678.969 33.4013 678.518 34.8573 678.518 36.764V52H672.538ZM726.444 52.416C724.468 52.416 722.718 51.9827 721.192 51.116C719.667 50.2147 718.488 48.9667 717.656 47.372C716.824 45.7427 716.408 43.8533 716.408 41.704V26.312H722.336V41.236C722.336 43.316 722.839 44.8587 723.844 45.864C724.884 46.8693 726.34 47.372 728.212 47.372C730.327 47.372 731.991 46.6787 733.204 45.292C734.452 43.9053 735.076 41.912 735.076 39.312V26.312H741.004V52H735.18V48.412H734.296C733.846 49.348 733.014 50.2493 731.8 51.116C730.622 51.9827 728.836 52.416 726.444 52.416ZM748.609 52V15.6H754.589V52H748.609ZM771.943 52C770.279 52 768.944 51.5147 767.939 50.544C766.968 49.5387 766.483 48.1867 766.483 46.488V31.252H759.775V26.312H766.483V18.044H772.463V26.312H779.847V31.252H772.463V45.5C772.463 46.54 772.948 47.06 773.919 47.06H779.067V52H771.943ZM785.933 52V26.312H791.913V52H785.933ZM788.897 23.036C787.822 23.036 786.886 22.6893 786.089 21.996C785.326 21.268 784.945 20.3147 784.945 19.136C784.945 17.9573 785.326 17.0213 786.089 16.328C786.886 15.6 787.822 15.236 788.897 15.236C790.041 15.236 790.977 15.6 791.705 16.328C792.467 17.0213 792.849 17.9573 792.849 19.136C792.849 20.3147 792.467 21.268 791.705 21.996C790.977 22.6893 790.041 23.036 788.897 23.036ZM799.491 62.4V26.312H805.367V29.692H806.251C806.841 28.6173 807.777 27.664 809.059 26.832C810.377 26 812.249 25.584 814.675 25.584C816.755 25.584 818.679 26.104 820.447 27.144C822.25 28.1493 823.689 29.64 824.763 31.616C825.838 33.592 826.375 35.9667 826.375 38.74V39.572C826.375 42.3453 825.838 44.72 824.763 46.696C823.689 48.672 822.267 50.18 820.499 51.22C818.731 52.2253 816.79 52.728 814.675 52.728C813.046 52.728 811.677 52.5373 810.567 52.156C809.493 51.7747 808.609 51.272 807.915 50.648C807.257 50.024 806.737 49.4 806.355 48.776H805.471V62.4H799.491ZM812.907 47.528C815.091 47.528 816.877 46.8347 818.263 45.448C819.685 44.0267 820.395 42.016 820.395 39.416V38.896C820.395 36.2613 819.685 34.2507 818.263 32.864C816.842 31.4773 815.057 30.784 812.907 30.784C810.758 30.784 808.955 31.4773 807.499 32.864C806.078 34.2507 805.367 36.2613 805.367 38.896V39.416C805.367 42.016 806.078 44.0267 807.499 45.448C808.955 46.8347 810.758 47.528 812.907 47.528ZM832.702 52V15.6H838.682V52H832.702ZM858.013 52.728C855.448 52.728 853.177 52.1907 851.201 51.116C849.26 50.0067 847.734 48.464 846.625 46.488C845.55 44.4773 845.013 42.1373 845.013 39.468V38.844C845.013 36.14 845.55 33.8 846.625 31.824C847.7 29.848 849.208 28.3227 851.149 27.248C853.09 26.1387 855.326 25.584 857.857 25.584C860.353 25.584 862.537 26.1387 864.409 27.248C866.281 28.3227 867.737 29.848 868.777 31.824C869.817 33.8 870.337 36.1053 870.337 38.74V40.872H851.045C851.114 42.8827 851.825 44.4947 853.177 45.708C854.529 46.9213 856.193 47.528 858.169 47.528C860.11 47.528 861.549 47.112 862.485 46.28C863.421 45.4133 864.132 44.4427 864.617 43.368L869.557 45.916C869.072 46.852 868.361 47.8573 867.425 48.932C866.524 49.972 865.31 50.8733 863.785 51.636C862.26 52.364 860.336 52.728 858.013 52.728ZM851.097 36.348H864.253C864.114 34.6493 863.456 33.2973 862.277 32.292C861.133 31.2867 859.642 30.784 857.805 30.784C855.898 30.784 854.373 31.2867 853.229 32.292C852.085 33.2973 851.374 34.6493 851.097 36.348ZM899.558 52.416C897.582 52.416 895.831 51.9827 894.306 51.116C892.78 50.2147 891.602 48.9667 890.77 47.372C889.938 45.7427 889.522 43.8533 889.522 41.704V26.312H895.45V41.236C895.45 43.316 895.952 44.8587 896.958 45.864C897.998 46.8693 899.454 47.372 901.326 47.372C903.44 47.372 905.104 46.6787 906.318 45.292C907.566 43.9053 908.19 41.912 908.19 39.312V26.312H914.118V52H908.294V48.412H907.41C906.959 49.348 906.127 50.2493 904.914 51.116C903.735 51.9827 901.95 52.416 899.558 52.416ZM932.33 52.728C929.002 52.728 926.263 52 924.114 50.544C921.964 49.088 920.664 46.956 920.214 44.148L925.726 42.744C925.968 44.0613 926.402 45.1013 927.026 45.864C927.65 46.6267 928.412 47.164 929.314 47.476C930.25 47.788 931.255 47.944 932.33 47.944C933.959 47.944 935.172 47.6493 935.97 47.06C936.802 46.4707 937.218 45.7253 937.218 44.824C937.218 43.888 936.819 43.1947 936.022 42.744C935.259 42.2933 934.08 41.912 932.486 41.6L930.874 41.34C929.106 40.9933 927.494 40.5253 926.038 39.936C924.582 39.312 923.403 38.48 922.502 37.44C921.635 36.3653 921.202 35.0133 921.202 33.384C921.202 30.888 922.12 28.964 923.958 27.612C925.83 26.26 928.274 25.584 931.29 25.584C934.167 25.584 936.542 26.2253 938.414 27.508C940.286 28.7907 941.499 30.5067 942.054 32.656L936.542 34.32C936.264 32.864 935.658 31.8413 934.722 31.252C933.786 30.628 932.642 30.316 931.29 30.316C929.903 30.316 928.828 30.5587 928.066 31.044C927.338 31.5293 926.974 32.2227 926.974 33.124C926.974 34.0253 927.355 34.7013 928.118 35.152C928.88 35.6027 929.903 35.932 931.186 36.14L932.798 36.452C934.704 36.7987 936.42 37.2493 937.946 37.804C939.506 38.3587 940.736 39.156 941.638 40.196C942.539 41.236 942.99 42.64 942.99 44.408C942.99 47.0773 942.019 49.14 940.078 50.596C938.171 52.0173 935.588 52.728 932.33 52.728ZM960.794 52.728C958.229 52.728 955.958 52.1907 953.982 51.116C952.041 50.0067 950.515 48.464 949.406 46.488C948.331 44.4773 947.794 42.1373 947.794 39.468V38.844C947.794 36.14 948.331 33.8 949.406 31.824C950.481 29.848 951.989 28.3227 953.93 27.248C955.871 26.1387 958.107 25.584 960.638 25.584C963.134 25.584 965.318 26.1387 967.19 27.248C969.062 28.3227 970.518 29.848 971.558 31.824C972.598 33.8 973.118 36.1053 973.118 38.74V40.872H953.826C953.895 42.8827 954.606 44.4947 955.958 45.708C957.31 46.9213 958.974 47.528 960.95 47.528C962.891 47.528 964.33 47.112 965.266 46.28C966.202 45.4133 966.913 44.4427 967.398 43.368L972.338 45.916C971.853 46.852 971.142 47.8573 970.206 48.932C969.305 49.972 968.091 50.8733 966.566 51.636C965.041 52.364 963.117 52.728 960.794 52.728ZM953.878 36.348H967.034C966.895 34.6493 966.237 33.2973 965.058 32.292C963.914 31.2867 962.423 30.784 960.586 30.784C958.679 30.784 957.154 31.2867 956.01 32.292C954.866 33.2973 954.155 34.6493 953.878 36.348ZM1004.52 52.728C1002.03 52.728 999.774 52.208 997.763 51.168C995.752 50.128 994.158 48.62 992.979 46.644C991.835 44.668 991.263 42.2933 991.263 39.52V38.792C991.263 36.0187 991.835 33.644 992.979 31.668C994.158 29.692 995.752 28.184 997.763 27.144C999.774 26.104 1002.03 25.584 1004.52 25.584C1006.98 25.584 1009.08 26.0173 1010.81 26.884C1012.58 27.7507 1014 28.9467 1015.08 30.472C1016.15 31.9627 1016.85 33.644 1017.16 35.516L1011.39 36.712C1011.25 35.6373 1010.92 34.6667 1010.4 33.8C1009.88 32.8987 1009.13 32.188 1008.16 31.668C1007.23 31.148 1006.07 30.888 1004.68 30.888C1003.26 30.888 1001.97 31.2 1000.83 31.824C999.722 32.4133 998.838 33.3147 998.179 34.528C997.555 35.7413 997.243 37.1973 997.243 38.896V39.416C997.243 41.1147 997.555 42.5707 998.179 43.784C998.838 44.9627 999.722 45.864 1000.83 46.488C1001.97 47.112 1003.26 47.424 1004.68 47.424C1006.79 47.424 1008.39 46.8867 1009.46 45.812C1010.57 44.7027 1011.27 43.2813 1011.54 41.548L1017.31 42.9C1016.9 44.7027 1016.15 46.3493 1015.08 47.84C1014 49.3307 1012.58 50.5267 1010.81 51.428C1009.08 52.2947 1006.98 52.728 1004.52 52.728ZM1031.09 52.728C1029.29 52.728 1027.66 52.416 1026.2 51.792C1024.74 51.1333 1023.58 50.1973 1022.72 48.984C1021.88 47.7707 1021.47 46.28 1021.47 44.512C1021.47 42.7787 1021.88 41.3227 1022.72 40.144C1023.58 38.9653 1024.76 38.0813 1026.25 37.492C1027.74 36.868 1029.44 36.556 1031.35 36.556H1038.78V34.996C1038.78 33.644 1038.37 32.552 1037.54 31.72C1036.7 30.8533 1035.4 30.42 1033.64 30.42C1031.9 30.42 1030.59 30.836 1029.68 31.668C1028.82 32.4653 1028.25 33.5053 1027.97 34.788L1022.46 32.968C1022.87 31.616 1023.53 30.3853 1024.43 29.276C1025.37 28.1667 1026.6 27.2827 1028.12 26.624C1029.65 25.9307 1031.52 25.584 1033.74 25.584C1037.1 25.584 1039.74 26.4333 1041.64 28.132C1043.59 29.796 1044.56 32.2227 1044.56 35.412V45.5C1044.56 46.54 1045.04 47.06 1046.01 47.06H1048.2V52H1043.98C1042.74 52 1041.71 51.688 1040.92 51.064C1040.12 50.44 1039.72 49.5907 1039.72 48.516V48.412H1038.84C1038.63 48.8973 1038.26 49.4867 1037.74 50.18C1037.22 50.8733 1036.43 51.48 1035.35 52C1034.31 52.4853 1032.89 52.728 1031.09 52.728ZM1032.08 47.84C1034.05 47.84 1035.66 47.2853 1036.91 46.176C1038.16 45.032 1038.78 43.5067 1038.78 41.6V41.08H1031.71C1030.43 41.08 1029.39 41.3573 1028.59 41.912C1027.79 42.4667 1027.4 43.2813 1027.4 44.356C1027.4 45.396 1027.81 46.2453 1028.64 46.904C1029.48 47.528 1030.62 47.84 1032.08 47.84ZM1063.55 52.728C1060.22 52.728 1057.48 52 1055.33 50.544C1053.18 49.088 1051.88 46.956 1051.43 44.148L1056.94 42.744C1057.19 44.0613 1057.62 45.1013 1058.24 45.864C1058.87 46.6267 1059.63 47.164 1060.53 47.476C1061.47 47.788 1062.47 47.944 1063.55 47.944C1065.18 47.944 1066.39 47.6493 1067.19 47.06C1068.02 46.4707 1068.44 45.7253 1068.44 44.824C1068.44 43.888 1068.04 43.1947 1067.24 42.744C1066.48 42.2933 1065.3 41.912 1063.7 41.6L1062.09 41.34C1060.32 40.9933 1058.71 40.5253 1057.26 39.936C1055.8 39.312 1054.62 38.48 1053.72 37.44C1052.85 36.3653 1052.42 35.0133 1052.42 33.384C1052.42 30.888 1053.34 28.964 1055.18 27.612C1057.05 26.26 1059.49 25.584 1062.51 25.584C1065.39 25.584 1067.76 26.2253 1069.63 27.508C1071.5 28.7907 1072.72 30.5067 1073.27 32.656L1067.76 34.32C1067.48 32.864 1066.88 31.8413 1065.94 31.252C1065 30.628 1063.86 30.316 1062.51 30.316C1061.12 30.316 1060.05 30.5587 1059.28 31.044C1058.56 31.5293 1058.19 32.2227 1058.19 33.124C1058.19 34.0253 1058.57 34.7013 1059.34 35.152C1060.1 35.6027 1061.12 35.932 1062.4 36.14L1064.02 36.452C1065.92 36.7987 1067.64 37.2493 1069.16 37.804C1070.72 38.3587 1071.96 39.156 1072.86 40.196C1073.76 41.236 1074.21 42.64 1074.21 44.408C1074.21 47.0773 1073.24 49.14 1071.3 50.596C1069.39 52.0173 1066.81 52.728 1063.55 52.728ZM1092.01 52.728C1089.45 52.728 1087.18 52.1907 1085.2 51.116C1083.26 50.0067 1081.73 48.464 1080.62 46.488C1079.55 44.4773 1079.01 42.1373 1079.01 39.468V38.844C1079.01 36.14 1079.55 33.8 1080.62 31.824C1081.7 29.848 1083.21 28.3227 1085.15 27.248C1087.09 26.1387 1089.33 25.584 1091.86 25.584C1094.35 25.584 1096.54 26.1387 1098.41 27.248C1100.28 28.3227 1101.74 29.848 1102.78 31.824C1103.82 33.8 1104.34 36.1053 1104.34 38.74V40.872H1085.04C1085.11 42.8827 1085.82 44.4947 1087.18 45.708C1088.53 46.9213 1090.19 47.528 1092.17 47.528C1094.11 47.528 1095.55 47.112 1096.48 46.28C1097.42 45.4133 1098.13 44.4427 1098.62 43.368L1103.56 45.916C1103.07 46.852 1102.36 47.8573 1101.42 48.932C1100.52 49.972 1099.31 50.8733 1097.78 51.636C1096.26 52.364 1094.34 52.728 1092.01 52.728ZM1085.1 36.348H1098.25C1098.11 34.6493 1097.46 33.2973 1096.28 32.292C1095.13 31.2867 1093.64 30.784 1091.8 30.784C1089.9 30.784 1088.37 31.2867 1087.23 32.292C1086.08 33.2973 1085.37 34.6493 1085.1 36.348ZM1121.08 52.728C1117.76 52.728 1115.02 52 1112.87 50.544C1110.72 49.088 1109.42 46.956 1108.97 44.148L1114.48 42.744C1114.72 44.0613 1115.16 45.1013 1115.78 45.864C1116.4 46.6267 1117.17 47.164 1118.07 47.476C1119 47.788 1120.01 47.944 1121.08 47.944C1122.71 47.944 1123.93 47.6493 1124.72 47.06C1125.56 46.4707 1125.97 45.7253 1125.97 44.824C1125.97 43.888 1125.57 43.1947 1124.78 42.744C1124.01 42.2933 1122.83 41.912 1121.24 41.6L1119.63 41.34C1117.86 40.9933 1116.25 40.5253 1114.79 39.936C1113.34 39.312 1112.16 38.48 1111.26 37.44C1110.39 36.3653 1109.96 35.0133 1109.96 33.384C1109.96 30.888 1110.87 28.964 1112.71 27.612C1114.58 26.26 1117.03 25.584 1120.04 25.584C1122.92 25.584 1125.3 26.2253 1127.17 27.508C1129.04 28.7907 1130.25 30.5067 1130.81 32.656L1125.3 34.32C1125.02 32.864 1124.41 31.8413 1123.48 31.252C1122.54 30.628 1121.4 30.316 1120.04 30.316C1118.66 30.316 1117.58 30.5587 1116.82 31.044C1116.09 31.5293 1115.73 32.2227 1115.73 33.124C1115.73 34.0253 1116.11 34.7013 1116.87 35.152C1117.63 35.6027 1118.66 35.932 1119.94 36.14L1121.55 36.452C1123.46 36.7987 1125.17 37.2493 1126.7 37.804C1128.26 38.3587 1129.49 39.156 1130.39 40.196C1131.29 41.236 1131.74 42.64 1131.74 44.408C1131.74 47.0773 1130.77 49.14 1128.83 50.596C1126.93 52.0173 1124.34 52.728 1121.08 52.728ZM498.799 120.728C496.996 120.728 495.367 120.416 493.911 119.792C492.455 119.133 491.294 118.197 490.427 116.984C489.595 115.771 489.179 114.28 489.179 112.512C489.179 110.779 489.595 109.323 490.427 108.144C491.294 106.965 492.472 106.081 493.963 105.492C495.454 104.868 497.152 104.556 499.059 104.556H506.495V102.996C506.495 101.644 506.079 100.552 505.247 99.72C504.415 98.8533 503.115 98.42 501.347 98.42C499.614 98.42 498.296 98.836 497.395 99.668C496.528 100.465 495.956 101.505 495.679 102.788L490.167 100.968C490.583 99.616 491.242 98.3853 492.143 97.276C493.079 96.1667 494.31 95.2827 495.835 94.624C497.36 93.9307 499.232 93.584 501.451 93.584C504.814 93.584 507.448 94.4333 509.355 96.132C511.296 97.796 512.267 100.223 512.267 103.412V113.5C512.267 114.54 512.752 115.06 513.723 115.06H515.907V120H511.695C510.447 120 509.424 119.688 508.627 119.064C507.83 118.44 507.431 117.591 507.431 116.516V116.412H506.547C506.339 116.897 505.975 117.487 505.455 118.18C504.935 118.873 504.138 119.48 503.063 120C502.023 120.485 500.602 120.728 498.799 120.728ZM499.787 115.84C501.763 115.84 503.375 115.285 504.623 114.176C505.871 113.032 506.495 111.507 506.495 109.6V109.08H499.423C498.14 109.08 497.1 109.357 496.303 109.912C495.506 110.467 495.107 111.281 495.107 112.356C495.107 113.396 495.523 114.245 496.355 114.904C497.187 115.528 498.331 115.84 499.787 115.84ZM532.308 120.728C529.812 120.728 527.559 120.208 525.548 119.168C523.537 118.128 521.943 116.62 520.764 114.644C519.62 112.668 519.048 110.293 519.048 107.52V106.792C519.048 104.019 519.62 101.644 520.764 99.668C521.943 97.692 523.537 96.184 525.548 95.144C527.559 94.104 529.812 93.584 532.308 93.584C534.769 93.584 536.867 94.0173 538.6 94.884C540.368 95.7507 541.789 96.9467 542.864 98.472C543.939 99.9627 544.632 101.644 544.944 103.516L539.172 104.712C539.033 103.637 538.704 102.667 538.184 101.8C537.664 100.899 536.919 100.188 535.948 99.668C535.012 99.148 533.851 98.888 532.464 98.888C531.043 98.888 529.76 99.2 528.616 99.824C527.507 100.413 526.623 101.315 525.964 102.528C525.34 103.741 525.028 105.197 525.028 106.896V107.416C525.028 109.115 525.34 110.571 525.964 111.784C526.623 112.963 527.507 113.864 528.616 114.488C529.76 115.112 531.043 115.424 532.464 115.424C534.579 115.424 536.173 114.887 537.248 113.812C538.357 112.703 539.051 111.281 539.328 109.548L545.1 110.9C544.684 112.703 543.939 114.349 542.864 115.84C541.789 117.331 540.368 118.527 538.6 119.428C536.867 120.295 534.769 120.728 532.308 120.728ZM550.917 120V94.312H556.793V97.276H557.677C558.058 96.2013 558.7 95.4213 559.601 94.936C560.502 94.4507 561.577 94.208 562.825 94.208H565.945V99.512H562.721C560.988 99.512 559.584 99.98 558.509 100.916C557.434 101.817 556.897 103.221 556.897 105.128V120H550.917ZM582.484 120.728C579.918 120.728 577.613 120.208 575.568 119.168C573.557 118.093 571.962 116.585 570.784 114.644C569.64 112.668 569.068 110.311 569.068 107.572V106.74C569.068 104.001 569.64 101.644 570.784 99.668C571.962 97.692 573.557 96.184 575.568 95.144C577.613 94.104 579.918 93.584 582.484 93.584C585.049 93.584 587.337 94.104 589.348 95.144C591.358 96.184 592.936 97.692 594.08 99.668C595.258 101.644 595.848 104.001 595.848 106.74V107.572C595.848 110.311 595.258 112.668 594.08 114.644C592.936 116.585 591.358 118.093 589.348 119.168C587.337 120.208 585.049 120.728 582.484 120.728ZM582.484 115.424C584.668 115.424 586.453 114.731 587.84 113.344C589.226 111.923 589.92 109.947 589.92 107.416V106.896C589.92 104.365 589.226 102.407 587.84 101.02C586.453 99.5987 584.668 98.888 582.484 98.888C580.3 98.888 578.514 99.5987 577.128 101.02C575.741 102.407 575.048 104.365 575.048 106.896V107.416C575.048 109.947 575.741 111.923 577.128 113.344C578.514 114.731 580.3 115.424 582.484 115.424ZM612.814 120.728C609.486 120.728 606.747 120 604.598 118.544C602.449 117.088 601.149 114.956 600.698 112.148L606.21 110.744C606.453 112.061 606.886 113.101 607.51 113.864C608.134 114.627 608.897 115.164 609.798 115.476C610.734 115.788 611.739 115.944 612.814 115.944C614.443 115.944 615.657 115.649 616.454 115.06C617.286 114.471 617.702 113.725 617.702 112.824C617.702 111.888 617.303 111.195 616.506 110.744C615.743 110.293 614.565 109.912 612.97 109.6L611.358 109.34C609.59 108.993 607.978 108.525 606.522 107.936C605.066 107.312 603.887 106.48 602.986 105.44C602.119 104.365 601.686 103.013 601.686 101.384C601.686 98.888 602.605 96.964 604.442 95.612C606.314 94.26 608.758 93.584 611.774 93.584C614.651 93.584 617.026 94.2253 618.898 95.508C620.77 96.7907 621.983 98.5067 622.538 100.656L617.026 102.32C616.749 100.864 616.142 99.8413 615.206 99.252C614.27 98.628 613.126 98.316 611.774 98.316C610.387 98.316 609.313 98.5587 608.55 99.044C607.822 99.5293 607.458 100.223 607.458 101.124C607.458 102.025 607.839 102.701 608.602 103.152C609.365 103.603 610.387 103.932 611.67 104.14L613.282 104.452C615.189 104.799 616.905 105.249 618.43 105.804C619.99 106.359 621.221 107.156 622.122 108.196C623.023 109.236 623.474 110.64 623.474 112.408C623.474 115.077 622.503 117.14 620.562 118.596C618.655 120.017 616.073 120.728 612.814 120.728ZM640.134 120.728C636.806 120.728 634.068 120 631.918 118.544C629.769 117.088 628.469 114.956 628.018 112.148L633.53 110.744C633.773 112.061 634.206 113.101 634.83 113.864C635.454 114.627 636.217 115.164 637.118 115.476C638.054 115.788 639.06 115.944 640.134 115.944C641.764 115.944 642.977 115.649 643.774 115.06C644.606 114.471 645.022 113.725 645.022 112.824C645.022 111.888 644.624 111.195 643.826 110.744C643.064 110.293 641.885 109.912 640.29 109.6L638.678 109.34C636.91 108.993 635.298 108.525 633.842 107.936C632.386 107.312 631.208 106.48 630.306 105.44C629.44 104.365 629.006 103.013 629.006 101.384C629.006 98.888 629.925 96.964 631.762 95.612C633.634 94.26 636.078 93.584 639.094 93.584C641.972 93.584 644.346 94.2253 646.218 95.508C648.09 96.7907 649.304 98.5067 649.858 100.656L644.346 102.32C644.069 100.864 643.462 99.8413 642.526 99.252C641.59 98.628 640.446 98.316 639.094 98.316C637.708 98.316 636.633 98.5587 635.87 99.044C635.142 99.5293 634.778 100.223 634.778 101.124C634.778 102.025 635.16 102.701 635.922 103.152C636.685 103.603 637.708 103.932 638.99 104.14L640.602 104.452C642.509 104.799 644.225 105.249 645.75 105.804C647.31 106.359 648.541 107.156 649.442 108.196C650.344 109.236 650.794 110.64 650.794 112.408C650.794 115.077 649.824 117.14 647.882 118.596C645.976 120.017 643.393 120.728 640.134 120.728ZM668.697 120V114.488H673.585V89.112H668.697V83.6H683.517C688.37 83.6 692.079 84.8307 694.645 87.292C697.21 89.7533 698.493 93.4453 698.493 98.368V105.232C698.493 110.155 697.21 113.847 694.645 116.308C692.079 118.769 688.37 120 683.517 120H668.697ZM679.825 114.332H683.569C686.515 114.332 688.699 113.569 690.121 112.044C691.542 110.519 692.253 108.317 692.253 105.44V98.212C692.253 95.2653 691.542 93.0467 690.121 91.556C688.699 90.0307 686.515 89.268 683.569 89.268H679.825V114.332ZM716.435 120.728C713.869 120.728 711.599 120.191 709.623 119.116C707.681 118.007 706.156 116.464 705.047 114.488C703.972 112.477 703.435 110.137 703.435 107.468V106.844C703.435 104.14 703.972 101.8 705.047 99.824C706.121 97.848 707.629 96.3227 709.571 95.248C711.512 94.1387 713.748 93.584 716.279 93.584C718.775 93.584 720.959 94.1387 722.831 95.248C724.703 96.3227 726.159 97.848 727.199 99.824C728.239 101.8 728.759 104.105 728.759 106.74V108.872H709.467C709.536 110.883 710.247 112.495 711.599 113.708C712.951 114.921 714.615 115.528 716.591 115.528C718.532 115.528 719.971 115.112 720.907 114.28C721.843 113.413 722.553 112.443 723.039 111.368L727.979 113.916C727.493 114.852 726.783 115.857 725.847 116.932C724.945 117.972 723.732 118.873 722.207 119.636C720.681 120.364 718.757 120.728 716.435 120.728ZM709.519 104.348H722.675C722.536 102.649 721.877 101.297 720.699 100.292C719.555 99.2867 718.064 98.784 716.227 98.784C714.32 98.784 712.795 99.2867 711.651 100.292C710.507 101.297 709.796 102.649 709.519 104.348ZM738.506 120V99.252H731.642V94.312H738.506V89.112C738.506 87.4133 738.992 86.0787 739.962 85.108C740.968 84.1027 742.285 83.6 743.914 83.6H750.57V88.54H745.89C744.92 88.54 744.434 89.06 744.434 90.1V94.312H751.506V99.252H744.434V120H738.506ZM765.9 120C764.236 120 762.901 119.515 761.896 118.544C760.925 117.539 760.44 116.187 760.44 114.488V99.252H753.732V94.312H760.44V86.044H766.42V94.312H773.804V99.252H766.42V113.5C766.42 114.54 766.905 115.06 767.876 115.06H773.024V120H765.9ZM779.89 120V94.312H785.87V120H779.89ZM782.854 91.036C781.779 91.036 780.843 90.6893 780.046 89.996C779.283 89.268 778.902 88.3147 778.902 87.136C778.902 85.9573 779.283 85.0213 780.046 84.328C780.843 83.6 781.779 83.236 782.854 83.236C783.998 83.236 784.934 83.6 785.662 84.328C786.424 85.0213 786.806 85.9573 786.806 87.136C786.806 88.3147 786.424 89.268 785.662 89.996C784.934 90.6893 783.998 91.036 782.854 91.036ZM797.92 120V99.252H791.056V94.312H797.92V89.112C797.92 87.4133 798.406 86.0787 799.376 85.108C800.382 84.1027 801.699 83.6 803.328 83.6H809.984V88.54H805.304C804.334 88.54 803.848 89.06 803.848 90.1V94.312H810.92V99.252H803.848V120H797.92ZM819.008 130.4V125.2H833.204C834.174 125.2 834.66 124.68 834.66 123.64V116.464H833.776C833.498 117.088 833.048 117.712 832.424 118.336C831.8 118.925 830.968 119.428 829.928 119.844C828.888 120.225 827.57 120.416 825.976 120.416C824 120.416 822.249 119.983 820.724 119.116C819.198 118.215 818.02 116.967 817.188 115.372C816.356 113.743 815.94 111.853 815.94 109.704V94.312H821.868V109.236C821.868 111.316 822.37 112.859 823.376 113.864C824.416 114.869 825.872 115.372 827.744 115.372C829.858 115.372 831.522 114.679 832.736 113.292C833.984 111.905 834.608 109.912 834.608 107.312V94.312H840.536V124.888C840.536 126.587 840.05 127.921 839.08 128.892C838.109 129.897 836.792 130.4 835.128 130.4H819.008ZM873.146 120.728C870.58 120.728 868.31 120.191 866.334 119.116C864.392 118.007 862.867 116.464 861.758 114.488C860.683 112.477 860.146 110.137 860.146 107.468V106.844C860.146 104.14 860.683 101.8 861.758 99.824C862.832 97.848 864.34 96.3227 866.282 95.248C868.223 94.1387 870.459 93.584 872.99 93.584C875.486 93.584 877.67 94.1387 879.542 95.248C881.414 96.3227 882.87 97.848 883.91 99.824C884.95 101.8 885.47 104.105 885.47 106.74V108.872H866.178C866.247 110.883 866.958 112.495 868.31 113.708C869.662 114.921 871.326 115.528 873.302 115.528C875.243 115.528 876.682 115.112 877.618 114.28C878.554 113.413 879.264 112.443 879.75 111.368L884.69 113.916C884.204 114.852 883.494 115.857 882.558 116.932C881.656 117.972 880.443 118.873 878.918 119.636C877.392 120.364 875.468 120.728 873.146 120.728ZM866.23 104.348H879.386C879.247 102.649 878.588 101.297 877.41 100.292C876.266 99.2867 874.775 98.784 872.938 98.784C871.031 98.784 869.506 99.2867 868.362 100.292C867.218 101.297 866.507 102.649 866.23 104.348ZM903.621 120.728C901.125 120.728 898.871 120.208 896.861 119.168C894.85 118.128 893.255 116.62 892.077 114.644C890.933 112.668 890.361 110.293 890.361 107.52V106.792C890.361 104.019 890.933 101.644 892.077 99.668C893.255 97.692 894.85 96.184 896.861 95.144C898.871 94.104 901.125 93.584 903.621 93.584C906.082 93.584 908.179 94.0173 909.913 94.884C911.681 95.7507 913.102 96.9467 914.177 98.472C915.251 99.9627 915.945 101.644 916.257 103.516L910.485 104.712C910.346 103.637 910.017 102.667 909.497 101.8C908.977 100.899 908.231 100.188 907.261 99.668C906.325 99.148 905.163 98.888 903.777 98.888C902.355 98.888 901.073 99.2 899.929 99.824C898.819 100.413 897.935 101.315 897.277 102.528C896.653 103.741 896.341 105.197 896.341 106.896V107.416C896.341 109.115 896.653 110.571 897.277 111.784C897.935 112.963 898.819 113.864 899.929 114.488C901.073 115.112 902.355 115.424 903.777 115.424C905.891 115.424 907.486 114.887 908.561 113.812C909.67 112.703 910.363 111.281 910.641 109.548L916.413 110.9C915.997 112.703 915.251 114.349 914.177 115.84C913.102 117.331 911.681 118.527 909.913 119.428C908.179 120.295 906.082 120.728 903.621 120.728ZM934.398 120.728C931.832 120.728 929.527 120.208 927.482 119.168C925.471 118.093 923.876 116.585 922.698 114.644C921.554 112.668 920.982 110.311 920.982 107.572V106.74C920.982 104.001 921.554 101.644 922.698 99.668C923.876 97.692 925.471 96.184 927.482 95.144C929.527 94.104 931.832 93.584 934.398 93.584C936.963 93.584 939.251 94.104 941.262 95.144C943.272 96.184 944.85 97.692 945.994 99.668C947.172 101.644 947.762 104.001 947.762 106.74V107.572C947.762 110.311 947.172 112.668 945.994 114.644C944.85 116.585 943.272 118.093 941.262 119.168C939.251 120.208 936.963 120.728 934.398 120.728ZM934.398 115.424C936.582 115.424 938.367 114.731 939.754 113.344C941.14 111.923 941.834 109.947 941.834 107.416V106.896C941.834 104.365 941.14 102.407 939.754 101.02C938.367 99.5987 936.582 98.888 934.398 98.888C932.214 98.888 930.428 99.5987 929.042 101.02C927.655 102.407 926.962 104.365 926.962 106.896V107.416C926.962 109.947 927.655 111.923 929.042 113.344C930.428 114.731 932.214 115.424 934.398 115.424ZM964.728 120.728C961.4 120.728 958.662 120 956.512 118.544C954.363 117.088 953.063 114.956 952.612 112.148L958.124 110.744C958.367 112.061 958.8 113.101 959.424 113.864C960.048 114.627 960.811 115.164 961.712 115.476C962.648 115.788 963.654 115.944 964.728 115.944C966.358 115.944 967.571 115.649 968.368 115.06C969.2 114.471 969.616 113.725 969.616 112.824C969.616 111.888 969.218 111.195 968.42 110.744C967.658 110.293 966.479 109.912 964.884 109.6L963.272 109.34C961.504 108.993 959.892 108.525 958.436 107.936C956.98 107.312 955.802 106.48 954.9 105.44C954.034 104.365 953.6 103.013 953.6 101.384C953.6 98.888 954.519 96.964 956.356 95.612C958.228 94.26 960.672 93.584 963.688 93.584C966.566 93.584 968.94 94.2253 970.812 95.508C972.684 96.7907 973.898 98.5067 974.452 100.656L968.94 102.32C968.663 100.864 968.056 99.8413 967.12 99.252C966.184 98.628 965.04 98.316 963.688 98.316C962.302 98.316 961.227 98.5587 960.464 99.044C959.736 99.5293 959.372 100.223 959.372 101.124C959.372 102.025 959.754 102.701 960.516 103.152C961.279 103.603 962.302 103.932 963.584 104.14L965.196 104.452C967.103 104.799 968.819 105.249 970.344 105.804C971.904 106.359 973.135 107.156 974.036 108.196C974.938 109.236 975.388 110.64 975.388 112.408C975.388 115.077 974.418 117.14 972.476 118.596C970.57 120.017 967.987 120.728 964.728 120.728ZM984.301 130.4V125.2H998.497C999.467 125.2 999.953 124.68 999.953 123.64V116.464H999.069C998.791 117.088 998.341 117.712 997.717 118.336C997.093 118.925 996.261 119.428 995.221 119.844C994.181 120.225 992.863 120.416 991.269 120.416C989.293 120.416 987.542 119.983 986.017 119.116C984.491 118.215 983.313 116.967 982.481 115.372C981.649 113.743 981.233 111.853 981.233 109.704V94.312H987.161V109.236C987.161 111.316 987.663 112.859 988.669 113.864C989.709 114.869 991.165 115.372 993.037 115.372C995.151 115.372 996.815 114.679 998.029 113.292C999.277 111.905 999.901 109.912 999.901 107.312V94.312H1005.83V124.888C1005.83 126.587 1005.34 127.921 1004.37 128.892C1003.4 129.897 1002.08 130.4 1000.42 130.4H984.301ZM1024.04 120.728C1020.71 120.728 1017.97 120 1015.82 118.544C1013.68 117.088 1012.38 114.956 1011.92 112.148L1017.44 110.744C1017.68 112.061 1018.11 113.101 1018.74 113.864C1019.36 114.627 1020.12 115.164 1021.02 115.476C1021.96 115.788 1022.97 115.944 1024.04 115.944C1025.67 115.944 1026.88 115.649 1027.68 115.06C1028.51 114.471 1028.93 113.725 1028.93 112.824C1028.93 111.888 1028.53 111.195 1027.73 110.744C1026.97 110.293 1025.79 109.912 1024.2 109.6L1022.58 109.34C1020.82 108.993 1019.2 108.525 1017.75 107.936C1016.29 107.312 1015.11 106.48 1014.21 105.44C1013.35 104.365 1012.91 103.013 1012.91 101.384C1012.91 98.888 1013.83 96.964 1015.67 95.612C1017.54 94.26 1019.98 93.584 1023 93.584C1025.88 93.584 1028.25 94.2253 1030.12 95.508C1032 96.7907 1033.21 98.5067 1033.76 100.656L1028.25 102.32C1027.98 100.864 1027.37 99.8413 1026.43 99.252C1025.5 98.628 1024.35 98.316 1023 98.316C1021.61 98.316 1020.54 98.5587 1019.78 99.044C1019.05 99.5293 1018.68 100.223 1018.68 101.124C1018.68 102.025 1019.07 102.701 1019.83 103.152C1020.59 103.603 1021.61 103.932 1022.9 104.14L1024.51 104.452C1026.42 104.799 1028.13 105.249 1029.66 105.804C1031.22 106.359 1032.45 107.156 1033.35 108.196C1034.25 109.236 1034.7 110.64 1034.7 112.408C1034.7 115.077 1033.73 117.14 1031.79 118.596C1029.88 120.017 1027.3 120.728 1024.04 120.728ZM1050.02 120C1048.36 120 1047.02 119.515 1046.02 118.544C1045.05 117.539 1044.56 116.187 1044.56 114.488V99.252H1037.85V94.312H1044.56V86.044H1050.54V94.312H1057.93V99.252H1050.54V113.5C1050.54 114.54 1051.03 115.06 1052 115.06H1057.15V120H1050.02ZM1074.85 120.728C1072.28 120.728 1070.01 120.191 1068.04 119.116C1066.1 118.007 1064.57 116.464 1063.46 114.488C1062.39 112.477 1061.85 110.137 1061.85 107.468V106.844C1061.85 104.14 1062.39 101.8 1063.46 99.824C1064.54 97.848 1066.04 96.3227 1067.98 95.248C1069.93 94.1387 1072.16 93.584 1074.69 93.584C1077.19 93.584 1079.37 94.1387 1081.24 95.248C1083.12 96.3227 1084.57 97.848 1085.61 99.824C1086.65 101.8 1087.17 104.105 1087.17 106.74V108.872H1067.88C1067.95 110.883 1068.66 112.495 1070.01 113.708C1071.36 114.921 1073.03 115.528 1075 115.528C1076.95 115.528 1078.38 115.112 1079.32 114.28C1080.26 113.413 1080.97 112.443 1081.45 111.368L1086.39 113.916C1085.91 114.852 1085.2 115.857 1084.26 116.932C1083.36 117.972 1082.15 118.873 1080.62 119.636C1079.1 120.364 1077.17 120.728 1074.85 120.728ZM1067.93 104.348H1081.09C1080.95 102.649 1080.29 101.297 1079.11 100.292C1077.97 99.2867 1076.48 98.784 1074.64 98.784C1072.73 98.784 1071.21 99.2867 1070.06 100.292C1068.92 101.297 1068.21 102.649 1067.93 104.348ZM1093.31 120V94.312H1099.19V97.172H1100.07C1100.52 96.3053 1101.27 95.5427 1102.31 94.884C1103.38 94.1907 1104.8 93.844 1106.57 93.844C1108.44 93.844 1109.95 94.2253 1111.1 94.988C1112.24 95.7507 1113.11 96.7213 1113.7 97.9H1114.53C1115.12 96.7213 1115.97 95.7507 1117.08 94.988C1118.18 94.2253 1119.76 93.844 1121.81 93.844C1123.4 93.844 1124.84 94.1907 1126.12 94.884C1127.44 95.5773 1128.48 96.6 1129.24 97.952C1130.04 99.304 1130.44 100.985 1130.44 102.996V120H1124.46V103.412C1124.46 101.921 1124.06 100.795 1123.26 100.032C1122.47 99.2347 1121.36 98.836 1119.94 98.836C1118.38 98.836 1117.13 99.356 1116.19 100.396C1115.29 101.401 1114.84 102.857 1114.84 104.764V120H1108.91V103.412C1108.91 101.921 1108.51 100.795 1107.72 100.032C1106.92 99.2347 1105.81 98.836 1104.39 98.836C1102.79 98.836 1101.54 99.356 1100.64 100.396C1099.74 101.401 1099.29 102.857 1099.29 104.764V120H1093.31Z" fill="#FFFEFD"/>
<defs>
<filter id="filter0_f_926_135" x="128" y="116" width="194.748" height="194.748" filterUnits="userSpaceOnUse" color-interpolation-filters="sRGB">
<feFlood flood-opacity="0" result="BackgroundImageFix"/>
<feBlend mode="normal" in="SourceGraphic" in2="BackgroundImageFix" result="shape"/>
<feGaussianBlur stdDeviation="17" result="effect1_foregroundBlur_926_135"/>
</filter>
<filter id="filter1_f_926_135" x="851" y="309" width="194.748" height="194.748" filterUnits="userSpaceOnUse" color-interpolation-filters="sRGB">
<feFlood flood-opacity="0" result="BackgroundImageFix"/>
<feBlend mode="normal" in="SourceGraphic" in2="BackgroundImageFix" result="shape"/>
<feGaussianBlur stdDeviation="17" result="effect1_foregroundBlur_926_135"/>
</filter>
<filter id="filter2_f_926_135" x="134" y="486" width="219" height="219" filterUnits="userSpaceOnUse" color-interpolation-filters="sRGB">
<feFlood flood-opacity="0" result="BackgroundImageFix"/>
<feBlend mode="normal" in="SourceGraphic" in2="BackgroundImageFix" result="shape"/>
<feGaussianBlur stdDeviation="17" result="effect1_foregroundBlur_926_135"/>
</filter>
<linearGradient id="paint0_linear_926_135" x1="133.049" y1="160.663" x2="265.905" y2="256.893" gradientUnits="userSpaceOnUse">
<stop stop-color="#61DB94"/>
<stop offset="1" stop-color="#0F9547"/>
</linearGradient>
<linearGradient id="paint1_linear_926_135" x1="85094.7" y1="14173.7" x2="65001.8" y2="14173.7" gradientUnits="userSpaceOnUse">
<stop stop-color="#808285"/>
<stop offset="1" stop-color="#58595B"/>
</linearGradient>
<linearGradient id="paint2_linear_926_135" x1="131.603" y1="501.841" x2="290.358" y2="616.831" gradientUnits="userSpaceOnUse">
<stop stop-color="#61DB94"/>
<stop offset="1" stop-color="#19964D"/>
</linearGradient>
<linearGradient id="paint3_linear_926_135" x1="75518.9" y1="-33488.7" x2="56871.7" y2="-28492.2" gradientUnits="userSpaceOnUse">
<stop stop-color="#808285"/>
<stop offset="1" stop-color="#58595B"/>
</linearGradient>
<linearGradient id="paint4_linear_926_135" x1="1031.96" y1="305.431" x2="952.97" y2="472.789" gradientUnits="userSpaceOnUse">
<stop stop-color="#61DB94"/>
<stop offset="1" stop-color="#0C813D"/>
</linearGradient>
<linearGradient id="paint5_linear_926_135" x1="-83903.2" y1="14345.6" x2="-63810.3" y2="14345.6" gradientUnits="userSpaceOnUse">
<stop stop-color="#808285"/>
<stop offset="1" stop-color="#58595B"/>
</linearGradient>
<linearGradient id="paint6_linear_926_135" x1="470.827" y1="281.477" x2="567.828" y2="486.46" gradientUnits="userSpaceOnUse">
<stop stop-color="#75DFA1"/>
<stop offset="1" stop-color="#10823F"/>
</linearGradient>
</defs>
</svg>
